<mxfile host="app.diagrams.net" agent="Mozilla/5.0 (Windows NT 10.0; Win64; x64) AppleWebKit/537.36 (KHTML, like Gecko) Chrome/134.0.0.0 Safari/537.36" version="26.2.8">
  <diagram name="第 1 页" id="_SHvd8bACcBZ5C-QRW2l">
    <mxGraphModel dx="1820" dy="1109" grid="0" gridSize="10" guides="1" tooltips="1" connect="1" arrows="1" fold="1" page="1" pageScale="1" pageWidth="1654" pageHeight="2336" math="1" shadow="0" adaptiveColors="simple">
      <root>
        <mxCell id="0" />
        <mxCell id="1" parent="0" />
        <mxCell id="mVMNMaw9jNS7bV4Ns5Lu-272" value="" style="rounded=0;whiteSpace=wrap;html=1;fillColor=#f9f7ed;strokeColor=default;dashed=1;" vertex="1" parent="1">
          <mxGeometry x="189" y="383" width="1398" height="758" as="geometry" />
        </mxCell>
        <mxCell id="mVMNMaw9jNS7bV4Ns5Lu-4" value="" style="shape=image;verticalLabelPosition=bottom;labelBackgroundColor=default;verticalAlign=top;aspect=fixed;imageAspect=0;image=data:image/png,iVBORw0KGgoAAAANSUhEUgAAAFMAAABTCAYAAADjsjsAAAAAAXNSR0IArs4c6QAAAARnQU1BAACxjwv8YQUAAAAJcEhZcwAADsMAAA7DAcdvqGQAADAySURBVHhe7ZxpkFzXdd/P9Dr7AsxgXweLREpkKEoqitCWSDEjR7KkchbJW+xIFZWdKqeSSpwPqkRGnFRUrnKSshM6JVtSUiW7KonWULYsO7FZSixSNmmJBE2CBEkQBDAABgNgMJh9enom/9//vDsD52u+5va8fu/de/Zz7rnnvu6ennZv3+bGxkZsbmxG1HqCV61WC/q43tSL+56I6G52BRdRFxzgEbop8N1uXtdrOm8KH4DEj83N6IEAVDbpM0Q06vXEy8Gtxi18gKtDW/jGFU5KyFXy5kCeLjoIrEfIwDeMBzx0wK9pXHLoyk1wmxpnhDfElqYaB194HkfuygqVCObBhQkB200YDdh8hhCxek8aAsEMqiH6uhvd6HQ7ZlqERVuY1QCS4TY592DE7pYhQVgXDGaGQRE0JEC70RCJNEmtVheduq5QAMjKEKKHwslCjtQgVC2d5LLs4tGRQ5DLsugeBwALvS1HiA40cfa6zpuSE93EOerqq/UgD3QyWHAA79BbM336kVMXJic9JVMNGuoDuqfZaoMhYFyTngIeGehDmRxH9IwAxlHGQGrFgzDa8rZgawjFvTpgmooR6XWx2lCkSzkkg14yrDCBAqcn1nGsorkoWHgB1VRkY8jESDnBwZmAWEH1c6YRrUlvmxeG6OreXbrvER9u6OtvtWKlsy6aChLJYAAA1Zi5zEg6uWZMdyah425lamYMIooznCO0iisEuAZG95DF8927o3J9XX26VGMMpsWgnIlAG0aHI7viYliNg0vENupVhEkh4LnGtJ3uumkJwyfgjWOZkSjji4aBMRA86MO5yG7+6jZdMHQNFG8rHc1GXVhVmvGzEf3A5AxCTrQxsqaGboC1L8V4vZuRsy6B5Rg1opJwTzjdigCCZX7B/41624QRH5owaEqxVr1hPI8BKzoF1/jWAKIcimBRIGKgQ1/mb9Fv1KuZ0SNempZEixuj5R1ScqJ4ZBpKeVG+YfdlGnAK0d2qHI5gJJwm091ibEZTvGwLXSO/6epIRyr1yTbIs53T1e9pjpK6J2xLvkxUBMwXvXgBJRzWakBgCAsmgQxU6Ze5DtErkyi/FFwbwcZiFKXuahpiMQTXC4voEJGlbU9tGlNNKUMylAVUQpp2I1cU62N0hlEcZ3BreXMGkI4wIIaHH7YpfQgELPpspyS/VUdq4HzqiJQAxEhHXkKwBgIKCA9wzxjEQMgcaNPKkDrLkOsoL7rwgGFZUDBekygQNI3IzpwnGhvKRTgPehqzaRnTDfjoSsrgniixFBpfrwy5blq6oM8zhmtLmq8u+nRiw/3bBtObeFKV5OwgnTk12fHiIhiCAzTSArPAhoQBh/qIYi9ygoI+jjdeS5HpqVcxwhyoxnUmfY2JMQ2CZuC7bOA1ENR4iCMcvK8+hPR0NX08m/AWyg1+eZ1GzutUgHsckSknZWERqWt1VerRi+izwcH3qC9MEl5UElbaxkpOMqMdzp0N6sBJh5GDEa+pIFhfl84VHTxKcCB75v6kZwMzrBN4tfQlqxrlgRAIfaJGBBC0CwO9EN5TBiw1q6BQrNeYuhkdGJqD8iO9aVA3LjsaA4/phKEQlWlLgyrRAxwszAZ4HTaq4SNWJQ/RhHFBgg/KFPnaWoFrkqmDQ8EBxlyh7yVPV0ATYZLJBu1RFGeZQ7zZBpQ9GgemKz3RD2PimGYj5cHp1MqpnfTKMkJolZVhSFRVxo9Wo2XWeIGDvl4JLHryMsaVcvIkuhEF4maloEkU0TIaEVSR5WhCcA/ZaJk2qms46IyQKOlShl7TRwamv3J3FVHwAYdr0hALJimElr1cwDlnCsb0NNcLWswqHJaGZJTDSDYkY3aYrqlFubA+jNqR6ihsmu1eX2JxM2BaCKMpoK1imD4TFSjIJkRcgYojCoNsGD3vq+ld3ZdpQUO9NGE2+HBsaEqT8IHkMFXh4uCcroVG4ZdQGD7tTsTZJWlcOQ4YDOdWkQA7Rcwo9WKnPAsdjM6Qi3F4C94zruKN0YnoEmS5uUBv6OkK67tkEBlySccLRBbL3tWYswyjE0JzW683HZ2SASoiCvmcbhiRBgNEw/Ol3IFW+lrjVYQ5Ylhc1C2OqZRoIJcXIPgKjoIFiijHVC70t1ZpHTn1sBPuTkOpVDXfDFKQgIRo6sY0hwC6GAd46wYPpMMyCjLk1RhlVLoNGGgJPUsjLKxBEc5uGsg0hMzopCONSqu8KS/aAXq3NDROggPWk6bqzuZB6+NpZ+0wRkYF4zgFIxKIjgbRIU91vBBxVplVyQMhlDGm3nBYpoZsWzLo8HQVD3iSDqyT+nF81tkpV1Ir72bv/rsbciB/QqScNQgBnNs7FMrS1oTUxxiNEsWJWS8WJ4hnNOAbIgwjVIxNE2HUoc6maELPHrRUKKiXDZmR5HyrlgaFfu7CZKqoax+/SsrRa52pKBq8WHWJHPjVJRO6sFggE5iws5EEj7sJFagz60gB4GPgQo+IA6JM7xI44HKflQlO5B79tejKwfACtqdBaWSMomhpEJSgVR8KU+Nl1NCTBD21q5wBDv1IhYkNqxeCwqylqYEz7VHwgC1Nl2lINQmMoJ6mkgG6SYnG4iPjrme5BGLyEQ8iVnLa5SgpgxU8+LtOJmrNRiN2AukKelWkWhGil8vEtSGFS/Bwj+MzjTFjk45nWUOCIBBDG4SfrovoHqrOFPQ2rEBK1PG0BTi8sy2cBMK4YOqttim/CQ9BeVqDUlkOgSPQZJJnHfZw9viauxKt9Ektn3MmEN3AZXQ2FcFlpm3zBI9pCBb9utZVXytzdUdGyFTFuN4d2Wl8ejAi5R+6eddkrNSXawycM1n8CBIGnGQFI3SDpleo5xqOBDf3EXEm412G1ZNxpJKiQh7TPa2HKSpATx26ENKGZSXEqOnhBMcwBVAKKp9tNRyA11UDM0pJ5JwoeKZrTr/cgfg5gmCKg6Dn3OrLNBK7NVbi5bVMa45knf1SvyNNcEBDh8W061ILbI0QLLIRMBlSaXhY9tSbrU3nDB0IBpIjrwgkFGSvaz7Qg9EtOIxNOHG2z7T09N0jvGFY6DrQGFGfnalIRmmMhjPglNO7GI8Fh4VlmyLvzAxyaMqLo7iGSUVDgqfz02lpMmrnplOWZ5IqEq/o6qehm+UTYLEJwcKit6Ut42rEI3jgMOIZ5Cmje09RU0mCICFUo44QOe1I+EylUn6AgzOABJdxrpsSGEGkir0LsZoUtcM4yzCeOqZcngswXclPjHe1pevE2vqqebGwQBdZmc4uqdwHaaQUD5Fm94YRyYW58IDDXj+DANres+sasbOCSVnySZNkQkaNOWWILuOZvnLHZqcbJgMDHJyttCKjSChMwPTB+Rl9CJZIrPCiZzhomAhaqJMpk8mYA+OKuv7WJDCgLTEnVdCyGMcpCJgkgae+ZNeSU6oba2urHhsZbsfEjh05s/zUKWLn2HDc88bj0WrnbgRlMFnSQ9ZML8ivobx2hGb0w5+RDIaihXZ1TaUzy5pGA4YHwj3YxzDYInWFp2eSEDkwNLNGutROQwxkCMHK97rISI2YGBuLucVFEe6JtohDECPzwtMk4BSAKK8e7YsAL7zsiKPLvWClSnDi4xD3pRDuB7bR34of+cAHY9fYeNy6Padp2YmJPbtiYt/eeMPkiTh+YF9cuHrd0QsORmQd9CzTPa4l+gfb7VjtrImD9Klkh76jz3yJ0FxCcGbqJAMKpjiqI2IN7Vby2YXoyKue4o5q6GJ40cmnRhpSR5YNREoJbcQyS6GmGWy0SvMiiBug2e3miBY+XXh8k+hDCd0zBeFBYi9oxbw2Rl89fu6nPxFPPPV0HD5wPJ55+sn44A+9P0LROLFjd1y7OhU378zH+upqfPeJ78WNuXnJkhFDpHiFl6JJUm+WS2dymc4pN2fKL2Zd5kwM1Gy2lAbWBMYUzqjOJlwiVfpSsQL9fzdCyhflU0KmNl2OLggS9gJjm9VQsrZHsQq9GBI4M9Khc6n9fNIZoT3GfXWdhhQ/0OiuBMOQbU23T3/q52Nudi5OHDoS169cjBNvOBn9I4OCUK3aasb+gwdjoK8V7d5WvP2hBx0IyGtelkdN51wguebIgIA/D2mgRaQRw6SxsmmwIWmCc3C5mYBpsshxzcYFGs6d1kL0NGEd3jDGM/kEKHfAPTKajauGUXNqZ4TC3GWHIqI8OadxDUrCqa8yngVQP1A81rOw7t2mV++vxz/7h/8kNjSvWHH7+wbiwftOxkc/9EhsqEhfWFiEg+U7MTkZ7f7BePncea/2KOmpJog85/awzB6nMBubSiR14t06SYftKY5RU/akpubUYMpbtXLXT50xKqEmWBETajJJAD7zYaWTcBrB0LCALatsBi3C5S6Gh7TgFYI4xI/XJE9LecX81YetgaMOhD4yQjUFJOcIob8W/+rT/zxWRPfSnRvRNzAam51u3JpfjakrU7F/z87Yv3sPqFauI3/cnL4RFy9fig+9731x74mTokNxDWXoY4CMNq7pzoVyO4I5ZURn6kEO9HJeFRb3ZUFLurqXMp61nurorrSosx3RrLdOM0bW8N5cXm+ZaN5Dg22gldc7kVT5QkZKRi2VKq4ETBIYwUsoYAB3mSIHZdlhQlYAWjxIbg7W41c/80tx4eKMFpvp6FnviekbU9Fo1WKluxJTMtrkoUnPEhYHhP/N//rlePaZH8QPP/KBWFlfiZHRYZfSt+bumA9Pd4ginJkyI4P0Uz93uZdH2tJkeAnFfa7YiubqGnxg03hpCw7SEjMx6YpPfm7OEO/JlkPDQkylec6Hd9nDgli876ZxvFOYkSZ45O9cqz6MzYrNAgRsUYwr7WWjOVCPXzn92bh6aTpuzt6KhZXlWFmZj/vJk4OjzCxFsxQSOZdqMuU3Hnsszrx0Nh5553t5FuadmEd0fv211+L8xUsypFhgTLV8ICIXYFvLmv2WQXJ6sbJcaTjswD2zLKOTByx3b1KqxmVRR61GHZi2UY2lqHTupDRAPEeTLuVFThiXfrO1x7hl+iKoBBQQDxgYYBUkUteU0HNlxYMg6FKEBgfa0dm3Gf/5N34zbl6bjaXF+XjptYtx/vKFeOtbHoz20A7z64hPrckMkFN1/NbXH4s/lyH/+l9+j6yEw9TfxCjIrwW/t88G0yWMMpIlC7y9UAmlPKJzxKmiwEmGVwB5glvOsjGRHtKPcQzPzCWYKI4SiRqzWnN4RtgDAP1qFNZr1YIBYGHCOEJZTMEgPFCs8G0dWTIwpDHBsPrzFRhJWtFQ4wJFpRTi/c/Pfzf+1t/4ybg8fVFljnY7ndvKf39VBXQzmj3Ki1ICddakLIvM6y+/quNc/NSP/micPHpC/DOdNJQ/4c+nni+++rJlsJWJQFuR2YQoOJ4HLdpCin+bXUAKrZOoYWz1gw698pTetNEXJ4gW9wQKtgCPLS9R3FNvtODqcMaT5BvKG8iKt4HxRIpXmUUES3lEM9lK/vI4DjobrNoeoCVzcmRjsBG//Au/GANDQ/H0mafj1z/3xXjvu0/Fux8+FRMT43KEIkqzwgW9ZBKRuPDy+fjS174cf/PDPxKTk8ejqxWIVf8HZ581X9rj3/uz6CwvbfO1IXOMC6covXIBkXGlg5+9GggibFyI1pyJjnDhkKNLagOXg1s/nwXbcI5cLQCKIPKKIWRER6boO7eoC8PyDktWeXNSM7TlkjN0zoQMGfIXCnFdXCBBVeC1h1rxy//0MzHUbsX//t4fx+rcarzzXaeiZ3A49uzZLU4kflZr8lXL02fu+oym91fj7/3dvyNjfjCaqjVbvaoN27W47433+OHx5StXgg9RZAqxIt/JCOJNMCETBiLquEY9+rnhCZbuuNFfpoNibM8wRtSJnvmRNjk3McDhiZrp6qi3mq3TyQD7Y7RNF85Zi3Hc1WACYb0YMWlHDlM5Synaxgbf0UnwIhhPeFrDrfj0P/iFmLs9H8+++Odx49admJq5ou3qUPy7X/oXceT40Th/XnXj2npsanFC9j958qn48jcfi0/+zI/Fex56p1bMRowMDsadhXnT3RD7dnvACo72D8XV69NpOPFtMNMsG8oKgPBRyyfm2ecZ6aaz+BEsGZe8ZyDkI8acqbRcXOU40+G+oqV2mpWYIz8+7dpzDJu6DhByBcwYTWb05ZnoKat519/dSSNSNoCLIftH+uIffeLn4saN2zF7Yzqeevk1rS7L0RgdjZ/98Y+b4qAi7t573xTnXj0vUhvx0pmz8fhTT8ZP/8TfjgcffHssaWov3FmInTtHo0+7n8XF5VhTrq2x0iKYDL1jeDCuTl9DKpkRo5K60iysB9y3FE25CFXGQFadM9eiBWfKK6oA3VH+VC/skLqpnzOw1TjLt+pMMTQd3tJgPktCrJ6JV2EsuAQxsMugzCUcCccUr4bNtNlqRP+Okfjkx34qZrVFpPx56rkzsWOgFUcOHIxHTr07NuT5uYWlWJcjO1pE3nHfm+Jbv/N4nL96IX7+k5+KN97zBhlxyfz6lE9mZ+dV1PdpweqqxtxQTXo9xsbGYuralRjfuUuRveZt4eqaDC0Z0CHzWsqWhsyoJNqQvrxTweBIVwGVwTAV+qEWOCzEOIU+B5cG6ppJMmb9tJUWMsbC8kQZU4z79GoVhaYpdGFn+aRL92FIyihC391mzT76HhmCenDmxs1YWbgdf/bC89qtTMbJ48dlkOG4JQNPDA8LOhP9QK0dT/zR4/H73//j+Mcf+7gcMeEpzZTtb9djWkY9sn8izpy/GMqa8eqF1+PkocPx+tWp2DG+U1Ha0XlcKzx1MU5aFFW9JGhX0xw9/S0OCZpPxVAg+21ibm22VCT34EQijlDqEFyqjIPAzFlNJzYzIEaksAUiWeisa6YKdw2VT6x03snwEjycWb0hksY0TTUxUufErvE4cfR49ChSZhQ9f/j0c/HwW94Se/ft17Ysn3YrW8dzr7wSy6ur0V1ZicuvXojT/+FzcfLIsVhQ9M1oWq+sLEar3YyVtW5M7t0Rl69dV2QPx53ZhTi4f6+iteat5o6hEW8Edo6NxObIiKZOQwsVZVBKxedRRCWLBvqhR4k76tnUh+XEZpDudy1I6mem+qMSvdAXvTEqzcZttVqQMIFkSasMCSW1jNQ0MttOrsxAGJQ6aywYYuIGA7127ZmIk5MnYnl5OXo1PV95/fX40F/7QPS0iYj8aiGrI/t7P5TVsXJ7Ib7x+78XH/3IR+J973qYOaWCvRlLSgG1em+Mj/bH7O1ZwfbGWZVKQ4N9MaYq4PrMtejtH4wfvPBcHNq9Xzl5Robs0WJ2QWPX48VXzssoGUHIzTOCStCMVDuVlqYtSxYaEhQsaAZGXxmVwGOcp/+2A3bSqd5stE4TcTwAhQSeYbWDMXtbLM6jekg5JkWYArYkYPjkDmfbGX197RgaGNI++Xa0VOK8eOlyfPzDH44NKegvjgIoz0CTiMfTF7QgffuJ78Tf/5mfiFPveMhROCZjzcnArXordo4PxtrckrzfG5cvX4ue/t7Yr8i/cu1yHN97OJ56/vl44+TRmJu7pdW95adODW01683eGBsalFFnxLL6ggIGcNsOGJvP+hIo1Zj7Mn759nLqTHBBIucvYxgUKvV6s32aTwOTQPIhdzDsEkJnwrt8HOoHvWKKh1y06mBhwKCMg99VvlpZXfbXsOe0Yv/khz+iUie3ZpRg0HAxLHQi9LtPPhHPnjsbv0J5dPhYLGmFxiHLq2sWZmhkIG4qVw709sfMzevCb8Ub9hxUenghjhw6EWfOvRiHDuyJ3kbbAgwPDcfFaZVcO8Zj6vrVGBvdYX435dwSBORLdjhZ9sCG/jRkFuPYgCNtAJ53OhW+PwuyUbdhXRrBiDvsDJCfuGAcWz+jtUwRf1pYMUtPcpUPBZw3TDYFamrv/OMf/ahqQUWjaPtPB7CUJ10tFr/1u9+O27evxxc++y+jb3gkukoZw319cWt+Pga1z+5TBN6eX4iJwZE4M38jBuv9cWBib1yZej2Os/BcuRi9I4NxcHR3LM7fjJHRiXjuJS1ycsprly/F4QP7YqDNfn0jZm7NxaochI6pX0abXzp7TbC+qYXfGZfBMskRAPlhnetynVNb7KdZ0KBod0dGXT560xiG0z1jGBIkjFk+faQl84wuE3RDGB44tOOR979feW1YKUT4Gma3QapoVDnzq994TPl2IX72E5+QIG2t7oMpg2bKgHJlTcacuTUTg/0jsbQ0H/v3nYz9I8MxNXU59hzcF/My8ppkOzK+J85PXdD4kXjmhWfi0MGDWrQ6MaA0wS7q9vxt75LeeHTSzz+JeHTxZz1qIuGIzN0d+mf0cTDY22pbb+CsOmMgMq6r7FaweVVWy8+t01BZoPPoixUa0DSWp4JHcjyjFQGozdzlVpNB2oPKVZpefPKY/t70c9IW8Cq+v/Z735JSy/Gpj/2Yau2WFpnlWJqbE+V1Tz0lvZjRNrK3PSyKG6oZFRFr89oyXot9k4OxvHAnFlZX4p4jx+NPXng2Dh86GC+88nwcVO06MjwqNZRzR3bE6spyDA8MqMhvR+9QfzygGpbat0eLG9FVVuVUTHLKwP7sK/9s5fKZOQ7gjMGdazkElPW3UwefTmImBt0nZZSqdQExeyfJmikGr7lYT8OTT3N1pFWpQDuRe44pinbtzs2AQHEKAjS1//tPX/lKrCyvxDveer+jqKfWVIR1Y13GWVhdj6GhAU3faUWTdjnKcxjk4P4D8eTTT8tJE5rq6/GhH/6wxu7Et7W/f899D8SVmaux1qO6VtH58sVzcc/hw/5Elcd2733ooVhcWnIlcOjAIf+2Z3r6ug1D2sqFRjeSnfO6ZKGudQipo+W0l6FEUe9vS6u/RC842FD9zdN+FkiIp/kMQHItZQBGzp+N6FJj3tibUMYoH+RXmBZoVEU457n5udi7a8IC+JGc3n77q1+JersRD7z5ftO/MnND28MxTzHu1zqrMavacqDZrxw4K0fVYs+eA/Hd739fNevh6G+2Yn5pQ5E8H2dvdePoRH+sdlcVuRHHVBa9cvHVODY5GTO3b+N5ydpVQX8lTt5zTywvLmg7eyseuPdeXS/G1Rs3LCdphXUhAyTXDS8uKG5d1avLNCBRqKCpNAaeMWxWbytnAsQMB47BXN/yGSLIfDUmCTHOSDKlD6I95NYqNcB+eWWV/OHrmzLM7omdUe9EfOnrX4/h0cE4euwEZaD44VUWhluxf2IciWJxeVUG3YyFxXmZoSZn7Iqnnz8TRzWNRwfaiq47cUAR/9z5s3Hq5M54TYZdV5Qf3380zp57Pg4Jbvb2HPV69PYNSJZl6d4Tt1QFvOut74gpna8rKt/2l96ivhva3s5lgNhYaZQ0pHSh36t12sMG0zURmo0x3qsxpjlTMw2UaNT4tNwyMob1sw/U8qiNBE4vC1FaOpnSWDVhQPfN6Wvx+JNPxuTRg7Fn74Foi0OPknq7xfQRsDw5rSgZGBiRQI2YXZhzrbhzaCxen7oY+/bs1VTDMfNx7OBkPPmDp+PNJ++NazNz8ZYHxlXLDscPnns23nTvPXFHEVnXrmd+ccn5eXhY9al2YEzl81r5T73jbTF15arq06vx8H0Pxv/6/tMyJJFUJM/ciIIOFNGwVrxx1uEguktff09fs85FO/kgkRyaes9VjsSKofKJM8bFU/ktNgzVJ4OUz0YwrutNXXi6i8myImZFW8Rp7csfvP++aLSpA7W2DA7IYIsq7Eeis7Jk2H07J7SX740rMnxvX6+2i0Mxr3y5b9++2OisxcLyYuwb3xvfPfNcPHT/m1SX8hGvVv3uWKxszMWB/W+K66ope1SOIU+7UfM3ORTeWnC0Gmu7Siq7Mn0zfujdp+KV1y7Ef/zK12JtSZGrF7oyO4EhNnLDQuCgby5AaFXe+1ot7d7YrKTdsI2M2czSaKtoyumJQORLA4kgxiJGuaex4q2ud5xLaUxXojfTAn0Zzfm9zlrs3r3bSZ3k3lnfjF1a6edUS7ZEDkU2FeWvK1p2jQ6rYJdRtSXcJQMvLS8oV3dcW/7p88/G0SMHo6Zw3oiOVvLD8QffeyIa/UPRWZ2P3UPtuKMSimeebUULitzQVpSPJwb7+2N5bTU2kKfdH7uiEd96/HHpiT6pE0pSY1MaYQPrLN0Zz+8W5XTGDi6fgHH8Ai3jN1v82oIbPsUr+1TuqTPZJTCcxO09nbFn7ldzSlBO+Mk6pM1cV3IzEBTmOIan+fe/+T5XCozwqGF5rRNXr16N/sGh6NfU3KeFhqjEMXv37Nequ+w6dZ8ccfaVV+INxyZjWNN/Vbz37zsUf3rmmTgxuT/GVdAjww3t0a9evxWDYwNxcO9+Rf2aYeeVk/v7+uXEpbizsBKLKt5/7fNfdDorBkIPgodPHPx7SglPzbtePZ+lGUY3aEj5tzWG1dWU9pQzbV2I5ZMfAOgjhEu0wTDrz6SMefEWRiL63CdYHELiBo4IJWVQy1H0Tikv7pnQ6q7X7ZuzcfblVxR5y47yVm+vP/Pmq4hjw0Px+vQV1amjMdo7FM+/di5OHjka62vLsSJeu8Ym4tmXXoyJvTtjQgX9imZIX2Mzdo/vVhm1FtdFe01wO0dGVQKvavY04o5mQaikqask+dePfl66yJTSNR9g556dtYa+jL2MPA1adnSlB4PycKfLrzMqKL+0A6o+N+fWeJWnuC7RpmuiTf3OjRUTzJ/byrzPFRFcmNOPJ9m/UzbJERKWhw89VAZ6kcv4nmTh21LEHTl4OAaHhlRrLseJI0dibGDYtCbGd6kcmovRkRHl1t1+djk5eVRTkskVcsiq9uGjSg9NLWJDcXNmJl569YIWuz1xcPdO5WdtCLSq37h+Mx599HOxsLZixyM5M8z66o7nD1y5ypDRG8q7a0opaE1goSsHgYa+3BFgrlV1rnJm7jkxJFPZ1N3gkntWCDBOI296SmzlF8TCO8CkeTEkV3wCyHhZvExj0+IJX3Erp7GI0X/7jsoUncd3jEVnrcunEDEog16Q8Zjuw/3aSiqvHlWhf1UFeI+Y8WjvxRdelKFHY6h3UA5ajnGVTqsqzK9NXVVVoG2qdmNrWt0/829+LVa0MYCX7YZ+ajyj9SeV3FdGYgQ92O38xQfh6C/5dcOZx4j5EIg9u6Y5CjHobVRFhuZkKwPAJAUQgqYuLSGyuURSBwsVOZbazLlUY3zjDFinEo27QMYZitT8aCBTCzkWDy9pp7KgY2x4RN5vxo1b05rWoyrW2zEzOxMHtLpfvzmjaS1cKTChrSNPvV5Syti5Y8Qr96Iifo/ybFc5+dWLF7Vir8ZvfP4LcVtpBJmyyWi6QSckTeezFvCV79Qdm6A/xiwm9rqBwLpnvNiLeFXR3nZplFOScxpQb95GQcSbfL384EPGggQWYIrxBAVyNhDMubYhM9dsbECPA8FzWtqwlVDIkxELLKN5z8OIPlXSA4q4TmcjLt2Y9pduF1VSXZmejoYWtla712XLDu2gcMC5l8/7syC+GNGrvLZz1864dvlSfPbRX4/ZuYUt+kQSBkMeIgujsOjp0i1NhGIYUuPCwwIESzFk6gQU9kiMeqMqjSCWPzLKCOPe0ahXRmd6DgIom2TSSHjOX0GhRx2OYGCqAzopqHC5EIwFsGAYj29/lC/tq5zqdGKgtx0N1XKgEc1DAwMa1zZKDr330JH4L4/9ThzeMx613n5XxTt27NBQM545+1wcGB+PrnRgj/mLv/o575DgVb5klbLLkMhWBUfZgDhwdMEMdBpzoKWufi4huuicVJIeUQmEdK6ddrSIMETUq6YLYYCEEe8OZw7g6SPzEZE07nFCejqhgK6GRUsXCKoXwjkXiad/7SZKRAmRwNMcImFxeckrPSUIBO0UrdCkojktJo+881R88Rtf9dayT5UAKWR0uD9eOnchLk5djtH+wfi3//7RuE1utTxWyfzTfNu1IjISADTyeElR/gRBDXjuwffhTnRJ2KSOA7QDks0dSRgAC5dQzrCGoKY7eVBc7SUTymmtyPaXtRyReBni6t/kKy4yBGLVlAv4witYRIBOLva9e8L7gncu0gD3fc2myy0iFBiehzbF+z0PvF116RVXEYva3bzv4bfHf/vmf4+TqklDOCh34tixeP75c/ElRe6ydk3IlFphBZQnGlPetmciMjPd8xlrgc2pDQq654wSaG48ZOScrRkyxhCMdGtoAcpcZmiAWMFhyi392Ec3GWVEbE55jMUUtKBqRGmC5DmNDh5TSALIOfS1NH0xElbNKMjUgFDwgB6lGZGxpm1gR1tSptclFeXveuvb4oLyoLwRi0sr8Z5T71TZsx43ZlWYK0Ln5mbjf/zhHykatdBJ/hIY5sUMsLm41bv+0BHeQHCPUZDDqc5dBIZHDWeipmBgw2ezMWv+EgIWt7LyiA2qaxo5RBMBPMgmQZqJJBPY0xAA4oaRsHjTolXCgO8VXLUbD2ade3WkyZNKb7PlBQIlswTJH3vOLq9Fu1mPS9q7/5W3PRRTly86Ly7LoCf374kvfPnLsUvR+dvf/F1XFOCnnlWu51AHnODFk7AUCzmJWHRFh/xaJfKBJAmjZZlS3opoOkZ68vQrKQq3ociEiUNXFK14OauBiwipGBKmwdTlyEwoNQTVONtFn2EgWPAyNyFwUQBw2BfsNCSw+eMq+JikFsWmFwF/K07TvqfRiktXL8eptz2svDqvY8VFeV26f+f7z7BUW0kvdPhUb3aqiGWUQrORxmIUvZFLdz4je6WrZcb5LHy6zuIcCjKfyJO//c+jLL2gM84gVj4GFWhiqGEQACWXASul9aIxZZHCAjv8daXpy49bEZUpAc389pgEqJSBWyWT76AmH4gHJUvmKAF7GLZsBzHEqlflrhaVhfiDJ74Tx7SXf/XlV+P8ubNx5sUXNIb8wiWCkBKiUGeWuA+6FNlWRm3b4eiQPbqCjjVFJpwjKrol4KxzJZ+dIx3dpyZHt/h5KJcm5+jxHAG+AlKfN/0yVPEexoemLswcg4FGriUSoUO//VvhlAcpGTniqj6mFbUiZQsCQ5IVnM+O8Lw5aXHwRyOKEPhPHj8Wl2cX4+jOgZi6ei3mlQLq4k1zrWwqaRhHmGRCfvrZx3tzooPozIUXWHJp9XM+4bhMEwzTWMFuXZHGs8z9PAGzFfSq8Pv6BjZ5KABTLwY+UimI0mfD+B4sohAvw0DE1YlBwM9pxAEBnWWgVCbZETHFwygGXZgRkdkqOB8MMd3SoYhN2cIzTKKXJ3/r2hDA01iw8znh+VcUriDuIm1Zys1faABt9yEWAUXKQj/GPLnUMmpp6qBP4yU91sr/xZCcOpMbdRYCXuUBKdOUh8H41UT1gnzuivIa5lZKF7zsAMMnIwTwmGBc+DJm+BSWsVw9U/P80WlGOZ9Hw4ceIhiHEBFrClRmK47IhSxl0J9bx4scMy3HoI4cOL40HjESpdAGjf+7QTMN6NmQ3OdTL/DTecQoAwLiTzd2lLZknM2MX1NYYHU4GnVuaYVc6/D0CENnuUJj2mQ+SWPkTgHFYYZzqnrOeKIuHrkQAZ8Rmqt2blP5+cvK2qr5IpCfyggHWjTgU5HCwWLaUPAnIh3pHsuZ5ByqVp7qgG/6UGEMeo6qggcfprhoOapoyQ2ZoSGWuk9zwtcQ6qS/+vF+SkUO8YCIW0Ch5LPKREQhYoQRUoO/rMCdzjjCcGLIuH+qzLXwePHHPbBEKAYjz1pRwfIrYPAq0cWrcobw+T0jDVk9R6yYIHEYZ8urae2nUeRsHCVdRIcXD0Lo4x4a9KUTG4kLR8KLWli0XeIJOp/vZlrbghd9U7KDMhiEpB7ZJp/aoKQ8J+H5sRF+JdLIUcDCHiEyJYi5FgQbGzxeOmcUcMc7RmeKCl+S5oOUNJBOsaE36PkbHsLjH1H5t+iogIDCdzoQ/1pNe/ZO/mQaXBSHn1NACqf+IgNnzSZFucfV4JsOzYahPN3Vl6kKMdNx8CMqzV8HX+Epv0SBBosSBuaaAOCcEYzkgmlqNUdEI1Qs8zoF4YLcUYznUQRVP0l6W0ymEPkIbOEAi/F0Xaa0oXWdC1Y6L6uA7X0yLX+2VxyV9KCBA/JLYmkEdm4u59QYA5/al/FsWTMSGB4Xc+/2oAk/dNriSjqQUXVm4wJ96tPU3eCM6CAokBlIBgBkSPr7l1y62yoRBFS+rgwkxHgBTMLOFTa/5XC38WGWe1YY5RQjWsmx5ccGRBDRnl+nSWOV70Yy9YkCGh+g0bKu04VoygxOJchj42uMz2qQheexNOdZlNc1UYeyxlejUC8fitlBwHpccIZlsWW3xe9BJZuOsgDBPYPJaDlmOsKTwY0OTF9v7ybKAggR6iyixKaqoqYQISrIlWlC+mCTwsG21KJM5/JxBUy8G1HLlVsXhSDniho04EdfOoyVlzxeYCWLXkSWjVHhwROH+L9yCTZ3LGmQDJnUy7PMjWgVDNGqO+iRLm2PiiYNw/sLZ9zwZp4ZUPwwy3pLTvqsvN56Wq1e9aXV3aUL8gmresklGFEXoHsaQR2BkwrSVKEvGBTAAbnrEYT7cUCu4I4qHV7RhV9W2lxBcXQ6ELp+CYmXczh75A5fKEiDIGsaAWjRFFpOUKvmJ01rAqgksWltWHha1gwC9KXPmxLgJAgiMJYyoyI2SqcwBp3sSxrwyBWBDh/kMIyRSJiNe9eHFYp/eF9FH+LBeHsxQBSETA2g4wgTrWJIGrsHT3cBGVrdmcg5MJJOXpA0JgAMSeMXFCl60kIZMJwyLGPy5Y2oNozgKR/zl2jVsK5R2wcUxYvZidMwajGQAEURDN4tlBDQGxzGhYGddFgWcg9KFwRYFlIWVZeJnIr3KTpspIqNx3WPQZhqYJGfvJpDUf1EoiU3Bwmj68xH7N0V4cL3h3Z2JPnW2ps+TkDQlA8jpmFRGCOX6EjeDKQ8PuvWOBhKcFxjjEpyy4ZefF07+SRtsKDJ7AHIjhKcKYgW8qEjHJJSvtcoI+gq02/r6bIYcZ8KInRG6bKiI+uwJIHACEgqYMcBLZT04mE6aWj6uCdK4JHfxiUWMRw4+UEWn5uXR3c0R4logOuUo1IJzhkRrNR8rEaZxSJTxrIGdAAI19Na9zaOKJX86ZOVwFi52HGm8X0AngcQQlmlFPmL07lLuzEj4NHT6u13zJmQPQipFIJ8xqqI0CalPzwIHAQhZ2WNYalSOCnNw4rMt0rkzkUMIIho27v0mMLd2MZHFnr42eEq/95bHciFAfPTT11XDoWHo043pKBiMMagxzNQtpY4tDQkxwHInumKtUCOYWGpHIScrgxEyAsWQlkwGbZaXKFScjx0aljfq6yIU7qwcCAODcK5QIidhEY8Vk9Zv5q65KPc36boeFhw9MFMXR0JyDfbBFxNbwRwZrSgVkgMoQEtkDyuy7Xq/6Sn6ml63lGAxQZzgu+cijgopDErBi21ZW3ibRz6q750HQdLBmeVYXxDw4GTxjYzv6VO5FwMTFhliqKlIU2Lv/z/mbqXhdrah/PNMYzrbw+rG2ArSROejYVgGiVqHQmCyZIhw11QNiSKUhvyqWJGN0pDL6MWp6TQKE+UFSHLmQaQjCv6nrbKsRjL09fnIn5xFEbjGho4SjCFLkIJuEQT8mHMvDeAhnGXbrgvY8nB+Lo1HpAEBGPYx0EBkIkKnBoSY/Ty4ZT62M8yjpC5gyHKtvfG/vKCQgQwP/8zrHKY4C0s2FVUoDxKlcIcGo4MRDBe0s/o2HYkzbskVxFyCoLrZaXFG140F/3q72vl7gmHup8DA+hFqkIvnXRmhEhOXRwkaslRMmkYySyDeGT5xExgiOeZBBO0c5YwU/1wOL2BgjCpmBspIwtF4E2fuUgsDMRtmSZWCsJgCbArvzVrKTywTDUbQcIjJFMzcxG+hYaJWwaELD+fSX7J02UJxsagNj7wGIMpijyib9/wAIUdVGImZVq5Kr04NhecVLjSyfeiTU2t/uJUmrkIwHwlA07Yjky98QUlbvBt/hHeig4UkiHxKAzwjJXyuxjACIIyTOajFAbj1VRmZLEO3cRxbrW0gtW1ULnR4U5ubADydNlzV9ZJ+jY8jjOiGv30QA+SevMQeZQTxk38Enmcsw/JpIVguAYXsg4HrnXG4Z5hwEBbGEme6+SFnUxCTXoLSc7Jf+ThLh2EcO5TMVuayOi6qu5EkChLUyE8pcXWqKcdGBlFuhLs1m8NLVia2bZQI+KQxZFJXtSF6blUEa1kuoVj04gm6YVyJcfs4oqWIgcYdZinWgaF9JPVgMO5OA4gqgRKP5qfMRgb3YWvfr5xR0unCN8zMXkB11b9nf9aXJSZKn4io0EmIvFojmoOaV8JVH3eXYhYCpRg3iMrrCCGd/2xATBmhmGgQ4SkLfOenAVv8jN4peVVoZ8RU8ThXXeC97i3t4LZSgmpPM5Fji14a4ApNcZzS9KQFjVHqkb81XJfIRdRmtPXzwbu6kvtsrHoss7glLul///t/7lF/B+x2NXW2exEwgAAAABJRU5ErkJggg==;" vertex="1" parent="1">
          <mxGeometry x="479.6" y="651.1800000000001" width="88.4" height="88.4" as="geometry" />
        </mxCell>
        <mxCell id="mVMNMaw9jNS7bV4Ns5Lu-5" value="" style="shape=trapezoid;perimeter=trapezoidPerimeter;whiteSpace=wrap;html=1;fixedSize=1;direction=south;fillColor=#D4E1F5;" vertex="1" parent="1">
          <mxGeometry x="612.620239390642" y="645.1656205420827" width="48.9532100108814" height="100.42796005706134" as="geometry" />
        </mxCell>
        <mxCell id="mVMNMaw9jNS7bV4Ns5Lu-172" value="" style="edgeStyle=orthogonalEdgeStyle;rounded=0;orthogonalLoop=1;jettySize=auto;html=1;" edge="1" parent="1" source="mVMNMaw9jNS7bV4Ns5Lu-6" target="mVMNMaw9jNS7bV4Ns5Lu-170">
          <mxGeometry relative="1" as="geometry" />
        </mxCell>
        <mxCell id="mVMNMaw9jNS7bV4Ns5Lu-6" value="" style="shape=image;verticalLabelPosition=bottom;labelBackgroundColor=default;verticalAlign=top;aspect=fixed;imageAspect=0;image=data:image/png,iVBORw0KGgoAAAANSUhEUgAAABYAAABNCAYAAACi/ZQPAAAAAXNSR0IArs4c6QAAAARnQU1BAACxjwv8YQUAAAAJcEhZcwAADsMAAA7DAcdvqGQAAAE7SURBVFhH7dlBTsJAFMbxN9PWVhECsjBxBUcykXMoS28hp1BDPJNNTFwYTbRaKi107EzHT9CaFMry/ZtJhpfmVzLdgaBfTe7CM8rVNQnh2tFG5Y4ajk+HobSfTQZV6jbwHbd94FDd5XtrjAkToHuuPNwvb66zRHHN06XK0rmVygy8jv59+n+lmaIoztQsjsTr86Odlslv1HOl9D1B2ULVWp9pDvTl6YFUca0mzYsiIfXNb/Gi9vpIlpTM3g1afDHL/VQc0nZvX5fEUSWqq3+gG8YwYhgxjBhGDCOGEcOIYcQwYhgxjBhGDCOGEcOIYcQwYhgxjBhGDKOdwUHQsruyncDtbp86R8f6x+8r/R+InjWGNdrtnxj0YjQY23EzuNXpVaK6RrBfnGsVqhOTaXhv99t0cz4aXNr9SkRf/uOqtrMaqqQAAAAASUVORK5CYII=;" vertex="1" parent="1">
          <mxGeometry x="706.2698585418934" y="654.9486447931527" width="23.412404787812843" height="81.94341675734495" as="geometry" />
        </mxCell>
        <mxCell id="mVMNMaw9jNS7bV4Ns5Lu-11" value="&lt;font face=&quot;Times New Roman&quot;&gt;&lt;span style=&quot;font-size: 18px;&quot;&gt;Dynamic Step Generator(DSG)&lt;/span&gt;&lt;/font&gt;" style="rounded=1;whiteSpace=wrap;html=1;fillColor=#D4E1F5;" vertex="1" parent="1">
          <mxGeometry x="847.8084874863982" y="907.999029957204" width="127.70402611534277" height="75.320970042796" as="geometry" />
        </mxCell>
        <mxCell id="mVMNMaw9jNS7bV4Ns5Lu-12" value="" style="shape=image;verticalLabelPosition=bottom;labelBackgroundColor=default;verticalAlign=top;aspect=fixed;imageAspect=0;image=data:image/png,iVBORw0KGgoAAAANSUhEUgAAABYAAABNCAYAAACi/ZQPAAAAAXNSR0IArs4c6QAAAARnQU1BAACxjwv8YQUAAAAJcEhZcwAADsMAAA7DAcdvqGQAAAE7SURBVFhH7dlBTsJAFMbxN9PWVhECsjBxBUcykXMoS28hp1BDPJNNTFwYTbRaKi107EzHT9CaFMry/ZtJhpfmVzLdgaBfTe7CM8rVNQnh2tFG5Y4ajk+HobSfTQZV6jbwHbd94FDd5XtrjAkToHuuPNwvb66zRHHN06XK0rmVygy8jv59+n+lmaIoztQsjsTr86Odlslv1HOl9D1B2ULVWp9pDvTl6YFUca0mzYsiIfXNb/Gi9vpIlpTM3g1afDHL/VQc0nZvX5fEUSWqq3+gG8YwYhgxjBhGDCOGEcOIYcQwYhgxjBhGDCOGEcOIYcQwYhgxjBhGDKOdwUHQsruyncDtbp86R8f6x+8r/R+InjWGNdrtnxj0YjQY23EzuNXpVaK6RrBfnGsVqhOTaXhv99t0cz4aXNr9SkRf/uOqtrMaqqQAAAAASUVORK5CYII=;" vertex="1" parent="1">
          <mxGeometry x="899.9542981501633" y="654.4056205420827" width="23.412404787812843" height="81.94341675734495" as="geometry" />
        </mxCell>
        <mxCell id="mVMNMaw9jNS7bV4Ns5Lu-14" value="&lt;span style=&quot;font-family: &amp;quot;Times New Roman&amp;quot;;&quot;&gt;Diffusion model&lt;/span&gt;" style="rounded=1;whiteSpace=wrap;html=1;fillColor=#E6E6E6;" vertex="1" parent="1">
          <mxGeometry x="766.9966702937976" y="672.695634807418" width="102.16322089227421" height="46.44793152639087" as="geometry" />
        </mxCell>
        <mxCell id="mVMNMaw9jNS7bV4Ns5Lu-18" value="" style="endArrow=classic;html=1;rounded=0;exitX=0.5;exitY=0;exitDx=0;exitDy=0;entryX=0.5;entryY=1;entryDx=0;entryDy=0;" edge="1" parent="1" source="mVMNMaw9jNS7bV4Ns5Lu-11" target="mVMNMaw9jNS7bV4Ns5Lu-29">
          <mxGeometry width="50" height="50" relative="1" as="geometry">
            <mxPoint x="791.405875952122" y="908.5292439372324" as="sourcePoint" />
            <mxPoint x="844.6158868335147" y="845.7617689015692" as="targetPoint" />
          </mxGeometry>
        </mxCell>
        <mxCell id="mVMNMaw9jNS7bV4Ns5Lu-26" value="$$\varepsilon$$" style="text;whiteSpace=wrap;strokeWidth=5;fontFamily=Times New Roman;fontSize=24;align=center;fontStyle=3;" vertex="1" parent="1">
          <mxGeometry x="612.620239390642" y="643.1981740370899" width="48.9532100108814" height="105.4493580599144" as="geometry" />
        </mxCell>
        <mxCell id="mVMNMaw9jNS7bV4Ns5Lu-32" value="" style="edgeStyle=orthogonalEdgeStyle;rounded=0;orthogonalLoop=1;jettySize=auto;html=1;" edge="1" parent="1" source="mVMNMaw9jNS7bV4Ns5Lu-29" target="mVMNMaw9jNS7bV4Ns5Lu-12">
          <mxGeometry relative="1" as="geometry" />
        </mxCell>
        <mxCell id="mVMNMaw9jNS7bV4Ns5Lu-29" value="$$\mathrm{T&#39;(T&#39;&lt;T)}$$" style="text;whiteSpace=wrap;align=center;labelBorderColor=none;textShadow=0;labelBackgroundColor=none;fontSize=15;" vertex="1" parent="1">
          <mxGeometry x="845.1479869423287" y="798.0584878744651" width="133.02502720348207" height="61.512125534950066" as="geometry" />
        </mxCell>
        <mxCell id="mVMNMaw9jNS7bV4Ns5Lu-33" value="$$\mathbf{x}_{0}$$" style="text;whiteSpace=wrap;align=center;fontSize=15;" vertex="1" parent="1">
          <mxGeometry x="420" y="607.245820256776" width="138.34602829162134" height="70.29957203994293" as="geometry" />
        </mxCell>
        <mxCell id="mVMNMaw9jNS7bV4Ns5Lu-34" value="$$\mathbf{z}_{0}$$" style="text;whiteSpace=wrap;fontSize=15;align=center;" vertex="1" parent="1">
          <mxGeometry x="635.0030467899892" y="607.2425677603424" width="138.34602829162134" height="75.320970042796" as="geometry" />
        </mxCell>
        <mxCell id="mVMNMaw9jNS7bV4Ns5Lu-36" value="$$\mathbf{z}_{T^{\prime}}$$" style="text;whiteSpace=wrap;fontSize=15;align=center;" vertex="1" parent="1">
          <mxGeometry x="816.9492818280739" y="607.87" width="189.42763873775846" height="74.06562054208274" as="geometry" />
        </mxCell>
        <mxCell id="mVMNMaw9jNS7bV4Ns5Lu-165" value="" style="edgeStyle=orthogonalEdgeStyle;rounded=0;orthogonalLoop=1;jettySize=auto;html=1;" edge="1" parent="1" source="mVMNMaw9jNS7bV4Ns5Lu-38" target="mVMNMaw9jNS7bV4Ns5Lu-163">
          <mxGeometry relative="1" as="geometry" />
        </mxCell>
        <mxCell id="mVMNMaw9jNS7bV4Ns5Lu-38" value="" style="shape=image;verticalLabelPosition=bottom;labelBackgroundColor=default;verticalAlign=top;aspect=fixed;imageAspect=0;image=data:image/png,iVBORw0KGgoAAAANSUhEUgAAABYAAABNCAYAAACi/ZQPAAAAAXNSR0IArs4c6QAAAARnQU1BAACxjwv8YQUAAAAJcEhZcwAADsMAAA7DAcdvqGQAAAE7SURBVFhH7dlBTsJAFMbxN9PWVhECsjBxBUcykXMoS28hp1BDPJNNTFwYTbRaKi107EzHT9CaFMry/ZtJhpfmVzLdgaBfTe7CM8rVNQnh2tFG5Y4ajk+HobSfTQZV6jbwHbd94FDd5XtrjAkToHuuPNwvb66zRHHN06XK0rmVygy8jv59+n+lmaIoztQsjsTr86Odlslv1HOl9D1B2ULVWp9pDvTl6YFUca0mzYsiIfXNb/Gi9vpIlpTM3g1afDHL/VQc0nZvX5fEUSWqq3+gG8YwYhgxjBhGDCOGEcOIYcQwYhgxjBhGDCOGEcOIYcQwYhgxjBhGDKOdwUHQsruyncDtbp86R8f6x+8r/R+InjWGNdrtnxj0YjQY23EzuNXpVaK6RrBfnGsVqhOTaXhv99t0cz4aXNr9SkRf/uOqtrMaqqQAAAAASUVORK5CYII=;" vertex="1" parent="1">
          <mxGeometry x="1195.9987268770403" y="659.6318972895863" width="23.412404787812843" height="81.94341675734495" as="geometry" />
        </mxCell>
        <mxCell id="mVMNMaw9jNS7bV4Ns5Lu-145" value="" style="endArrow=classic;html=1;rounded=0;entryX=0;entryY=0.5;entryDx=0;entryDy=0;exitX=0.5;exitY=0;exitDx=0;exitDy=0;" edge="1" parent="1" source="mVMNMaw9jNS7bV4Ns5Lu-5" target="mVMNMaw9jNS7bV4Ns5Lu-6">
          <mxGeometry width="50" height="50" relative="1" as="geometry">
            <mxPoint x="681" y="720" as="sourcePoint" />
            <mxPoint x="638" y="471" as="targetPoint" />
          </mxGeometry>
        </mxCell>
        <mxCell id="mVMNMaw9jNS7bV4Ns5Lu-148" value="" style="endArrow=classic;html=1;rounded=0;exitX=1;exitY=0.5;exitDx=0;exitDy=0;entryX=0;entryY=0.5;entryDx=0;entryDy=0;" edge="1" parent="1" source="mVMNMaw9jNS7bV4Ns5Lu-4" target="mVMNMaw9jNS7bV4Ns5Lu-26">
          <mxGeometry width="50" height="50" relative="1" as="geometry">
            <mxPoint x="498" y="602" as="sourcePoint" />
            <mxPoint x="602" y="694" as="targetPoint" />
          </mxGeometry>
        </mxCell>
        <mxCell id="mVMNMaw9jNS7bV4Ns5Lu-149" value="" style="endArrow=classic;html=1;rounded=0;exitX=1;exitY=0.5;exitDx=0;exitDy=0;entryX=0;entryY=0.5;entryDx=0;entryDy=0;" edge="1" parent="1" source="mVMNMaw9jNS7bV4Ns5Lu-6" target="mVMNMaw9jNS7bV4Ns5Lu-14">
          <mxGeometry width="50" height="50" relative="1" as="geometry">
            <mxPoint x="615" y="544" as="sourcePoint" />
            <mxPoint x="665" y="494" as="targetPoint" />
          </mxGeometry>
        </mxCell>
        <mxCell id="mVMNMaw9jNS7bV4Ns5Lu-150" value="" style="endArrow=classic;html=1;rounded=0;exitX=1;exitY=0.5;exitDx=0;exitDy=0;entryX=0;entryY=0.5;entryDx=0;entryDy=0;" edge="1" parent="1" source="mVMNMaw9jNS7bV4Ns5Lu-14" target="mVMNMaw9jNS7bV4Ns5Lu-12">
          <mxGeometry width="50" height="50" relative="1" as="geometry">
            <mxPoint x="692" y="614" as="sourcePoint" />
            <mxPoint x="742" y="564" as="targetPoint" />
          </mxGeometry>
        </mxCell>
        <mxCell id="mVMNMaw9jNS7bV4Ns5Lu-155" value="$$\hat{\epsilon}=\epsilon_\theta^{(t)}(\mathbf{z}_0)-(1-mask)\sqrt{1-\bar{\alpha}_t}(\hat{z}_t-z_t)$$" style="text;whiteSpace=wrap;align=center;fontSize=18;fontFamily=Times New Roman;fontStyle=1" vertex="1" parent="1">
          <mxGeometry x="856" y="536" width="390" height="60" as="geometry" />
        </mxCell>
        <mxCell id="mVMNMaw9jNS7bV4Ns5Lu-157" value="" style="group" vertex="1" connectable="0" parent="1">
          <mxGeometry x="956" y="612.9" width="186" height="184" as="geometry" />
        </mxCell>
        <mxCell id="mVMNMaw9jNS7bV4Ns5Lu-138" value="" style="rounded=0;whiteSpace=wrap;html=1;fillColor=#F5F5F5;fontColor=#333333;strokeColor=#666666;" vertex="1" parent="mVMNMaw9jNS7bV4Ns5Lu-157">
          <mxGeometry x="2.49" y="2" width="186" height="172" as="geometry" />
        </mxCell>
        <mxCell id="mVMNMaw9jNS7bV4Ns5Lu-136" value="" style="shape=trapezoid;perimeter=trapezoidPerimeter;whiteSpace=wrap;html=1;fixedSize=1;direction=south;fillColor=#fff2cc;strokeColor=#d6b656;" vertex="1" parent="mVMNMaw9jNS7bV4Ns5Lu-157">
          <mxGeometry x="27" y="20" width="60" height="120" as="geometry" />
        </mxCell>
        <mxCell id="mVMNMaw9jNS7bV4Ns5Lu-137" value="" style="shape=trapezoid;perimeter=trapezoidPerimeter;whiteSpace=wrap;html=1;fixedSize=1;direction=north;fillColor=#fff2cc;strokeColor=#d6b656;" vertex="1" parent="mVMNMaw9jNS7bV4Ns5Lu-157">
          <mxGeometry x="101" y="20" width="60" height="120" as="geometry" />
        </mxCell>
        <mxCell id="mVMNMaw9jNS7bV4Ns5Lu-151" value="&lt;font style=&quot;font-size: 18px;&quot;&gt;U-Net&lt;/font&gt;" style="text;html=1;align=center;verticalAlign=middle;whiteSpace=wrap;rounded=0;" vertex="1" parent="mVMNMaw9jNS7bV4Ns5Lu-157">
          <mxGeometry x="56.49" y="140" width="60" height="30" as="geometry" />
        </mxCell>
        <mxCell id="mVMNMaw9jNS7bV4Ns5Lu-166" value="&lt;span style=&quot;color: rgb(0, 0, 0); font-family: Helvetica; font-size: 15px; font-style: normal; font-variant-ligatures: normal; font-variant-caps: normal; font-weight: 400; letter-spacing: normal; orphans: 2; text-indent: 0px; text-transform: none; widows: 2; word-spacing: 0px; -webkit-text-stroke-width: 0px; white-space: normal; background-color: rgb(236, 236, 236); text-decoration-thickness: initial; text-decoration-style: initial; text-decoration-color: initial; float: none; display: inline !important;&quot;&gt;$$(\hat{\epsilon})$$&lt;/span&gt;" style="text;whiteSpace=wrap;html=1;align=center;" vertex="1" parent="mVMNMaw9jNS7bV4Ns5Lu-157">
          <mxGeometry x="82" y="123.1" width="79" height="58" as="geometry" />
        </mxCell>
        <mxCell id="mVMNMaw9jNS7bV4Ns5Lu-159" value="" style="endArrow=classic;html=1;rounded=0;exitX=1;exitY=0.5;exitDx=0;exitDy=0;entryX=-0.013;entryY=0.467;entryDx=0;entryDy=0;entryPerimeter=0;" edge="1" parent="1" source="mVMNMaw9jNS7bV4Ns5Lu-12" target="mVMNMaw9jNS7bV4Ns5Lu-138">
          <mxGeometry width="50" height="50" relative="1" as="geometry">
            <mxPoint x="843" y="545" as="sourcePoint" />
            <mxPoint x="893" y="495" as="targetPoint" />
          </mxGeometry>
        </mxCell>
        <mxCell id="mVMNMaw9jNS7bV4Ns5Lu-160" value="" style="endArrow=classic;html=1;rounded=0;exitX=1;exitY=0.5;exitDx=0;exitDy=0;entryX=0;entryY=0.5;entryDx=0;entryDy=0;" edge="1" parent="1" source="mVMNMaw9jNS7bV4Ns5Lu-138" target="mVMNMaw9jNS7bV4Ns5Lu-38">
          <mxGeometry width="50" height="50" relative="1" as="geometry">
            <mxPoint x="933" y="705" as="sourcePoint" />
            <mxPoint x="992" y="705" as="targetPoint" />
          </mxGeometry>
        </mxCell>
        <mxCell id="mVMNMaw9jNS7bV4Ns5Lu-161" value="$$\hat{\mathbf{z}}_0$$" style="text;whiteSpace=wrap;fontSize=15;align=center;" vertex="1" parent="1">
          <mxGeometry x="1132.7" y="612.9" width="150" height="59" as="geometry" />
        </mxCell>
        <mxCell id="mVMNMaw9jNS7bV4Ns5Lu-163" value="" style="shape=trapezoid;perimeter=trapezoidPerimeter;whiteSpace=wrap;html=1;fixedSize=1;direction=north;fillColor=#D4E1F5;" vertex="1" parent="1">
          <mxGeometry x="1270.000239390642" y="650.3856205420827" width="48.9532100108814" height="100.42796005706134" as="geometry" />
        </mxCell>
        <mxCell id="mVMNMaw9jNS7bV4Ns5Lu-168" value="" style="edgeStyle=orthogonalEdgeStyle;rounded=0;orthogonalLoop=1;jettySize=auto;html=1;" edge="1" parent="1" source="mVMNMaw9jNS7bV4Ns5Lu-164" target="mVMNMaw9jNS7bV4Ns5Lu-167">
          <mxGeometry relative="1" as="geometry" />
        </mxCell>
        <mxCell id="mVMNMaw9jNS7bV4Ns5Lu-164" value="$$\mathrm{D}$$" style="text;whiteSpace=wrap;fontSize=24;fontFamily=Times New Roman;align=center;fontStyle=3" vertex="1" parent="1">
          <mxGeometry x="1270" y="656.6700000000001" width="52" height="87.86" as="geometry" />
        </mxCell>
        <mxCell id="mVMNMaw9jNS7bV4Ns5Lu-167" value="" style="shape=image;verticalLabelPosition=bottom;labelBackgroundColor=default;verticalAlign=top;aspect=fixed;imageAspect=0;image=data:image/png,iVBORw0KGgoAAAANSUhEUgAAAFMAAABTCAYAAADjsjsAAAAAAXNSR0IArs4c6QAAAARnQU1BAACxjwv8YQUAAAAJcEhZcwAADsMAAA7DAcdvqGQAADAySURBVHhe7ZxpkFzXdd/P9Dr7AsxgXweLREpkKEoqitCWSDEjR7KkchbJW+xIFZWdKqeSSpwPqkRGnFRUrnKSshM6JVtSUiW7KonWULYsO7FZSixSNmmJBE2CBEkQBDAABgNgMJh9enom/9//vDsD52u+5va8fu/de/Zz7rnnvu6ennZv3+bGxkZsbmxG1HqCV61WC/q43tSL+56I6G52BRdRFxzgEbop8N1uXtdrOm8KH4DEj83N6IEAVDbpM0Q06vXEy8Gtxi18gKtDW/jGFU5KyFXy5kCeLjoIrEfIwDeMBzx0wK9pXHLoyk1wmxpnhDfElqYaB194HkfuygqVCObBhQkB200YDdh8hhCxek8aAsEMqiH6uhvd6HQ7ZlqERVuY1QCS4TY592DE7pYhQVgXDGaGQRE0JEC70RCJNEmtVheduq5QAMjKEKKHwslCjtQgVC2d5LLs4tGRQ5DLsugeBwALvS1HiA40cfa6zpuSE93EOerqq/UgD3QyWHAA79BbM336kVMXJic9JVMNGuoDuqfZaoMhYFyTngIeGehDmRxH9IwAxlHGQGrFgzDa8rZgawjFvTpgmooR6XWx2lCkSzkkg14yrDCBAqcn1nGsorkoWHgB1VRkY8jESDnBwZmAWEH1c6YRrUlvmxeG6OreXbrvER9u6OtvtWKlsy6aChLJYAAA1Zi5zEg6uWZMdyah425lamYMIooznCO0iisEuAZG95DF8927o3J9XX26VGMMpsWgnIlAG0aHI7viYliNg0vENupVhEkh4LnGtJ3uumkJwyfgjWOZkSjji4aBMRA86MO5yG7+6jZdMHQNFG8rHc1GXVhVmvGzEf3A5AxCTrQxsqaGboC1L8V4vZuRsy6B5Rg1opJwTzjdigCCZX7B/41624QRH5owaEqxVr1hPI8BKzoF1/jWAKIcimBRIGKgQ1/mb9Fv1KuZ0SNempZEixuj5R1ScqJ4ZBpKeVG+YfdlGnAK0d2qHI5gJJwm091ibEZTvGwLXSO/6epIRyr1yTbIs53T1e9pjpK6J2xLvkxUBMwXvXgBJRzWakBgCAsmgQxU6Ze5DtErkyi/FFwbwcZiFKXuahpiMQTXC4voEJGlbU9tGlNNKUMylAVUQpp2I1cU62N0hlEcZ3BreXMGkI4wIIaHH7YpfQgELPpspyS/VUdq4HzqiJQAxEhHXkKwBgIKCA9wzxjEQMgcaNPKkDrLkOsoL7rwgGFZUDBekygQNI3IzpwnGhvKRTgPehqzaRnTDfjoSsrgniixFBpfrwy5blq6oM8zhmtLmq8u+nRiw/3bBtObeFKV5OwgnTk12fHiIhiCAzTSArPAhoQBh/qIYi9ygoI+jjdeS5HpqVcxwhyoxnUmfY2JMQ2CZuC7bOA1ENR4iCMcvK8+hPR0NX08m/AWyg1+eZ1GzutUgHsckSknZWERqWt1VerRi+izwcH3qC9MEl5UElbaxkpOMqMdzp0N6sBJh5GDEa+pIFhfl84VHTxKcCB75v6kZwMzrBN4tfQlqxrlgRAIfaJGBBC0CwO9EN5TBiw1q6BQrNeYuhkdGJqD8iO9aVA3LjsaA4/phKEQlWlLgyrRAxwszAZ4HTaq4SNWJQ/RhHFBgg/KFPnaWoFrkqmDQ8EBxlyh7yVPV0ATYZLJBu1RFGeZQ7zZBpQ9GgemKz3RD2PimGYj5cHp1MqpnfTKMkJolZVhSFRVxo9Wo2XWeIGDvl4JLHryMsaVcvIkuhEF4maloEkU0TIaEVSR5WhCcA/ZaJk2qms46IyQKOlShl7TRwamv3J3FVHwAYdr0hALJimElr1cwDlnCsb0NNcLWswqHJaGZJTDSDYkY3aYrqlFubA+jNqR6ihsmu1eX2JxM2BaCKMpoK1imD4TFSjIJkRcgYojCoNsGD3vq+ld3ZdpQUO9NGE2+HBsaEqT8IHkMFXh4uCcroVG4ZdQGD7tTsTZJWlcOQ4YDOdWkQA7Rcwo9WKnPAsdjM6Qi3F4C94zruKN0YnoEmS5uUBv6OkK67tkEBlySccLRBbL3tWYswyjE0JzW683HZ2SASoiCvmcbhiRBgNEw/Ol3IFW+lrjVYQ5Ylhc1C2OqZRoIJcXIPgKjoIFiijHVC70t1ZpHTn1sBPuTkOpVDXfDFKQgIRo6sY0hwC6GAd46wYPpMMyCjLk1RhlVLoNGGgJPUsjLKxBEc5uGsg0hMzopCONSqu8KS/aAXq3NDROggPWk6bqzuZB6+NpZ+0wRkYF4zgFIxKIjgbRIU91vBBxVplVyQMhlDGm3nBYpoZsWzLo8HQVD3iSDqyT+nF81tkpV1Ir72bv/rsbciB/QqScNQgBnNs7FMrS1oTUxxiNEsWJWS8WJ4hnNOAbIgwjVIxNE2HUoc6maELPHrRUKKiXDZmR5HyrlgaFfu7CZKqoax+/SsrRa52pKBq8WHWJHPjVJRO6sFggE5iws5EEj7sJFagz60gB4GPgQo+IA6JM7xI44HKflQlO5B79tejKwfACtqdBaWSMomhpEJSgVR8KU+Nl1NCTBD21q5wBDv1IhYkNqxeCwqylqYEz7VHwgC1Nl2lINQmMoJ6mkgG6SYnG4iPjrme5BGLyEQ8iVnLa5SgpgxU8+LtOJmrNRiN2AukKelWkWhGil8vEtSGFS/Bwj+MzjTFjk45nWUOCIBBDG4SfrovoHqrOFPQ2rEBK1PG0BTi8sy2cBMK4YOqttim/CQ9BeVqDUlkOgSPQZJJnHfZw9viauxKt9Ektn3MmEN3AZXQ2FcFlpm3zBI9pCBb9utZVXytzdUdGyFTFuN4d2Wl8ejAi5R+6eddkrNSXawycM1n8CBIGnGQFI3SDpleo5xqOBDf3EXEm412G1ZNxpJKiQh7TPa2HKSpATx26ENKGZSXEqOnhBMcwBVAKKp9tNRyA11UDM0pJ5JwoeKZrTr/cgfg5gmCKg6Dn3OrLNBK7NVbi5bVMa45knf1SvyNNcEBDh8W061ILbI0QLLIRMBlSaXhY9tSbrU3nDB0IBpIjrwgkFGSvaz7Qg9EtOIxNOHG2z7T09N0jvGFY6DrQGFGfnalIRmmMhjPglNO7GI8Fh4VlmyLvzAxyaMqLo7iGSUVDgqfz02lpMmrnplOWZ5IqEq/o6qehm+UTYLEJwcKit6Ut42rEI3jgMOIZ5Cmje09RU0mCICFUo44QOe1I+EylUn6AgzOABJdxrpsSGEGkir0LsZoUtcM4yzCeOqZcngswXclPjHe1pevE2vqqebGwQBdZmc4uqdwHaaQUD5Fm94YRyYW58IDDXj+DANres+sasbOCSVnySZNkQkaNOWWILuOZvnLHZqcbJgMDHJyttCKjSChMwPTB+Rl9CJZIrPCiZzhomAhaqJMpk8mYA+OKuv7WJDCgLTEnVdCyGMcpCJgkgae+ZNeSU6oba2urHhsZbsfEjh05s/zUKWLn2HDc88bj0WrnbgRlMFnSQ9ZML8ivobx2hGb0w5+RDIaihXZ1TaUzy5pGA4YHwj3YxzDYInWFp2eSEDkwNLNGutROQwxkCMHK97rISI2YGBuLucVFEe6JtohDECPzwtMk4BSAKK8e7YsAL7zsiKPLvWClSnDi4xD3pRDuB7bR34of+cAHY9fYeNy6Padp2YmJPbtiYt/eeMPkiTh+YF9cuHrd0QsORmQd9CzTPa4l+gfb7VjtrImD9Klkh76jz3yJ0FxCcGbqJAMKpjiqI2IN7Vby2YXoyKue4o5q6GJ40cmnRhpSR5YNREoJbcQyS6GmGWy0SvMiiBug2e3miBY+XXh8k+hDCd0zBeFBYi9oxbw2Rl89fu6nPxFPPPV0HD5wPJ55+sn44A+9P0LROLFjd1y7OhU378zH+upqfPeJ78WNuXnJkhFDpHiFl6JJUm+WS2dymc4pN2fKL2Zd5kwM1Gy2lAbWBMYUzqjOJlwiVfpSsQL9fzdCyhflU0KmNl2OLggS9gJjm9VQsrZHsQq9GBI4M9Khc6n9fNIZoT3GfXWdhhQ/0OiuBMOQbU23T3/q52Nudi5OHDoS169cjBNvOBn9I4OCUK3aasb+gwdjoK8V7d5WvP2hBx0IyGtelkdN51wguebIgIA/D2mgRaQRw6SxsmmwIWmCc3C5mYBpsshxzcYFGs6d1kL0NGEd3jDGM/kEKHfAPTKajauGUXNqZ4TC3GWHIqI8OadxDUrCqa8yngVQP1A81rOw7t2mV++vxz/7h/8kNjSvWHH7+wbiwftOxkc/9EhsqEhfWFiEg+U7MTkZ7f7BePncea/2KOmpJog85/awzB6nMBubSiR14t06SYftKY5RU/akpubUYMpbtXLXT50xKqEmWBETajJJAD7zYaWTcBrB0LCALatsBi3C5S6Gh7TgFYI4xI/XJE9LecX81YetgaMOhD4yQjUFJOcIob8W/+rT/zxWRPfSnRvRNzAam51u3JpfjakrU7F/z87Yv3sPqFauI3/cnL4RFy9fig+9731x74mTokNxDWXoY4CMNq7pzoVyO4I5ZURn6kEO9HJeFRb3ZUFLurqXMp61nurorrSosx3RrLdOM0bW8N5cXm+ZaN5Dg22gldc7kVT5QkZKRi2VKq4ETBIYwUsoYAB3mSIHZdlhQlYAWjxIbg7W41c/80tx4eKMFpvp6FnviekbU9Fo1WKluxJTMtrkoUnPEhYHhP/N//rlePaZH8QPP/KBWFlfiZHRYZfSt+bumA9Pd4ginJkyI4P0Uz93uZdH2tJkeAnFfa7YiubqGnxg03hpCw7SEjMx6YpPfm7OEO/JlkPDQkylec6Hd9nDgli876ZxvFOYkSZ45O9cqz6MzYrNAgRsUYwr7WWjOVCPXzn92bh6aTpuzt6KhZXlWFmZj/vJk4OjzCxFsxQSOZdqMuU3Hnsszrx0Nh5553t5FuadmEd0fv211+L8xUsypFhgTLV8ICIXYFvLmv2WQXJ6sbJcaTjswD2zLKOTByx3b1KqxmVRR61GHZi2UY2lqHTupDRAPEeTLuVFThiXfrO1x7hl+iKoBBQQDxgYYBUkUteU0HNlxYMg6FKEBgfa0dm3Gf/5N34zbl6bjaXF+XjptYtx/vKFeOtbHoz20A7z64hPrckMkFN1/NbXH4s/lyH/+l9+j6yEw9TfxCjIrwW/t88G0yWMMpIlC7y9UAmlPKJzxKmiwEmGVwB5glvOsjGRHtKPcQzPzCWYKI4SiRqzWnN4RtgDAP1qFNZr1YIBYGHCOEJZTMEgPFCs8G0dWTIwpDHBsPrzFRhJWtFQ4wJFpRTi/c/Pfzf+1t/4ybg8fVFljnY7ndvKf39VBXQzmj3Ki1ICddakLIvM6y+/quNc/NSP/micPHpC/DOdNJQ/4c+nni+++rJlsJWJQFuR2YQoOJ4HLdpCin+bXUAKrZOoYWz1gw698pTetNEXJ4gW9wQKtgCPLS9R3FNvtODqcMaT5BvKG8iKt4HxRIpXmUUES3lEM9lK/vI4DjobrNoeoCVzcmRjsBG//Au/GANDQ/H0mafj1z/3xXjvu0/Fux8+FRMT43KEIkqzwgW9ZBKRuPDy+fjS174cf/PDPxKTk8ejqxWIVf8HZ581X9rj3/uz6CwvbfO1IXOMC6covXIBkXGlg5+9GggibFyI1pyJjnDhkKNLagOXg1s/nwXbcI5cLQCKIPKKIWRER6boO7eoC8PyDktWeXNSM7TlkjN0zoQMGfIXCnFdXCBBVeC1h1rxy//0MzHUbsX//t4fx+rcarzzXaeiZ3A49uzZLU4kflZr8lXL02fu+oym91fj7/3dvyNjfjCaqjVbvaoN27W47433+OHx5StXgg9RZAqxIt/JCOJNMCETBiLquEY9+rnhCZbuuNFfpoNibM8wRtSJnvmRNjk3McDhiZrp6qi3mq3TyQD7Y7RNF85Zi3Hc1WACYb0YMWlHDlM5Synaxgbf0UnwIhhPeFrDrfj0P/iFmLs9H8+++Odx49admJq5ou3qUPy7X/oXceT40Th/XnXj2npsanFC9j958qn48jcfi0/+zI/Fex56p1bMRowMDsadhXnT3RD7dnvACo72D8XV69NpOPFtMNMsG8oKgPBRyyfm2ecZ6aaz+BEsGZe8ZyDkI8acqbRcXOU40+G+oqV2mpWYIz8+7dpzDJu6DhByBcwYTWb05ZnoKat519/dSSNSNoCLIftH+uIffeLn4saN2zF7Yzqeevk1rS7L0RgdjZ/98Y+b4qAi7t573xTnXj0vUhvx0pmz8fhTT8ZP/8TfjgcffHssaWov3FmInTtHo0+7n8XF5VhTrq2x0iKYDL1jeDCuTl9DKpkRo5K60iysB9y3FE25CFXGQFadM9eiBWfKK6oA3VH+VC/skLqpnzOw1TjLt+pMMTQd3tJgPktCrJ6JV2EsuAQxsMugzCUcCccUr4bNtNlqRP+Okfjkx34qZrVFpPx56rkzsWOgFUcOHIxHTr07NuT5uYWlWJcjO1pE3nHfm+Jbv/N4nL96IX7+k5+KN97zBhlxyfz6lE9mZ+dV1PdpweqqxtxQTXo9xsbGYuralRjfuUuRveZt4eqaDC0Z0CHzWsqWhsyoJNqQvrxTweBIVwGVwTAV+qEWOCzEOIU+B5cG6ppJMmb9tJUWMsbC8kQZU4z79GoVhaYpdGFn+aRL92FIyihC391mzT76HhmCenDmxs1YWbgdf/bC89qtTMbJ48dlkOG4JQNPDA8LOhP9QK0dT/zR4/H73//j+Mcf+7gcMeEpzZTtb9djWkY9sn8izpy/GMqa8eqF1+PkocPx+tWp2DG+U1Ha0XlcKzx1MU5aFFW9JGhX0xw9/S0OCZpPxVAg+21ibm22VCT34EQijlDqEFyqjIPAzFlNJzYzIEaksAUiWeisa6YKdw2VT6x03snwEjycWb0hksY0TTUxUufErvE4cfR49ChSZhQ9f/j0c/HwW94Se/ft17Ysn3YrW8dzr7wSy6ur0V1ZicuvXojT/+FzcfLIsVhQ9M1oWq+sLEar3YyVtW5M7t0Rl69dV2QPx53ZhTi4f6+iteat5o6hEW8Edo6NxObIiKZOQwsVZVBKxedRRCWLBvqhR4k76tnUh+XEZpDudy1I6mem+qMSvdAXvTEqzcZttVqQMIFkSasMCSW1jNQ0MttOrsxAGJQ6aywYYuIGA7127ZmIk5MnYnl5OXo1PV95/fX40F/7QPS0iYj8aiGrI/t7P5TVsXJ7Ib7x+78XH/3IR+J973qYOaWCvRlLSgG1em+Mj/bH7O1ZwfbGWZVKQ4N9MaYq4PrMtejtH4wfvPBcHNq9Xzl5Robs0WJ2QWPX48VXzssoGUHIzTOCStCMVDuVlqYtSxYaEhQsaAZGXxmVwGOcp/+2A3bSqd5stE4TcTwAhQSeYbWDMXtbLM6jekg5JkWYArYkYPjkDmfbGX197RgaGNI++Xa0VOK8eOlyfPzDH44NKegvjgIoz0CTiMfTF7QgffuJ78Tf/5mfiFPveMhROCZjzcnArXordo4PxtrckrzfG5cvX4ue/t7Yr8i/cu1yHN97OJ56/vl44+TRmJu7pdW95adODW01683eGBsalFFnxLL6ggIGcNsOGJvP+hIo1Zj7Mn759nLqTHBBIucvYxgUKvV6s32aTwOTQPIhdzDsEkJnwrt8HOoHvWKKh1y06mBhwKCMg99VvlpZXfbXsOe0Yv/khz+iUie3ZpRg0HAxLHQi9LtPPhHPnjsbv0J5dPhYLGmFxiHLq2sWZmhkIG4qVw709sfMzevCb8Ub9hxUenghjhw6EWfOvRiHDuyJ3kbbAgwPDcfFaZVcO8Zj6vrVGBvdYX435dwSBORLdjhZ9sCG/jRkFuPYgCNtAJ53OhW+PwuyUbdhXRrBiDvsDJCfuGAcWz+jtUwRf1pYMUtPcpUPBZw3TDYFamrv/OMf/ahqQUWjaPtPB7CUJ10tFr/1u9+O27evxxc++y+jb3gkukoZw319cWt+Pga1z+5TBN6eX4iJwZE4M38jBuv9cWBib1yZej2Os/BcuRi9I4NxcHR3LM7fjJHRiXjuJS1ycsprly/F4QP7YqDNfn0jZm7NxaochI6pX0abXzp7TbC+qYXfGZfBMskRAPlhnetynVNb7KdZ0KBod0dGXT560xiG0z1jGBIkjFk+faQl84wuE3RDGB44tOOR979feW1YKUT4Gma3QapoVDnzq994TPl2IX72E5+QIG2t7oMpg2bKgHJlTcacuTUTg/0jsbQ0H/v3nYz9I8MxNXU59hzcF/My8ppkOzK+J85PXdD4kXjmhWfi0MGDWrQ6MaA0wS7q9vxt75LeeHTSzz+JeHTxZz1qIuGIzN0d+mf0cTDY22pbb+CsOmMgMq6r7FaweVVWy8+t01BZoPPoixUa0DSWp4JHcjyjFQGozdzlVpNB2oPKVZpefPKY/t70c9IW8Cq+v/Z735JSy/Gpj/2Yau2WFpnlWJqbE+V1Tz0lvZjRNrK3PSyKG6oZFRFr89oyXot9k4OxvHAnFlZX4p4jx+NPXng2Dh86GC+88nwcVO06MjwqNZRzR3bE6spyDA8MqMhvR+9QfzygGpbat0eLG9FVVuVUTHLKwP7sK/9s5fKZOQ7gjMGdazkElPW3UwefTmImBt0nZZSqdQExeyfJmikGr7lYT8OTT3N1pFWpQDuRe44pinbtzs2AQHEKAjS1//tPX/lKrCyvxDveer+jqKfWVIR1Y13GWVhdj6GhAU3faUWTdjnKcxjk4P4D8eTTT8tJE5rq6/GhH/6wxu7Et7W/f899D8SVmaux1qO6VtH58sVzcc/hw/5Elcd2733ooVhcWnIlcOjAIf+2Z3r6ug1D2sqFRjeSnfO6ZKGudQipo+W0l6FEUe9vS6u/RC842FD9zdN+FkiIp/kMQHItZQBGzp+N6FJj3tibUMYoH+RXmBZoVEU457n5udi7a8IC+JGc3n77q1+JersRD7z5ftO/MnND28MxTzHu1zqrMavacqDZrxw4K0fVYs+eA/Hd739fNevh6G+2Yn5pQ5E8H2dvdePoRH+sdlcVuRHHVBa9cvHVODY5GTO3b+N5ydpVQX8lTt5zTywvLmg7eyseuPdeXS/G1Rs3LCdphXUhAyTXDS8uKG5d1avLNCBRqKCpNAaeMWxWbytnAsQMB47BXN/yGSLIfDUmCTHOSDKlD6I95NYqNcB+eWWV/OHrmzLM7omdUe9EfOnrX4/h0cE4euwEZaD44VUWhluxf2IciWJxeVUG3YyFxXmZoSZn7Iqnnz8TRzWNRwfaiq47cUAR/9z5s3Hq5M54TYZdV5Qf3380zp57Pg4Jbvb2HPV69PYNSJZl6d4Tt1QFvOut74gpna8rKt/2l96ivhva3s5lgNhYaZQ0pHSh36t12sMG0zURmo0x3qsxpjlTMw2UaNT4tNwyMob1sw/U8qiNBE4vC1FaOpnSWDVhQPfN6Wvx+JNPxuTRg7Fn74Foi0OPknq7xfQRsDw5rSgZGBiRQI2YXZhzrbhzaCxen7oY+/bs1VTDMfNx7OBkPPmDp+PNJ++NazNz8ZYHxlXLDscPnns23nTvPXFHEVnXrmd+ccn5eXhY9al2YEzl81r5T73jbTF15arq06vx8H0Pxv/6/tMyJJFUJM/ciIIOFNGwVrxx1uEguktff09fs85FO/kgkRyaes9VjsSKofKJM8bFU/ktNgzVJ4OUz0YwrutNXXi6i8myImZFW8Rp7csfvP++aLSpA7W2DA7IYIsq7Eeis7Jk2H07J7SX740rMnxvX6+2i0Mxr3y5b9++2OisxcLyYuwb3xvfPfNcPHT/m1SX8hGvVv3uWKxszMWB/W+K66ope1SOIU+7UfM3ORTeWnC0Gmu7Siq7Mn0zfujdp+KV1y7Ef/zK12JtSZGrF7oyO4EhNnLDQuCgby5AaFXe+1ot7d7YrKTdsI2M2czSaKtoyumJQORLA4kgxiJGuaex4q2ud5xLaUxXojfTAn0Zzfm9zlrs3r3bSZ3k3lnfjF1a6edUS7ZEDkU2FeWvK1p2jQ6rYJdRtSXcJQMvLS8oV3dcW/7p88/G0SMHo6Zw3oiOVvLD8QffeyIa/UPRWZ2P3UPtuKMSimeebUULitzQVpSPJwb7+2N5bTU2kKfdH7uiEd96/HHpiT6pE0pSY1MaYQPrLN0Zz+8W5XTGDi6fgHH8Ai3jN1v82oIbPsUr+1TuqTPZJTCcxO09nbFn7ldzSlBO+Mk6pM1cV3IzEBTmOIan+fe/+T5XCozwqGF5rRNXr16N/sGh6NfU3KeFhqjEMXv37Nequ+w6dZ8ccfaVV+INxyZjWNN/Vbz37zsUf3rmmTgxuT/GVdAjww3t0a9evxWDYwNxcO9+Rf2aYeeVk/v7+uXEpbizsBKLKt5/7fNfdDorBkIPgodPHPx7SglPzbtePZ+lGUY3aEj5tzWG1dWU9pQzbV2I5ZMfAOgjhEu0wTDrz6SMefEWRiL63CdYHELiBo4IJWVQy1H0Tikv7pnQ6q7X7ZuzcfblVxR5y47yVm+vP/Pmq4hjw0Px+vQV1amjMdo7FM+/di5OHjka62vLsSJeu8Ym4tmXXoyJvTtjQgX9imZIX2Mzdo/vVhm1FtdFe01wO0dGVQKvavY04o5mQaikqask+dePfl66yJTSNR9g556dtYa+jL2MPA1adnSlB4PycKfLrzMqKL+0A6o+N+fWeJWnuC7RpmuiTf3OjRUTzJ/byrzPFRFcmNOPJ9m/UzbJERKWhw89VAZ6kcv4nmTh21LEHTl4OAaHhlRrLseJI0dibGDYtCbGd6kcmovRkRHl1t1+djk5eVRTkskVcsiq9uGjSg9NLWJDcXNmJl569YIWuz1xcPdO5WdtCLSq37h+Mx599HOxsLZixyM5M8z66o7nD1y5ypDRG8q7a0opaE1goSsHgYa+3BFgrlV1rnJm7jkxJFPZ1N3gkntWCDBOI296SmzlF8TCO8CkeTEkV3wCyHhZvExj0+IJX3Erp7GI0X/7jsoUncd3jEVnrcunEDEog16Q8Zjuw/3aSiqvHlWhf1UFeI+Y8WjvxRdelKFHY6h3UA5ajnGVTqsqzK9NXVVVoG2qdmNrWt0/829+LVa0MYCX7YZ+ajyj9SeV3FdGYgQ92O38xQfh6C/5dcOZx4j5EIg9u6Y5CjHobVRFhuZkKwPAJAUQgqYuLSGyuURSBwsVOZbazLlUY3zjDFinEo27QMYZitT8aCBTCzkWDy9pp7KgY2x4RN5vxo1b05rWoyrW2zEzOxMHtLpfvzmjaS1cKTChrSNPvV5Syti5Y8Qr96Iifo/ybFc5+dWLF7Vir8ZvfP4LcVtpBJmyyWi6QSckTeezFvCV79Qdm6A/xiwm9rqBwLpnvNiLeFXR3nZplFOScxpQb95GQcSbfL384EPGggQWYIrxBAVyNhDMubYhM9dsbECPA8FzWtqwlVDIkxELLKN5z8OIPlXSA4q4TmcjLt2Y9pduF1VSXZmejoYWtla712XLDu2gcMC5l8/7syC+GNGrvLZz1864dvlSfPbRX4/ZuYUt+kQSBkMeIgujsOjp0i1NhGIYUuPCwwIESzFk6gQU9kiMeqMqjSCWPzLKCOPe0ahXRmd6DgIom2TSSHjOX0GhRx2OYGCqAzopqHC5EIwFsGAYj29/lC/tq5zqdGKgtx0N1XKgEc1DAwMa1zZKDr330JH4L4/9ThzeMx613n5XxTt27NBQM545+1wcGB+PrnRgj/mLv/o575DgVb5klbLLkMhWBUfZgDhwdMEMdBpzoKWufi4huuicVJIeUQmEdK6ddrSIMETUq6YLYYCEEe8OZw7g6SPzEZE07nFCejqhgK6GRUsXCKoXwjkXiad/7SZKRAmRwNMcImFxeckrPSUIBO0UrdCkojktJo+881R88Rtf9dayT5UAKWR0uD9eOnchLk5djtH+wfi3//7RuE1utTxWyfzTfNu1IjISADTyeElR/gRBDXjuwffhTnRJ2KSOA7QDks0dSRgAC5dQzrCGoKY7eVBc7SUTymmtyPaXtRyReBni6t/kKy4yBGLVlAv4witYRIBOLva9e8L7gncu0gD3fc2myy0iFBiehzbF+z0PvF116RVXEYva3bzv4bfHf/vmf4+TqklDOCh34tixeP75c/ElRe6ydk3IlFphBZQnGlPetmciMjPd8xlrgc2pDQq654wSaG48ZOScrRkyxhCMdGtoAcpcZmiAWMFhyi392Ec3GWVEbE55jMUUtKBqRGmC5DmNDh5TSALIOfS1NH0xElbNKMjUgFDwgB6lGZGxpm1gR1tSptclFeXveuvb4oLyoLwRi0sr8Z5T71TZsx43ZlWYK0Ln5mbjf/zhHykatdBJ/hIY5sUMsLm41bv+0BHeQHCPUZDDqc5dBIZHDWeipmBgw2ezMWv+EgIWt7LyiA2qaxo5RBMBPMgmQZqJJBPY0xAA4oaRsHjTolXCgO8VXLUbD2ade3WkyZNKb7PlBQIlswTJH3vOLq9Fu1mPS9q7/5W3PRRTly86Ly7LoCf374kvfPnLsUvR+dvf/F1XFOCnnlWu51AHnODFk7AUCzmJWHRFh/xaJfKBJAmjZZlS3opoOkZ68vQrKQq3ociEiUNXFK14OauBiwipGBKmwdTlyEwoNQTVONtFn2EgWPAyNyFwUQBw2BfsNCSw+eMq+JikFsWmFwF/K07TvqfRiktXL8eptz2svDqvY8VFeV26f+f7z7BUW0kvdPhUb3aqiGWUQrORxmIUvZFLdz4je6WrZcb5LHy6zuIcCjKfyJO//c+jLL2gM84gVj4GFWhiqGEQACWXASul9aIxZZHCAjv8daXpy49bEZUpAc389pgEqJSBWyWT76AmH4gHJUvmKAF7GLZsBzHEqlflrhaVhfiDJ74Tx7SXf/XlV+P8ubNx5sUXNIb8wiWCkBKiUGeWuA+6FNlWRm3b4eiQPbqCjjVFJpwjKrol4KxzJZ+dIx3dpyZHt/h5KJcm5+jxHAG+AlKfN/0yVPEexoemLswcg4FGriUSoUO//VvhlAcpGTniqj6mFbUiZQsCQ5IVnM+O8Lw5aXHwRyOKEPhPHj8Wl2cX4+jOgZi6ei3mlQLq4k1zrWwqaRhHmGRCfvrZx3tzooPozIUXWHJp9XM+4bhMEwzTWMFuXZHGs8z9PAGzFfSq8Pv6BjZ5KABTLwY+UimI0mfD+B4sohAvw0DE1YlBwM9pxAEBnWWgVCbZETHFwygGXZgRkdkqOB8MMd3SoYhN2cIzTKKXJ3/r2hDA01iw8znh+VcUriDuIm1Zys1faABt9yEWAUXKQj/GPLnUMmpp6qBP4yU91sr/xZCcOpMbdRYCXuUBKdOUh8H41UT1gnzuivIa5lZKF7zsAMMnIwTwmGBc+DJm+BSWsVw9U/P80WlGOZ9Hw4ceIhiHEBFrClRmK47IhSxl0J9bx4scMy3HoI4cOL40HjESpdAGjf+7QTMN6NmQ3OdTL/DTecQoAwLiTzd2lLZknM2MX1NYYHU4GnVuaYVc6/D0CENnuUJj2mQ+SWPkTgHFYYZzqnrOeKIuHrkQAZ8Rmqt2blP5+cvK2qr5IpCfyggHWjTgU5HCwWLaUPAnIh3pHsuZ5ByqVp7qgG/6UGEMeo6qggcfprhoOapoyQ2ZoSGWuk9zwtcQ6qS/+vF+SkUO8YCIW0Ch5LPKREQhYoQRUoO/rMCdzjjCcGLIuH+qzLXwePHHPbBEKAYjz1pRwfIrYPAq0cWrcobw+T0jDVk9R6yYIHEYZ8urae2nUeRsHCVdRIcXD0Lo4x4a9KUTG4kLR8KLWli0XeIJOp/vZlrbghd9U7KDMhiEpB7ZJp/aoKQ8J+H5sRF+JdLIUcDCHiEyJYi5FgQbGzxeOmcUcMc7RmeKCl+S5oOUNJBOsaE36PkbHsLjH1H5t+iogIDCdzoQ/1pNe/ZO/mQaXBSHn1NACqf+IgNnzSZFucfV4JsOzYahPN3Vl6kKMdNx8CMqzV8HX+Epv0SBBosSBuaaAOCcEYzkgmlqNUdEI1Qs8zoF4YLcUYznUQRVP0l6W0ymEPkIbOEAi/F0Xaa0oXWdC1Y6L6uA7X0yLX+2VxyV9KCBA/JLYmkEdm4u59QYA5/al/FsWTMSGB4Xc+/2oAk/dNriSjqQUXVm4wJ96tPU3eCM6CAokBlIBgBkSPr7l1y62yoRBFS+rgwkxHgBTMLOFTa/5XC38WGWe1YY5RQjWsmx5ccGRBDRnl+nSWOV70Yy9YkCGh+g0bKu04VoygxOJchj42uMz2qQheexNOdZlNc1UYeyxlejUC8fitlBwHpccIZlsWW3xe9BJZuOsgDBPYPJaDlmOsKTwY0OTF9v7ybKAggR6iyixKaqoqYQISrIlWlC+mCTwsG21KJM5/JxBUy8G1HLlVsXhSDniho04EdfOoyVlzxeYCWLXkSWjVHhwROH+L9yCTZ3LGmQDJnUy7PMjWgVDNGqO+iRLm2PiiYNw/sLZ9zwZp4ZUPwwy3pLTvqsvN56Wq1e9aXV3aUL8gmresklGFEXoHsaQR2BkwrSVKEvGBTAAbnrEYT7cUCu4I4qHV7RhV9W2lxBcXQ6ELp+CYmXczh75A5fKEiDIGsaAWjRFFpOUKvmJ01rAqgksWltWHha1gwC9KXPmxLgJAgiMJYyoyI2SqcwBp3sSxrwyBWBDh/kMIyRSJiNe9eHFYp/eF9FH+LBeHsxQBSETA2g4wgTrWJIGrsHT3cBGVrdmcg5MJJOXpA0JgAMSeMXFCl60kIZMJwyLGPy5Y2oNozgKR/zl2jVsK5R2wcUxYvZidMwajGQAEURDN4tlBDQGxzGhYGddFgWcg9KFwRYFlIWVZeJnIr3KTpspIqNx3WPQZhqYJGfvJpDUf1EoiU3Bwmj68xH7N0V4cL3h3Z2JPnW2ps+TkDQlA8jpmFRGCOX6EjeDKQ8PuvWOBhKcFxjjEpyy4ZefF07+SRtsKDJ7AHIjhKcKYgW8qEjHJJSvtcoI+gq02/r6bIYcZ8KInRG6bKiI+uwJIHACEgqYMcBLZT04mE6aWj6uCdK4JHfxiUWMRw4+UEWn5uXR3c0R4logOuUo1IJzhkRrNR8rEaZxSJTxrIGdAAI19Na9zaOKJX86ZOVwFi52HGm8X0AngcQQlmlFPmL07lLuzEj4NHT6u13zJmQPQipFIJ8xqqI0CalPzwIHAQhZ2WNYalSOCnNw4rMt0rkzkUMIIho27v0mMLd2MZHFnr42eEq/95bHciFAfPTT11XDoWHo043pKBiMMagxzNQtpY4tDQkxwHInumKtUCOYWGpHIScrgxEyAsWQlkwGbZaXKFScjx0aljfq6yIU7qwcCAODcK5QIidhEY8Vk9Zv5q65KPc36boeFhw9MFMXR0JyDfbBFxNbwRwZrSgVkgMoQEtkDyuy7Xq/6Sn6ml63lGAxQZzgu+cijgopDErBi21ZW3ibRz6q750HQdLBmeVYXxDw4GTxjYzv6VO5FwMTFhliqKlIU2Lv/z/mbqXhdrah/PNMYzrbw+rG2ArSROejYVgGiVqHQmCyZIhw11QNiSKUhvyqWJGN0pDL6MWp6TQKE+UFSHLmQaQjCv6nrbKsRjL09fnIn5xFEbjGho4SjCFLkIJuEQT8mHMvDeAhnGXbrgvY8nB+Lo1HpAEBGPYx0EBkIkKnBoSY/Ty4ZT62M8yjpC5gyHKtvfG/vKCQgQwP/8zrHKY4C0s2FVUoDxKlcIcGo4MRDBe0s/o2HYkzbskVxFyCoLrZaXFG140F/3q72vl7gmHup8DA+hFqkIvnXRmhEhOXRwkaslRMmkYySyDeGT5xExgiOeZBBO0c5YwU/1wOL2BgjCpmBspIwtF4E2fuUgsDMRtmSZWCsJgCbArvzVrKTywTDUbQcIjJFMzcxG+hYaJWwaELD+fSX7J02UJxsagNj7wGIMpijyib9/wAIUdVGImZVq5Kr04NhecVLjSyfeiTU2t/uJUmrkIwHwlA07Yjky98QUlbvBt/hHeig4UkiHxKAzwjJXyuxjACIIyTOajFAbj1VRmZLEO3cRxbrW0gtW1ULnR4U5ubADydNlzV9ZJ+jY8jjOiGv30QA+SevMQeZQTxk38Enmcsw/JpIVguAYXsg4HrnXG4Z5hwEBbGEme6+SFnUxCTXoLSc7Jf+ThLh2EcO5TMVuayOi6qu5EkChLUyE8pcXWqKcdGBlFuhLs1m8NLVia2bZQI+KQxZFJXtSF6blUEa1kuoVj04gm6YVyJcfs4oqWIgcYdZinWgaF9JPVgMO5OA4gqgRKP5qfMRgb3YWvfr5xR0unCN8zMXkB11b9nf9aXJSZKn4io0EmIvFojmoOaV8JVH3eXYhYCpRg3iMrrCCGd/2xATBmhmGgQ4SkLfOenAVv8jN4peVVoZ8RU8ThXXeC97i3t4LZSgmpPM5Fji14a4ApNcZzS9KQFjVHqkb81XJfIRdRmtPXzwbu6kvtsrHoss7glLul///t/7lF/B+x2NXW2exEwgAAAABJRU5ErkJggg==;" vertex="1" parent="1">
          <mxGeometry x="1361" y="659.63" width="83" height="83" as="geometry" />
        </mxCell>
        <mxCell id="mVMNMaw9jNS7bV4Ns5Lu-169" value="$$\hat{\mathbf{x}}_0$$" style="text;whiteSpace=wrap;fontSize=15;align=center;" vertex="1" parent="1">
          <mxGeometry x="1294" y="612.9" width="150" height="59" as="geometry" />
        </mxCell>
        <mxCell id="mVMNMaw9jNS7bV4Ns5Lu-188" value="" style="edgeStyle=orthogonalEdgeStyle;rounded=0;orthogonalLoop=1;jettySize=auto;html=1;entryX=0.25;entryY=1;entryDx=0;entryDy=0;" edge="1" parent="1" source="mVMNMaw9jNS7bV4Ns5Lu-170" target="mVMNMaw9jNS7bV4Ns5Lu-192">
          <mxGeometry relative="1" as="geometry">
            <mxPoint x="717.98" y="511.9990372994275" as="targetPoint" />
          </mxGeometry>
        </mxCell>
        <mxCell id="mVMNMaw9jNS7bV4Ns5Lu-170" value="&lt;font face=&quot;Times New Roman&quot;&gt;MLP&lt;/font&gt;" style="rounded=0;whiteSpace=wrap;html=1;fillColor=#f8cecc;strokeColor=none;" vertex="1" parent="1">
          <mxGeometry x="670.48" y="581" width="95" height="41" as="geometry" />
        </mxCell>
        <mxCell id="mVMNMaw9jNS7bV4Ns5Lu-185" value="$$\hat{\mathbf{y}}_0$$" style="text;whiteSpace=wrap;fontSize=15;align=center;" vertex="1" parent="1">
          <mxGeometry x="648" y="410" width="150" height="59" as="geometry" />
        </mxCell>
        <mxCell id="mVMNMaw9jNS7bV4Ns5Lu-132" value="" style="rounded=0;whiteSpace=wrap;html=1;fillColor=#dae8fc;strokeColor=#6c8ebf;" vertex="1" parent="1">
          <mxGeometry x="243" y="780" width="569" height="310" as="geometry" />
        </mxCell>
        <mxCell id="mVMNMaw9jNS7bV4Ns5Lu-40" value="&lt;span style=&quot;&quot;&gt;Dynamic Step Generator(DSG)&lt;/span&gt;" style="text;html=1;align=center;verticalAlign=middle;whiteSpace=wrap;rounded=0;fontSize=24;fontFamily=Times New Roman;" vertex="1" parent="1">
          <mxGeometry x="243" y="1024" width="173.5" height="68" as="geometry" />
        </mxCell>
        <mxCell id="mVMNMaw9jNS7bV4Ns5Lu-119" value="$$\mathrm{T&#39;}$$" style="text;whiteSpace=wrap;align=center;labelBorderColor=none;textShadow=0;labelBackgroundColor=none;fontSize=15;" vertex="1" parent="1">
          <mxGeometry x="716" y="978" width="125" height="49" as="geometry" />
        </mxCell>
        <mxCell id="mVMNMaw9jNS7bV4Ns5Lu-189" value="" style="group" vertex="1" connectable="0" parent="1">
          <mxGeometry x="254.99999999999994" y="792.0699999999999" width="186" height="75" as="geometry" />
        </mxCell>
        <mxCell id="mVMNMaw9jNS7bV4Ns5Lu-120" value="" style="rounded=0;whiteSpace=wrap;html=1;" vertex="1" parent="mVMNMaw9jNS7bV4Ns5Lu-189">
          <mxGeometry y="3" width="186" height="67" as="geometry" />
        </mxCell>
        <mxCell id="mVMNMaw9jNS7bV4Ns5Lu-121" value="" style="rhombus;whiteSpace=wrap;html=1;fillColor=#B9E0A5;strokeColor=#97D077;" vertex="1" parent="mVMNMaw9jNS7bV4Ns5Lu-189">
          <mxGeometry x="12" y="9" width="12" height="12" as="geometry" />
        </mxCell>
        <mxCell id="mVMNMaw9jNS7bV4Ns5Lu-122" value="" style="triangle;whiteSpace=wrap;html=1;direction=north;fillColor=#B9E0A5;strokeColor=#97D077;" vertex="1" parent="mVMNMaw9jNS7bV4Ns5Lu-189">
          <mxGeometry x="12" y="31" width="12" height="12" as="geometry" />
        </mxCell>
        <mxCell id="mVMNMaw9jNS7bV4Ns5Lu-123" value="" style="triangle;whiteSpace=wrap;html=1;direction=north;fillColor=#FF0B0B;strokeColor=#EA6B66;" vertex="1" parent="mVMNMaw9jNS7bV4Ns5Lu-189">
          <mxGeometry x="12" y="51" width="12" height="12" as="geometry" />
        </mxCell>
        <mxCell id="mVMNMaw9jNS7bV4Ns5Lu-129" value="normal feature(train)" style="text;html=1;align=center;verticalAlign=middle;whiteSpace=wrap;rounded=0;" vertex="1" parent="mVMNMaw9jNS7bV4Ns5Lu-189">
          <mxGeometry x="22" width="129" height="30" as="geometry" />
        </mxCell>
        <mxCell id="mVMNMaw9jNS7bV4Ns5Lu-130" value="normal feature(test)" style="text;html=1;align=center;verticalAlign=middle;whiteSpace=wrap;rounded=0;" vertex="1" parent="mVMNMaw9jNS7bV4Ns5Lu-189">
          <mxGeometry x="21" y="24" width="129" height="30" as="geometry" />
        </mxCell>
        <mxCell id="mVMNMaw9jNS7bV4Ns5Lu-131" value="abnormal feature(test)" style="text;html=1;align=center;verticalAlign=middle;whiteSpace=wrap;rounded=0;" vertex="1" parent="mVMNMaw9jNS7bV4Ns5Lu-189">
          <mxGeometry x="27.5" y="45" width="129" height="30" as="geometry" />
        </mxCell>
        <mxCell id="mVMNMaw9jNS7bV4Ns5Lu-190" value="" style="group" vertex="1" connectable="0" parent="1">
          <mxGeometry x="420" y="805" width="329.49999999999994" height="255" as="geometry" />
        </mxCell>
        <mxCell id="mVMNMaw9jNS7bV4Ns5Lu-44" value="" style="ellipse;whiteSpace=wrap;html=1;aspect=fixed;fillColor=#ffe6cc;strokeColor=default;dashed=1;" vertex="1" parent="mVMNMaw9jNS7bV4Ns5Lu-190">
          <mxGeometry x="87.5" width="129" height="129" as="geometry" />
        </mxCell>
        <mxCell id="mVMNMaw9jNS7bV4Ns5Lu-45" value="" style="triangle;whiteSpace=wrap;html=1;direction=north;strokeColor=#EA6B66;fillColor=#F19C99;" vertex="1" parent="mVMNMaw9jNS7bV4Ns5Lu-190">
          <mxGeometry x="206.49999999999994" y="107" width="12" height="12" as="geometry" />
        </mxCell>
        <mxCell id="mVMNMaw9jNS7bV4Ns5Lu-56" value="" style="triangle;whiteSpace=wrap;html=1;direction=north;fillColor=#B9E0A5;strokeColor=#97D077;" vertex="1" parent="mVMNMaw9jNS7bV4Ns5Lu-190">
          <mxGeometry x="186.99999999999994" y="47" width="12" height="12" as="geometry" />
        </mxCell>
        <mxCell id="mVMNMaw9jNS7bV4Ns5Lu-57" value="" style="triangle;whiteSpace=wrap;html=1;direction=north;fillColor=#B9E0A5;strokeColor=#97D077;" vertex="1" parent="mVMNMaw9jNS7bV4Ns5Lu-190">
          <mxGeometry x="129.5" y="54" width="12" height="12" as="geometry" />
        </mxCell>
        <mxCell id="mVMNMaw9jNS7bV4Ns5Lu-58" value="" style="triangle;whiteSpace=wrap;html=1;direction=north;fillColor=#B9E0A5;strokeColor=#97D077;" vertex="1" parent="mVMNMaw9jNS7bV4Ns5Lu-190">
          <mxGeometry x="167" y="94" width="12" height="12" as="geometry" />
        </mxCell>
        <mxCell id="mVMNMaw9jNS7bV4Ns5Lu-59" value="" style="triangle;whiteSpace=wrap;html=1;direction=north;fillColor=#B9E0A5;strokeColor=#97D077;" vertex="1" parent="mVMNMaw9jNS7bV4Ns5Lu-190">
          <mxGeometry x="101.5" y="81" width="12" height="12" as="geometry" />
        </mxCell>
        <mxCell id="mVMNMaw9jNS7bV4Ns5Lu-65" value="" style="rhombus;whiteSpace=wrap;html=1;fillColor=#B9E0A5;strokeColor=#97D077;" vertex="1" parent="mVMNMaw9jNS7bV4Ns5Lu-190">
          <mxGeometry x="149.5" y="91" width="12" height="12" as="geometry" />
        </mxCell>
        <mxCell id="mVMNMaw9jNS7bV4Ns5Lu-66" value="" style="rhombus;whiteSpace=wrap;html=1;fillColor=#B9E0A5;strokeColor=#97D077;" vertex="1" parent="mVMNMaw9jNS7bV4Ns5Lu-190">
          <mxGeometry x="103.5" y="58" width="12" height="12" as="geometry" />
        </mxCell>
        <mxCell id="mVMNMaw9jNS7bV4Ns5Lu-67" value="" style="rhombus;whiteSpace=wrap;html=1;fillColor=#B9E0A5;strokeColor=#97D077;" vertex="1" parent="mVMNMaw9jNS7bV4Ns5Lu-190">
          <mxGeometry x="133.5" y="38" width="12" height="12" as="geometry" />
        </mxCell>
        <mxCell id="mVMNMaw9jNS7bV4Ns5Lu-68" value="" style="rhombus;whiteSpace=wrap;html=1;fillColor=#B9E0A5;strokeColor=#97D077;" vertex="1" parent="mVMNMaw9jNS7bV4Ns5Lu-190">
          <mxGeometry x="126.5" y="78" width="12" height="12" as="geometry" />
        </mxCell>
        <mxCell id="mVMNMaw9jNS7bV4Ns5Lu-69" value="" style="rhombus;whiteSpace=wrap;html=1;fillColor=#B9E0A5;strokeColor=#97D077;" vertex="1" parent="mVMNMaw9jNS7bV4Ns5Lu-190">
          <mxGeometry x="101.5" y="27" width="12" height="12" as="geometry" />
        </mxCell>
        <mxCell id="mVMNMaw9jNS7bV4Ns5Lu-72" value="" style="rhombus;whiteSpace=wrap;html=1;fillColor=#B9E0A5;strokeColor=#97D077;" vertex="1" parent="mVMNMaw9jNS7bV4Ns5Lu-190">
          <mxGeometry x="157.5" y="60" width="12" height="12" as="geometry" />
        </mxCell>
        <mxCell id="mVMNMaw9jNS7bV4Ns5Lu-73" value="" style="rhombus;whiteSpace=wrap;html=1;fillColor=#B9E0A5;strokeColor=#97D077;" vertex="1" parent="mVMNMaw9jNS7bV4Ns5Lu-190">
          <mxGeometry x="142" y="12" width="12" height="12" as="geometry" />
        </mxCell>
        <mxCell id="mVMNMaw9jNS7bV4Ns5Lu-74" value="" style="rhombus;whiteSpace=wrap;html=1;fillColor=#B9E0A5;strokeColor=#97D077;" vertex="1" parent="mVMNMaw9jNS7bV4Ns5Lu-190">
          <mxGeometry x="174.99999999999994" y="30" width="12" height="12" as="geometry" />
        </mxCell>
        <mxCell id="mVMNMaw9jNS7bV4Ns5Lu-75" value="" style="rhombus;whiteSpace=wrap;html=1;fillColor=#B9E0A5;strokeColor=#97D077;" vertex="1" parent="mVMNMaw9jNS7bV4Ns5Lu-190">
          <mxGeometry x="174.99999999999994" y="73" width="12" height="12" as="geometry" />
        </mxCell>
        <mxCell id="mVMNMaw9jNS7bV4Ns5Lu-79" value="" style="triangle;whiteSpace=wrap;html=1;direction=north;fillColor=#FF0B0B;strokeColor=#EA6B66;" vertex="1" parent="mVMNMaw9jNS7bV4Ns5Lu-190">
          <mxGeometry x="238.49999999999994" y="78" width="12" height="12" as="geometry" />
        </mxCell>
        <mxCell id="mVMNMaw9jNS7bV4Ns5Lu-80" value="" style="rounded=0;whiteSpace=wrap;html=1;direction=west;gradientColor=#B40A0A;gradientDirection=west;" vertex="1" parent="mVMNMaw9jNS7bV4Ns5Lu-190">
          <mxGeometry x="76" y="231" width="199.5" height="18" as="geometry" />
        </mxCell>
        <mxCell id="mVMNMaw9jNS7bV4Ns5Lu-83" value="" style="triangle;whiteSpace=wrap;html=1;direction=north;fillColor=#9D0000;strokeColor=#EA6B66;" vertex="1" parent="mVMNMaw9jNS7bV4Ns5Lu-190">
          <mxGeometry x="260.49999999999994" y="39" width="12" height="12" as="geometry" />
        </mxCell>
        <mxCell id="mVMNMaw9jNS7bV4Ns5Lu-113" value="" style="group" vertex="1" connectable="0" parent="mVMNMaw9jNS7bV4Ns5Lu-190">
          <mxGeometry x="75.5" y="193" width="200" height="20" as="geometry" />
        </mxCell>
        <mxCell id="mVMNMaw9jNS7bV4Ns5Lu-102" value="1" style="rounded=0;whiteSpace=wrap;html=1;" vertex="1" parent="mVMNMaw9jNS7bV4Ns5Lu-113">
          <mxGeometry width="20" height="20" as="geometry" />
        </mxCell>
        <mxCell id="mVMNMaw9jNS7bV4Ns5Lu-103" value="2" style="rounded=0;whiteSpace=wrap;html=1;" vertex="1" parent="mVMNMaw9jNS7bV4Ns5Lu-113">
          <mxGeometry x="20" width="20" height="20" as="geometry" />
        </mxCell>
        <mxCell id="mVMNMaw9jNS7bV4Ns5Lu-104" value="5" style="rounded=0;whiteSpace=wrap;html=1;" vertex="1" parent="mVMNMaw9jNS7bV4Ns5Lu-113">
          <mxGeometry x="80" width="20" height="20" as="geometry" />
        </mxCell>
        <mxCell id="mVMNMaw9jNS7bV4Ns5Lu-105" value="4" style="rounded=0;whiteSpace=wrap;html=1;" vertex="1" parent="mVMNMaw9jNS7bV4Ns5Lu-113">
          <mxGeometry x="60" width="20" height="20" as="geometry" />
        </mxCell>
        <mxCell id="mVMNMaw9jNS7bV4Ns5Lu-106" value="3" style="rounded=0;whiteSpace=wrap;html=1;" vertex="1" parent="mVMNMaw9jNS7bV4Ns5Lu-113">
          <mxGeometry x="40" width="20" height="20" as="geometry" />
        </mxCell>
        <mxCell id="mVMNMaw9jNS7bV4Ns5Lu-108" value="8" style="rounded=0;whiteSpace=wrap;html=1;" vertex="1" parent="mVMNMaw9jNS7bV4Ns5Lu-113">
          <mxGeometry x="140" width="20" height="20" as="geometry" />
        </mxCell>
        <mxCell id="mVMNMaw9jNS7bV4Ns5Lu-109" value="7" style="rounded=0;whiteSpace=wrap;html=1;" vertex="1" parent="mVMNMaw9jNS7bV4Ns5Lu-113">
          <mxGeometry x="120" width="20" height="20" as="geometry" />
        </mxCell>
        <mxCell id="mVMNMaw9jNS7bV4Ns5Lu-110" value="6" style="rounded=0;whiteSpace=wrap;html=1;" vertex="1" parent="mVMNMaw9jNS7bV4Ns5Lu-113">
          <mxGeometry x="100" width="20" height="20" as="geometry" />
        </mxCell>
        <mxCell id="mVMNMaw9jNS7bV4Ns5Lu-111" value="9" style="rounded=0;whiteSpace=wrap;html=1;" vertex="1" parent="mVMNMaw9jNS7bV4Ns5Lu-113">
          <mxGeometry x="160" width="20" height="20" as="geometry" />
        </mxCell>
        <mxCell id="mVMNMaw9jNS7bV4Ns5Lu-112" value="10" style="rounded=0;whiteSpace=wrap;html=1;" vertex="1" parent="mVMNMaw9jNS7bV4Ns5Lu-113">
          <mxGeometry x="180" width="20" height="20" as="geometry" />
        </mxCell>
        <mxCell id="mVMNMaw9jNS7bV4Ns5Lu-114" value="Bins" style="text;html=1;align=center;verticalAlign=middle;whiteSpace=wrap;rounded=0;fontFamily=Times New Roman;fontStyle=1" vertex="1" parent="mVMNMaw9jNS7bV4Ns5Lu-190">
          <mxGeometry y="190" width="60" height="30" as="geometry" />
        </mxCell>
        <mxCell id="mVMNMaw9jNS7bV4Ns5Lu-116" value="Anomaly Score" style="text;html=1;align=center;verticalAlign=middle;whiteSpace=wrap;rounded=0;fontFamily=Times New Roman;fontStyle=1" vertex="1" parent="mVMNMaw9jNS7bV4Ns5Lu-190">
          <mxGeometry x="0.5" y="225" width="60" height="30" as="geometry" />
        </mxCell>
        <mxCell id="mVMNMaw9jNS7bV4Ns5Lu-117" value="" style="endArrow=classic;html=1;rounded=0;exitX=0.5;exitY=1;exitDx=0;exitDy=0;" edge="1" parent="mVMNMaw9jNS7bV4Ns5Lu-190" source="mVMNMaw9jNS7bV4Ns5Lu-44">
          <mxGeometry width="50" height="50" relative="1" as="geometry">
            <mxPoint x="-51.5" y="179" as="sourcePoint" />
            <mxPoint x="149.5" y="190" as="targetPoint" />
          </mxGeometry>
        </mxCell>
        <mxCell id="mVMNMaw9jNS7bV4Ns5Lu-118" value="" style="endArrow=classic;html=1;rounded=0;exitX=1;exitY=0.5;exitDx=0;exitDy=0;" edge="1" parent="mVMNMaw9jNS7bV4Ns5Lu-190" source="mVMNMaw9jNS7bV4Ns5Lu-112">
          <mxGeometry width="50" height="50" relative="1" as="geometry">
            <mxPoint x="162.5" y="139" as="sourcePoint" />
            <mxPoint x="329.49999999999994" y="203" as="targetPoint" />
          </mxGeometry>
        </mxCell>
        <mxCell id="mVMNMaw9jNS7bV4Ns5Lu-124" value="" style="endArrow=classic;html=1;rounded=0;exitX=0;exitY=0.25;exitDx=0;exitDy=0;dashed=1;" edge="1" parent="mVMNMaw9jNS7bV4Ns5Lu-190" source="mVMNMaw9jNS7bV4Ns5Lu-45">
          <mxGeometry width="50" height="50" relative="1" as="geometry">
            <mxPoint x="222.49999999999994" y="145" as="sourcePoint" />
            <mxPoint x="180.49999999999994" y="189" as="targetPoint" />
          </mxGeometry>
        </mxCell>
        <mxCell id="mVMNMaw9jNS7bV4Ns5Lu-125" value="" style="endArrow=classic;html=1;rounded=0;exitX=0;exitY=0.5;exitDx=0;exitDy=0;dashed=1;" edge="1" parent="mVMNMaw9jNS7bV4Ns5Lu-190" source="mVMNMaw9jNS7bV4Ns5Lu-79">
          <mxGeometry width="50" height="50" relative="1" as="geometry">
            <mxPoint x="219.49999999999994" y="129" as="sourcePoint" />
            <mxPoint x="217.49999999999994" y="190" as="targetPoint" />
          </mxGeometry>
        </mxCell>
        <mxCell id="mVMNMaw9jNS7bV4Ns5Lu-128" value="" style="endArrow=classic;html=1;rounded=0;exitX=0;exitY=0.5;exitDx=0;exitDy=0;dashed=1;entryX=0.25;entryY=0;entryDx=0;entryDy=0;" edge="1" parent="mVMNMaw9jNS7bV4Ns5Lu-190" source="mVMNMaw9jNS7bV4Ns5Lu-83" target="mVMNMaw9jNS7bV4Ns5Lu-112">
          <mxGeometry width="50" height="50" relative="1" as="geometry">
            <mxPoint x="254.49999999999994" y="100" as="sourcePoint" />
            <mxPoint x="227.49999999999994" y="200" as="targetPoint" />
          </mxGeometry>
        </mxCell>
        <mxCell id="mVMNMaw9jNS7bV4Ns5Lu-191" value="" style="endArrow=classic;html=1;rounded=0;exitX=0.25;exitY=1;exitDx=0;exitDy=0;entryX=1;entryY=0;entryDx=0;entryDy=0;dashed=1;" edge="1" parent="1" source="mVMNMaw9jNS7bV4Ns5Lu-6" target="mVMNMaw9jNS7bV4Ns5Lu-44">
          <mxGeometry width="50" height="50" relative="1" as="geometry">
            <mxPoint x="240" y="583" as="sourcePoint" />
            <mxPoint x="290" y="533" as="targetPoint" />
          </mxGeometry>
        </mxCell>
        <mxCell id="mVMNMaw9jNS7bV4Ns5Lu-226" value="" style="edgeStyle=orthogonalEdgeStyle;rounded=0;orthogonalLoop=1;jettySize=auto;html=1;" edge="1" parent="1" source="mVMNMaw9jNS7bV4Ns5Lu-192" target="mVMNMaw9jNS7bV4Ns5Lu-224">
          <mxGeometry relative="1" as="geometry" />
        </mxCell>
        <mxCell id="mVMNMaw9jNS7bV4Ns5Lu-192" value="" style="shape=image;verticalLabelPosition=bottom;labelBackgroundColor=default;verticalAlign=top;aspect=fixed;imageAspect=0;image=data:image/png,iVBORw0KGgoAAAANSUhEUgAAABYAAABNCAYAAACi/ZQPAAAAAXNSR0IArs4c6QAAAARnQU1BAACxjwv8YQUAAAAJcEhZcwAADsMAAA7DAcdvqGQAAAFsSURBVFhH7dlBSsNAFIDhN5OkraW2CiIEo1jFlQtxp4dQELyIS2/hLdR1L5ELiNCCFVSwtEopmNhM0rEzmT5qLRhtlu+Hgclr+QjJbsJgJv+pcQ5MXgNjthn9Kcnj+rF79vgNNuitGAmejGIz/T2bO2Bbjt5PYK6vxk3QKIn4pwhAJFGmJaUEi9kyCAMjpWl4Gh3Gof4hS+pOS3ZZ9vpd1mo3zTSNT9BEJjweCbC4nWkVrCKi98278TOQhkzj5kVx9edyoZJ5FZ0leOv3NKoex2zMf2nI97ADgRiYUbbcSh1aD03odF/19Up1FQ72D3++vLwjGCMYIxgjGCMYIxgjGCMYIxgjGCMYIxgjGCMYIxgjGCMYIxgjGCMYIxjLDa4u18wuLRfYczehvrWjjtSv1Gm3mi0MK3R3ey9FvdMLM14Mdtc35qIqffj/EQ1gmGT//qGqldbAYtZcVMX850bb7P/TzZF3cmn2UwF8AW6jqtkhACcVAAAAAElFTkSuQmCC;" vertex="1" parent="1">
          <mxGeometry x="712.0033333333334" y="462.5933333333335" width="22" height="77" as="geometry" />
        </mxCell>
        <mxCell id="mVMNMaw9jNS7bV4Ns5Lu-210" value="" style="shape=image;verticalLabelPosition=bottom;labelBackgroundColor=default;verticalAlign=top;aspect=fixed;imageAspect=0;image=data:image/png,iVBORw0KGgoAAAANSUhEUgAAAFYAAABXCAYAAACeCrJSAAAAAXNSR0IArs4c6QAAAARnQU1BAACxjwv8YQUAAAAJcEhZcwAADsMAAA7DAcdvqGQAACfKSURBVHherZxbk11Xktdz73PqJlVJqtJdsmTJ0shuX6ane3qYYHoCGC4mCC5BQMwDPMADLzzwCYgA2j3MAwEPPBJ8Ap4ICC4BETPdbYKJpu/jbntaakuWbN2tkqpUUqmqVHXO5v/L3Hn2PqdOlSTLWU7tvdclV67/ypUr19r7uDD755U9DxUT9c2LUVFLr6ynf2E1+WXQc+oT7Rdqf0tX2u+SIAo9Civ9iobV4F5ExWqzfhhH1C+jvjfSs6pKKP+wUO6/0BOF4MwYR5P19YtSX02oY4PGd6Po9IBQs8q0vLZA2Kb3SP3nptF2AVayXWcGpN1mUlHXErA+cJT9dqGS3JA1rtLzEnV343FgjKO6PGq12et3auYZbhP5bc4y43g3AotkGYJTyuM6jrL8MKlGR1Xgbn1tmOzmfjwVsqb4i2mxnbO+uGo/R0fzOdKwCnFF2TYnKG1ugxCdLwrJgbnfiTVQ6JwU9+NAU1qFLrVOY8vsTNKQCijKlc41XLrAfN6Jsv5OPF4+shnMdtr2usFF0bVSgLU5AArONHcX7jLGywl+EUJW8rNo2GrVUqkkmMo5OnDpkyFtYhxhHTGiz244ZkR3IK8tOzmnX1gX4Gkm1NbFwtDmtkVXsuiK+4HuyEke6VelRc/LAnItq259O+WCm75zPOFbG/8a9KJD+CUQnUrePiDNNNUVF5DsqmY97okKkgEty7TLjW+jod3yoOeVs53QIixjW8XGWsbRbnm7Udvf1c0P0bDcdscAL68Tqj/Z4vDR23z1oM52Xb3PO/Qh8xp56Pli/VUNVXS/tHvFaCxBkcI+DROYrK+pUIxO8lHKsigeHUjiPqZmm2hD093/JNvL47pICxeWrnXgYp2jXnKl58rrwsrzwulydKV/3re6X4O+JbX7NKojbTCITR0k1Lc0+CyiDEIQkNbAfSo82njK3o2on5yUuhDUw8ghTT5aHQ5QW8AKpOFWle5p5OPXa7C8jdQZrvszADHTktvUTodTRnLKDdJdXw1vOQ9TOnaJYaQHo9hWLKcKDX0RQm5aCvLpJPJSZnaAK2kMZvjV4Wk6Qm62kdeUE3tbPCMj5dV98XbHE7UG5fy+0dn19rRhUk57Bd2N2oIjXCpdOdK+KLUVTtnJyN8jnhFP63lKPKH74KZ8XtvUlgm1n3dKy/TxFBDWAzTod7teGGESc8YvTYGgCL9qIT6aOdEgBRfaH8P90T5to+z8zhT+E9lpjcE9LUw9gdu3A3qeF+9XqVnxHvG0c1idttuVgPdQChmkIS9mYoRCMLNzXcxWNZ4bgxrVEb3Zxk+q/IQYtxKoNF2O2V7YUzEym1m/e4+/FMrBoLP4O5RE2YatEEDOWOWU1J10LmSthUDkarZXPNtinveozqzy58S6FirrMtqzMNtPossJzyi3LZHnIG1B/N9h3p1k4Y2ANoVfaa4vS+Hb6DQgYWnJWFpwVQF0lpnRPZYJ7xXvEx9Q+nzNc+J9qocFkydrrlSuasuGseAG3NAjNiujHMCGAYQRYKHZf8Bs8tqE9JhxDcm+E31lcPzlR2CQRAK6yyWNG5h7NVj1BtxYhvJZOFKOy+orlV1cR25DnZRVNYxFiv2KBcKAGlMwQAmrxnJLBxggZ/0eSwXkotgn5hnGwrHcsHS3YG83FjGPIgbcRA08u535te6jl4m/TGt4lKgHRZ5QbQHrAEFZKIlnRrNdeXS6weQjj2syzznF6tF2qwJAWaOmclXNqTbTG6AAXPkCgzMCK3AVAU5VhnsoVa5fLuhZFlzKWosFycSaqS95yGQQBK77YeRpNjBQTaiWDLAAnKAmHhhMm7KPyW2iXlJgqJR/3SqlUaIzbsXtwlA2OI5yQLZThDoTKkEHAYhOArA66osi3eEZ6+AZylmgsm7FAAZwPMPogkVt6W5LJVmg1pW2In6kdBaVDd2TBm8ojUWL+9GwknZoL+CFmkPxNo0Cig6q67NSZatN5db39oe+PdmBcvSSX4Ta9dJaJQ834aw0t6AaOHcLNYDcY7VuwYB5SHxU6ZruezS9D2lKv6L6rwjMExqweZWdUlmstzissq+ID9Z1c5FjduBWYiAbhgBWgCjsjL82oOTVTFg65OJ2J0lvWyzElGiBMZao0lKAhlxKAFlh9U6q7wAypWtLxWo9JAI8gKVshFdMS3/LIOIMoKwWrNfRAjWrxeW4LPSgbOqQrvtUZq4rny0fv6w27z81uzZlxfUN6z9Bh2UJeCQ8Huv+ie5lydWqZK5JNz0DlK8NPWkcwEVI1qaRPm4j2qnBrmJ32JxwfZvV6YsAC6FQEveUjzqEVAEYsgBPCxCWCMgsJA5sghq+z7mUW+izSM1KooCenrIJGevWBQF4VrqI++fU1mktUwvrFLf1e4p3P5al/WjKut8XFBc1pVc3JGNNE3pZugCuQBW4lcDl3goBUYVb2BlYqN3HcaR8B5a6KeOlgSU/CYH4yqgHKAAWoCqMcmvNaUleyq4BdcZaVafSYtTVs2Z157wm5m+q9Dc2bPorhR05sWxHDn5i+7pLNlssy3NO22J1wa4unrbF9+Uq/pcs+vvqzlUBu4bHfCKW5WK1tiQOH+x+t1hzcHcHtulj+M/oZYCXYBL18IyfRxb324ClElURmAylsDZtz4tFCFW5snrnqqyrACOYD2ut67qLr0F1xt/qerJjna+pq3+zsOPv3rc3T/0f++3yp3awuG0L1WOr+pP2qJyxm/KpH9jX7BdPf9fu/EBRwndV90fq5mVZ+HUsF5/JogWw9yX7ga4PpQPuQZbswMburJn22S+IEE0ETPW5SRN6tYHNgdkB2ACmTTzTEDw8LaKBzKd5OBYHLLfyBQPGSrFWAetXYlDyKY9VqY4rzkyRy2ANeqe07u/37fQ//sj+2b5/b3/38/9rp3+0aFtbj6w817GLbx217xbv2h/bX7VLa79hV6+es42PJfHjrpUCtHdHut2WHjckl/t1gVstSf5dtSeABXQp63WLLhQ9aEUvtSUNINCp7jNvSGryNUvXGIQEMIHlDUK+KgfgOirws0g6twMBFX85HYIa0OMFHpxuBDeAJXIljXIsUAF0pdhzADSbgwrrJhST/Hm1c14e+He27G/t+479kw//qx39B5/YR//wka38U82F/7Rus2uzdql/zr5//6/ZpffPWu+7avNXLJrq1muy1q+qzd+S+K9Ju/OSt4e2iZX360q0sFdwyEUNGQ56w2xgOQBS3iCKabDZjkNATE6bHNjdCEHjifRaIY97UzmAROHkTNeqDbAK8qspKQeAC1JpVtcpTdkJWdx+yTwiPrdm+968be/2v2d7/ud9++D9LfvfK5t2eVk+d19hfzrziv3Jo79h9/7bvFX/o2O9n2gRulVrdEjtvyGVfl2W9LZs6g1Z1xk9TxKFEI4xa3SfO7LBMWWbsz9t3gkHaBhoqBy8EGS/PhDaEL4DM49THMjV1wVhmL3yleSDitXLR+JjK+SybPvihfUy0rpOy35Pqf4ZAXlG1nFSZY7L2o/KN7+ivLN9WdmEHZu5ZtOlgn2JOTtX2l+Qq377Gx1b/fsH7L/b37aPfiiz/iOB9pHk3tD0fagrzatsoTC2PKGKp/T8qhIl146SSUiHa2LA9Yy/Z2GF1J/cjaF/rBPoXZetiVKjxhZP4JEuAoQG1kb2cIUo1OZxVKc7ulhArYzfo5Rk122gdLlXau1XS8cFxGmp8rp81lc0cO8I0Lf0/FWBe37DJqqn9pkdt97fWbDD71X25/5g0nr/ccH+w7m/Z3984/dt8zsC4ZLavKPBJUzdkB6bsui+TKHSDEAd2UofA12QzP3SYYrQDmC10aiwYM2g7H+9Cxwm+obx7NZ/iHq1HGelFPZvBQlCGS0cMKiLPT5rN0QZpnko4Oewno8gwIypzqF0z0eZaGBaYjhE0dW0n9cOqjoq65SxVa/KF8q6OrLgrRlZgaa4HZf1n1JE8PZDu3DoU/t654/sd+zHdlKx5wO1+z37pn3/+j+yK/9ln/X/s+LWSwpyupJzUHVl/dUF6fyqXIDkErMXDzR4N5X2qbT+pSC6KpDWiRBuSZ87uirC8Dj3ofRmawyIUG0QjoXStOvaafEKnOI58kh/jyXr3wmeMPdtwLaptr4BsJ6YI0RenFABbhz9AShgM/2wlIO6P6RVX/Vfl+wLUvaUrPc1ZZ3VOnyyZ5OHlmxvudee7Htgk9pV7Rc6s5XizV5pjx4ctVsXD9nmD5eteF++9Ypi1UVtafcKWG1zq8PS44Q3Izcui+1JvnZlxaJUv6PrNfXqruLXPvHrXVmUgFXYVbFhUGxLVND3/kP0EaqtdQAsGCV4LZwGoVji58D+G6XyJQngKNm3Z3WlAUkxP5zhJCgAxtNEU3E6FKEViwJXymLFYq9HBHBYZRVq7SutJ8sq3pSSf16Q//a6HXtz2Y5OXVHtZak2o4Bo1m6tn7NHn8hnyH+aQii7Jb6hjl7TIGmhshU9aydre6SHFkKmu2m762NI/9hYLet5SXxXMj6XKltY60Ppq1jWwy5Zq8eza9JN2139Rb8DUHoJ8S+9hZqIIDESywiqwfEp+PlHcbsR4rC+KQE+o2o4eoDjnFOhlDiAJh0gw5rTbThz7Oexq+pMaoGal2Kziv+0QBevb9jJN2/YO1Pv22/ZdzTtf2Df6P3cztk1O9R9YISY9okG/Wcd6/5MIdPVaSsfa5CnJHde6cfUzmENElEbzWA5gLohHZbFArS8oTK3BdLWU3kuLBTENSL+ri9B2okSvNpyX4AcWEZh+/t8iKlPDCgf6adOHDSzm4IjLjQxO6wwFU7iEQmwNXP2qrp9gdE/pZE9LSVPS+55SXh9zc5NXbJ37KKdlwUdkSmeLm7aWbtpJ7vXbPbIssZMIfiEdkfyw9VCz/pndK8Fr1AY1ceNHFN7mhDk24TA7GoWMbYynFKzvGIX67NQW1nOCtjKgn5amPd7XN9BhYgoLTHKMEf5exZJKyY1QqSoNwZRMV5XaK2Ok3+5gTiNZ5mlJ94bPacPxWLlFtwFiDz0Uno1p1aUdliL1gk1p/CnOKfkCz1bOLIoB7HofpQuPNEArUtGaRs2Vz2yuVkBqGleHOxaT6GTvSaZFzRYb2lg5E7KV1j0JMsjRXWcNl1V9aO23mpL9wXhIoDGLgsKeOg7f5LpmxwMCYOgAECmxWqGSXSb9W+T54PjiQNyiw0iE4YoBJOd94DElA/LbV/jNIuycPjiuMddqM6UnjX1K8WTxVlN4XOaAyc3baL7WN2dsNuKGK4o6PyVnMCl4tfsEztt96sjtloqBtZGqeLIUANSntXUJi49Kdm4AYVu9NJPAld1zwzHOLfUDzi7I/0rGYUfCvkVfQEQLxrrRnMiR18l39HLPoW3bXNL+Fii1nMSjUoZxXsl/tVXfMAmXcyIa6HyCMMdHqYjN6Jwq5hUPQz9kCznmDyWVu+phQ1JWJWV7rXLxRn7QF72T6q/Yu9v/Z79dPObdnH1HVtZVKWurEJ+tDqmGXVQ1of3mZZLUL/6HFLJW9h9gbAkgOPYVYap9gAY6ijPz4B5XTOvqyIKbWvjVRDrBWCLmX3qXyzEgI4FR3+Cx0PFXG+IewbkhYBFU6YV7qK+96mQJIE+ylwZgHogRDn4fGhRdFRvjyxwUhYrOVv6d1He9eqmPOvH5+yzD07b3Q9O2OOP1Pm7k9bZUC3EsGB1dKOmiycCcUlh1n11i3CKBV4RQMUiz9qk2V5wqKPi5URdzxdYH11pSOi3X3rxxiJCQ49eHA647scQt2l3a4XKyudPgtUmvN5gbokVy0njouKkaEN5HLfhrwBXDfubAjpQg+/f7xN0q6dPVUad7j+Wz2QxWVKpp4TkXXVJy4N2GyuL87Z2RbPgomRdmbT+omQ83tQuSszWuKfnvvwZbvKRQFSMWgnc6pFkY6W4gnWly9/hNdlY9fZr5TiofO1NOEOww3ICCwJwGusl/BPAcm8MQskawmwDWHAsNUPUn2RfO5wBFbzoN0x7YJNpATrD06Is3BRIIpCOg2OO2uhJbRpeNkebK0wjDMYTNahy6yqneLy4qrxLAv9yZRt3poTDnPDWVZv7zXsCVaFRdUdqCjjrSB6+WYZGRNHtygJJluhSVqxKCsckSwM0UJUBUGTAghavyzSBBaYd1oCcVKGz2uURQ7+qPN6fyYET4Xg46UZBH0AV4orfDR4sas9JKv1730Jg6SEtGiZDpCEQsGiKezFlYysS93UdVllAjdWWz24AmHsp92TSyqcCjRhTvqE3M2mb89P2dGaf3X+4YGs/13b4Y8livA5Ijhaojha47sJT3/ZitUjvb+oqy7QNDeiqWG7Bx1axsR1UOu/FsFJe7MrlVHuV5oGM0uYln/VWM6R8JF2oS4PuP9Aboo8qJ3cW394CqqxZca+fvRL/KnoKbYKjHkrwDL3/ngMbZ7HiAVg10wChFouSn1AxXerRI98PLiCEwuE2ElAWAhQpcLJ9WeOKgrelCeso8ulvyXqeTtr68n57/PG0dX7Rsd7dnpUKm6rThe35ypodfPWGHd1/y6bnN2xzVptO3A2HFOiLqtz3peOUrnO6CtTiuNIVRbALK/Xc4VhyrwyHCIJ6gMpm64HKrDGF5VtwWx5e4Zj46E6GxAIsJ80pnYNYbyi8P/STZ6+TAwLxDDmwf1nA6pILzxADLNba+J+4Aiyg4ldzpJIDZHZlzOPSlSUH5RUVYLUrqqsrb0i2WNFvyBquq56mNWeylba7R76yZGcnr9or2izMlnI/M1roZma14NNpRSaT6lD2f2bTygUN6GnJOatJfUoZmu7FCbWliIJt76SsrK8lo3qg9rS9re6iDpoR38oQchFjdtUcb5vps8o7sGrT1yM4gU2LhXiGBGxRvPutAFUgepFkSNcRYAGVe4/7vGeUDQttWEqy4iq8YYcW9VCeTshithT7rsoutqT0YwEp7gjUao/KsYF4+4kdPnldLvGaXOWSTWnF6mgR7XEgPieLLvdab0I6yPdWchvVCVnWeT1fkLy3BM/rj23/uUWbPvPIeke1gJbTVq1pEVJIZp/Lkm/qyiswgRMLNIYVcbnvMh1Y3AD9pj+AyHoSgDZRrZLHutD33yNVxGWUE9ydSPkDK0dgWGrca+RdUUDNzcSUVl7Mi//0j2ZTf1VlCe5lvb2O6qpYpeLFdF8706cujRfUfJ0tj6wA6aEdmHhgk/sfW4Hv5Nu4VzQ7zsuFaCc38Zqi4hMrduTIPTu294Ydm7plRw8s28Shp9ZjMcMoAQfBItb9MAwslczmQ7x4jUQeWEDcJ4/iBA+Twue/rsWLaU2Ajw+JDMi/2fetrKxhAGIKQxksFiBhiCtTh15oJ0DPu1JYe86OWwAAxyeaJvC0l7X+tOSRzOJyWHVf1Vw4tWUHFlZUp6e/jnDH75Uqon1aIX8707VNVavm+rb/1LIdP3fLXjl52c4e+sRO7blo58prdsEuay93V+vWkm3Nz9qDTQ3sbU1vWax9Ljt8JNX7WGC4tPiYjmv42ZjgLGpx8uWhZm2xcFjyOIZwBQ5soO+W5Pf11d0AU5/GG4pdCNNF6e57eKZRiMWNeOeQ9FUIxQF2V2r0ZHnaolpXdbSYFPOSq7yKNwoYB4sPZ+FY4b4J62mx2mJTILnTstsZmfa0Qj603NL0609r/zS3bmenP7a3yw/treKn9nb/qtzHZ3Zem+ML1RU7UdyyOW3N2Bo/nj1mq0sC7678s1xCRXRCQMAgl9JJ4ZwxyBhLnnfgJjJk9PuI5wEwsALIeG4YcmDf/RZABVgUpgr3wYPFCmG+QnKf5VSCs0iEO8CUxZLr7aIAKPaq/KQalNLFAdVhn8+BylFAVZ0J5c0ozb2F2lAA3lecur42bRtTe7WqbwrvJeGtKS33gE9jE9DRTDlut+3X7UP7hjbEbxYf2mvVdTth1+2UAD1bXVUT9zR3HkrPvi1Ozdn98qRt3ZKOfFogl1lKRjUj/RSGlUekwwFdZ9Qr2UghC4+NDusCoWN+CU4/02LzHsKwxgArCTUP348CG/cxFFFPC4CDCiWwuvpLOgEsSy0J9verDGBy1HderL2/H6L4Xh5WmkKwckW7ukVZ1Yostpyw6eNPbaF7V/6VQwHU70qDyg71V+10edXeLn5mb9hFrXmf2tHqgbB54ANxVDuSfQXbD7bNXbunWXSnc95Wb8mH3lfbvlUutTuT0KNihWkVM0b20JXb6xHjgpWf8OAKfDEQJ5htYPO+AVY9ZmWsrc4zYAADJJh+E6upoQohxKkcw7EL452RponvMymoeoCk7aCvSn3tX7XrKh5qJV5T83Nb1hG4xRmV0S6oOKlibDXxt8yyZelxXe7jksR8JJFXt2xlaU47tBl7Wu1Tq9JHPn+meGRHO5/aWbtk56pf2Vv9j+1U75bA/9xmFFOBx6Yg7bmeEi+95ypZ3fSm9TUzyq5SNf6bHrio7frz2q5vKnr+Ds7XMk7zqKB43T8scVz4kA4oI0ogWs+/NqkkCTBgwFDeB+jxugZ12fuzWhOikJ8+px4IVn1Xhmca5nB5xaqtdes9VpjycEIbg1oFTf9KU8+0uvsHI8y4++rAPVVZ7FuPqxab1Tszdqc6abeK/bai3haaw3s1aIdkwaerW/aa4tyDj5asu7olD7zfrpfH7JPqjGwYO37DrvVfs4+rs3aluGCr9w76aVjBuQK2oA2CrcPSQfaxJZUrbZM9n12dGxFXPQ8wAgeuu5OGQTuvQUVIjeSz+5iaBwLJ03Uw/alXA8vG3pl76sWq6rSpRa1P7CkvzRh4mljYd5ZlAXxWtaQqdKqnXC1cvrgd6NrGvFbqWc7C6pdDxap2rw/spEDFz85urtrq9EH7oPOG/bD4Tfsz+7qWr7fsVwLz58U79v/sd+3Plr9qD348a8VPBNxlLX4aOD9y5MxBLggmUlAgYcXn6tsayuGfl9S7Zbk7P49UJmCjPf3nCl4w5L0Svf+env9AURU9JQtmgSIEVvEo3ZC/gydR1zpi8BXUXYCmTJ8wa065dJ9puK7SKLCgnaScWHfWypOy6jOKIHED05K1ppYUrFe8o0L3njpJ6Eu0dk4z5m09/8amTZ9fsiP7Fu1kcUeu+lP7NS1Ub1W/sPPFZVnwpn1SHLPv2V+yH/S+aXfXT9lmTyFTuWkbT2Zs5ca8bX6ohfAnUvGS9OIwaFFy1XalxbNQBMLi6V93snF4LD/Px3e2KCXuqQ+LwoLDXoyED+l0W89WZnT0EbeA8QEuH8UV35J0QJKFeNwKcDyPEpWbqCA+1YxnPxz2xareEPgRYjTGNT7n5JjumPW1Y7IDeuZTIg5O8MesCWtKZ2ZwKM4iomit5IOOs0rTQLC4dBXoHz2s4H/yjvzrFYF72fYXS4pzZ+xPNe1//OAv2s0fHrHeVckQaNZTDC5XX/EJwXXpelNA3BIgHF1yQpavVPwkTVdmijYrBRZaad/rb3PFhSzXzTm/TKTHzEg9+6se+oqLS9f4Hkj+K0kDpOcDNsAE2Lh360U5jwYwNbw+90HkxJtcQrAFlWabOytLmdR+X21i6LVr9tdp81LwqFRiURO4Bc+aCB2t1rGCr9reU5Udnr/hMWpHC8vixrwtXjxhT7+71/o/Ut0bKieX0sGPsrbiL1c0wGybewDBbOLK9oM+8AaaTQGGwG8YAPWenvN4lFiW0c9FngWMsjyrEU/Del8KWIVPCrsY3ACVPRFQd9VMgBohGnnhVqgZbcwpZZ+e4+2uf9OFpU+qPiszPzc4I8GnVWNBbTFO7Ab54wBnSmkCmVOrYr4+RVvULuxTPf9Srf6sb5ufqA6+sycZRDFaeDkPKBQtEM0wf6wkYmEnpdnm5wQx+2IxXlH6PWn9SF5JwKq+n2Y5gU1YbOzCQnYsFtuA/bZ8rAQP/GdSgNYQldqugGtSlI08rgDscNTlAJ+faPLWV+6CIymFT3zAAdj+Gb22t+UZxa9vSOVzuudcVbl8mFFwdip92SB1sGyN20ZHkh/Kbm5pyK5KuzuybMWnnSe8daAf+Hdiz4g/AwA6jT4cpEDYH3e0pDwWW39FjtXiY2WpA1xgpjtl4xP7sPqw/ACZK/n+4XECGwA0lMKSqJTgjQIbZdNSY+pHSsjkOazCP0j2hW+/lAZYfqclU9VWtzglmW9I9XekHD98eao270gGX7I8VZq2xs6SUjzWYHH8J2D795XHwXcdZ/sK7gsNoDZTFQ6dgIf+kAYQ3Is9iqEOB7ZcAQ1jin5FPcrzoTJuIIFFzuji1QLW981DlIIgKu0ELGVQmMZxFQEsxNvUUA5gOW5MkHEH/PiYHx6DokIhzmIv6JaP2w5JHuelApbPrPgSqM9io+oFbxN6mkEs2nc0VQmVAKTg91yyJG0GIsyD6Th65TRFT85VUUzsrkJlPHxkQAA3GYo+Zb/DxzJAyE4rDfcQ8rlu+8SIRpN3o1qpZFcqhSqUkrLBKNxiKRANRrlohxSsSmCsSMlPVe6iLPJD5VxRviySE6n+bRW5oTo3VFdAd+VbO6tCuZ9fZmMcHE0yYMjFD6ZesfCEnrrHX/NC1F+Kohe+WO6n/moQGB1IynsMTzpU99cp78nPtIbUq0zEZ2DOPDOd+QJGVzn3eD3BosRUjhHGxyQ7uQWEYkH1SPJ1DQq70sinkwFydJJFBQt4LBECWPGltky+ra2uqAi/IeAtwwPJYVFaFGD3pIV2TT4bOgkCLoa3r8yG2PSHJrRb6+U6qG3awSIVi/GumC8NY9UPjl86Uh54GDT6nVM/gQYjBhBLHrFP0UhKKjF+FKBwDlkueZRG85GXCgFoAovVENIQWD5U7k0VUUC+qg7eUjt823pPyvNlIVV9iqvjm6pLCMVs9VhUzwrdbF4h02G5s2nCifpEhb5751XerU9t+1WyNKPYxMRgw9nv1PVZ5MLHkrSR35ByHmrVAAwcuys9THmuFSOYZUfLKS2n0ZCbyFGH6QiWAjpyoAK29LgRx6l9ZV+BOdvKJ6rrL6tYTLTnrWDVWZfFbEg+Zqugwk+o3hB/nav6MsMP8fhugAVSM877l4MKuLp390TEsC4NYZ7RueZdKHDQVXITkzYJ2Bqowf4VAAAitmoFK62SEBBuIon7YGLFmM40WMtxeRJfy8XKGYTCpz7lFQ5pRYqfYMpiFexX2kUBXqUAvZJzLdlOVoviegfkwLMD8k2+hMaE8zNVFruzejgvnTiaXOCH0XwdKatFJ1cV7fSHvq4zQLLgoVPqJR1VFp9Ljxuu+zNgpTFYkonbhL0dZy/RPDRXtAhLa+cOU+bAlKPxLBv/+tVvkYcFNJbrVuPbovojEG0Z41eEWC+8pNK3pfcdpWPFuAsGAQtnJwTIWJ3+48yh3k37a24sGDy9s20f6CuHX9N4BnrJQgPYTM++cyUNHiXkpuwonZSpX4CYVslS1ReGcYTSqZhcgfoUls8UJEQSiPygmJf9g+f7yuP4SS5BG31++BbnfdoVycILP2PEgrUIaecQViaZqsqxo3/F/QSLYrDpIgsabUZ4FAtwhkqxY6pkwTGr6E+tqwa/eY60hukzMhuKN7ZBXxzYmC/Baj5ouKGGshzK0ST3KCdgWLzwn36FQQeQOU3CQrForBOLlevwsuyqSMPiBQdFhb19putlXa/JvTEOymvPo2gzQUIH9Go/5337uS63jZPa9w2pl2osO+0OG2F0njBLfkqjwAcn/I/EYvRrZqeW7MKpx+iyKEWIkj5wmCiXlsH0S4CRQVr4PUBjSwqAJZacQGoTwG8I+u42OLbS9uuR2vxUlvtLAXlR16uyNIVj7dCu8j4CMW3WcCvJT6cGixW6QehNH7gyOCyyhJbpTUnL8sgKedGHaGdcz1+SEBzgZSN0Bye/vTkUBMxRBoxYrTk98hMktqj+CggfC2OSuAiOssTr8gFLcg+LazJ0LJ+F8IFaZqHj/1XAQCEbQGDdP2Plb1MuvsnPIu/pzv5xO8XqOJ78A4j6DlVCcUClGRjrbpPyfVdGJ2FZmHP9XFtuXLE+Vm4A4hnwAA2r/VRpVzWrP7NOdVOt3FZr8gu++AlsDlXkQqjX97r4TnZftPG8lMaSvJ0wEzXm9+otN4CwvbCHHGS54UV+bA5GCdACcvKHwxYPcOo/SuXUiekTbSQrxa+S4eGQZGhw4mOJDI/CmiMNKxbALHbFbbV8SzVu6npH7ovz1DigLv1tAD83IrSSHA1arvauR60n2gXTYfrJNZnnNtfpDk47n/s2sJ64nbKpgaCBgDYFsEHhf2LqoDjAZCe4bzNp7b9hOc4+m7CsbDuADSsGKCIEfDALHn6X33HJkv3EH0Afq1btn72eZNWfYWbfgttP2Vatg/MotdO3l6EnIjUzrq6Et/3KcOixM7XBC4Db9UKJSI+/nYnyuBNKxZkqsjIMSk6QY4EjesBF6KrQLX1r1Ml6TX/y/ll9elGqgR1HdJgGkxMYcfiGXahV1hkYecfaE+dPKyN9d2rJ8JUbEJPTLcgl4G4kqhnQcB1YewBXW6r3gzbhlF33bYwrfBkSsNmAlJDZxgRJak+PbFj3HmI9J/kCVvtL55AW8iKvsaYIa6LjjHmeLKUfJNSJ06jh07Ww3LBofClXQA+/zKF0lEUubcJQuB76HP+P71EKXHZm0dhoZ1tKeyS5b3NSwDJMO5X9MihkDqZsIDxID06wYOmO9bmF189DZeFRGtenl6MRYEO56EROneTdqF2uKbu7/3weamTmAuhbT99+thnwVM4B5b5m/6Vl+PjkcfTlw+rAthQZEPcCZcg6dqNWWS+fVMsZIroxjkeJem3dduMcgGyrnQaY7bI7Uea1yyAveTfanj8CbBowBXnW1X0I/qfepjq168Aq4zFozZBbDh0bJr7rH7Bkxou6us4LUXYYD1n7cGJfQimPhZGK3FHZ9LHNULsvdd8lIN2PuyBPb1NuecfTzjnPSTSff0n+NKpHTX4w7IfOL0n1tI+wDabzCc5ulJYMj7o76gIkLofnL04vDezONB7Zil8X8pHASxPy4QQzgXmW7CxTc/pln2FckZmyvjgJWKyH80o+smgTIUhaFo1k3DiuQdJiwYsFAsVQUAGORj4Wl+CYtkxZQqsIsRqZjDNt1oDVK3t78RkwMarvynAF/FGXZ9pPv5rEfXIOCMwFHXVxPZGL7ugAN/ViVtR1nEiHaHe7fdYpKWiUJGiwILWFvgylrN1YSrsFPS/VdZLT+gb8RehZeLTl8zxMpRxefTtKUdlHUryTb4wFYjcazcciGvafUA6e63tPw08HP4tGw8OwPmQ/u+7zU4CYeDS+fSdgncgYzeQ5hMF9TTt4mJgco2k7Ud1GPeK52vr/1aNtBTWowW3KtOfhkNH8j4NI24myzjjKPBg5aQAwz8nbZcic/uUgJUKf8RTf4DfUtsNhkeSlv8tGdyKktP0TCjcUK33SbnJGqdEu7mgDZnuMTkqvZx/Wl9TuExSzYCdqlx7VbfCJERmNFQ2PxihH2fF5Xw5v1+NFQIUaHelVgAk3II53M6Pt70ZNG+OoBhb04SiMIqPcrLYRHTQHJ5kuHtqfh3LB2+UFk9de7SO9UXp35Xcmyqcc9EH2s8Bq+t20uxu12xgta/b/AbyGibQ+ne1DAAAAAElFTkSuQmCC;" vertex="1" parent="1">
          <mxGeometry x="1214.0013235294118" y="1662.0027573529412" width="86" height="87" as="geometry" />
        </mxCell>
        <mxCell id="mVMNMaw9jNS7bV4Ns5Lu-213" value="" style="edgeStyle=orthogonalEdgeStyle;rounded=0;orthogonalLoop=1;jettySize=auto;html=1;" edge="1" parent="1" source="mVMNMaw9jNS7bV4Ns5Lu-214" target="mVMNMaw9jNS7bV4Ns5Lu-216">
          <mxGeometry relative="1" as="geometry" />
        </mxCell>
        <mxCell id="mVMNMaw9jNS7bV4Ns5Lu-214" value="" style="shape=image;verticalLabelPosition=bottom;labelBackgroundColor=default;verticalAlign=top;aspect=fixed;imageAspect=0;image=data:image/png,iVBORw0KGgoAAAANSUhEUgAAAFIAAABTCAYAAAAMcFA+AAAAAXNSR0IArs4c6QAAAARnQU1BAACxjwv8YQUAAAAJcEhZcwAADsMAAA7DAcdvqGQAAA47SURBVHhe7dxniCXFHgXwcs0555wTijlHxICCqJgVsygGDIifVQQRP4ofREEEFVnEjFlBxZwT5pxzzunN7++c5bo8eG/u9MydhXug6e6q6r5Vp84/VPXszvb3CNoQ48JsI5g2ej3EODEksiMMiewIQyI7wpDIjjAksiMMiewIQyI7wpDIjjAksiNM+SXimmuu2RZeeOE2bdq0Nu+881qOtaWWWqpNnz59tMXgYYk4pYncZZdd2hZbbNEWXHDBuv/xxx/bW2+91X744Ye22GKLtSuvvLLKB40pR+TWW2/ddGf22WdvSy+9dFt//fXboosuWkqEP//8s3333Xft1VdfbV9//XW1ueyyy6pukJgSRB577LF1/uuvv9q3335bpjvHHHO0ZZZZpi200EKlxrnmmqvagO7+8ssv7bXXXmuff/55W3755dull146WjsYDJzIAw88sM4UN8888xSBc889d1tggQXar7/+WqQut9xy1YaP/OOPP4pwXf7pp5/ak08+WaQuvvji7Zprrql2g8DAiDzuuOPanHPOWYQsssgiVUZ1b7/9dikQgV988UWbf/7523zzzTdDmcoBqV9++WVd85cffvhhu/HGG+t+EJh0Io8//viKwN98802R5LjtttuqjiIpU0Redtll28orr1zllIdAxDvr7vfff191VIvISy65pO4HhUkl8sQTTyySDF4AoaDtt9++6hDIpJn277//XopDHDPOGQSbr776qq61P++88+p60Jg0Is8+++waOBLWW2+9duutt7YNN9ywfKEDgYCokS6V6pxzj8jffvutffTRR9WOuV944YV1ve+++9b5hhtuqPMggMcJJ/Koo44qM6W0VVddtd11111t0003rTp+kUn3kuYsqABluv/000/rnhlLjS6++OK21VZbVXv3SF5rrbXaVVddVe0mG3icUCLjExN5n3/++RnXypGICIToRkzYNQIdgg4g3T0kYnMTwPzVrbHGGu3qq6+usskEHidsrX3OOefUWVItcb755pvLrEVp90ya4kJa0hrnXHMF2gQIQygfu9pqq1VZnqdiq56jjz66yicbE6LI888/vwb97rvvts0337x8ojMFIoZPzM9SY4hzRJ0///xz1SdqO8DzeeaVV15p7733Xikz5Uil+ptuuqnaTwZGfrd70z799NNrIHyi1cm1117b9tprr8oDEWiwlnmIgJDnCIGSbMQIUDF/9+oR693aa2c19PjjjxeBypwp9s4776z3TwZGfrdbIk844YS2yiqrlEKQefvtt1dgWXHFFYsMBzBDuaCzwacLSAJEwZJLLlkuIH4U+QKLdTbC3Tv40ccee6yWix9//HF75JFH6vnJAh4785FIpLrPPvuslmx33HFHW3vttSu5nhmUqS0gEUkOOzrZoFhppZXKPSgPolKBKhOjjAoHjc6IlGwjKErcZpttKiXpHXAQMxR4PIMwuWHaPPfcc5UzItWzM0NbpJsECoWoXD8GgU6IPO2009onn3xSA7/vvvvabrvtNkNxSApBzDDqQ5A6z8SUEfzQQw/VNYRE7akQ6aK25ywvA9GauVuTDwqdEGlgfBmIzoHyXiCEiqLSXrUhUwQG5C6xxBL/UjGiQFlvuXW7/UkJunKKlL9ONsZF5CmnnNJOPvnk2hc0GBEUMthE5oDiHAcffPBoyT8micCXX365vfPOO+UDbfCKvJDJ8D5tk4SL2Pfcc0+7++672+67715qpFiE89OTjU4Uyddlt8bADdZAfRpAHBWGVIMFe5GCkgj7/vvvV0pElaI+UrTnCx2US6FUT9Xeff3119f22f777z/DjThnW+6ggw5qhxxySF1PBsZNpH3BKDEbEIhDioOKHIhRDkhwXH755ZXGqEeOSG2ZZ+XDvK2tBZCZlW3FQ71HHHFEEQ0U67f9pslEOOy33351nmj0TSQlyPuYNEi+DSTEGRBlIkpkpcwQ4t7AEUW1INfceOONS5GBwJKknLmaNC7A5sRJJ51UZKedKC4Aae/au/1G2kw0+k7ImY4l4CabbFID5dN0HBDptQboUG9AMWvnF198sUj0HLew5ZZb1rpc8EgURi4w+5deeqlWK2+88UY78sgj6zfiNgBxjlxnB10batePidpqG1F//yubvffeuwbq8d5EmtqowjmBgvkxtRAs10zQ4A74NQP2DCXbkBDAwNbbU0891W655ZZyIQcccECV50MZICowOd6h3sQilCVEoWADpUvgsW/TNnDg4A1I53U01zFj9wgyMINkfsqolDtApLM8UQoj0FjyZbkoGFGoyM4KQgaFmajoQHnq9E09+K1cswTqngj0TSSTNHhKNBjEIVCE1XmHslxr5wjxjsB7MkDPhERJ/r333lspjk8V3u23HInm4HkT4/eRZjK0Qax+mkBlvXlr1+iLSHmb2c3Acma6iKAIRClP5w2GSXvOAJFqf5IbEEiS3ojIzJCPlCdyAVZOWcl4X1wGeE8mxbsR6d67TJq+SLPcey83YuXVNfpWJHMMaUjUeUQ6pxxhzhS2wgor1H2IdPjIH1+J5KRRIBjJL/fZZ5/ygdIgZ+8OTILD73sv4pzBtTqgXtfKtJ0I9EWkGYYoIaRRC/MSeflFqrL50LuRkEHnGWaJ6HxSQOzrr79eAca6vRe2yUJOfk8fKJQSQyIzVi71shWnTr8SFLkRq6tjjjmm2neBvolECHUkDYGUAXIMBFFgkKlHlucQbZvNIMGuke/cTNrSEwQY70eW9kEmEUIgcAEJLvrp9/2Ws3YyAocPaiajK4z5TTvuuOO/oiUYFHIQotMGkjwOqJNZahPSg3ynfvTRR+uTBPJD4nXXXVdp0K677lo+NqlNJse198UP6xfFKkeoAGTiKDDkqtt2221rc+WFF16onPTwww+vuvGgrymJAnTSgVQHUnQ0JJtxAzJYBOdQry6K+OCDD9qzzz5b52xoaONdgcR/5k1i701fEBVCEeiIai071fOV0ih9tgiQB0vwu1DmmBNyMynCbrDBBqUAxOgwvxi12UzgpwxSZ11rG8X0RloBxkYun9i77PMug4+S/Cb4w4Lp06dXFAYKzjOgP551mAikcTP64myyWYs/YJUa+c6uv8ZzxRVXjL5lbBgZy9gT8ieeeKI68+abb9YgzAPTjd/L3ysyQ+mGzQURN/UGx9QQyGyRwqz9YZXBqvfeqCurncAnjM0222z07h+YFITlOuTLQz2vjBpNhoAjBfKN3Xt32mmnUqwvkvrQL/rStA9NOpnozP/pqGOPPfaoQSEtBGelokxbRDnshpsUaQmoc8RcqSoEmRSHvxeyO2RyEBE/CHEZ4COYDZBYCXAzLIKFeAcxIJ0aETyeVc+4viL602SRUQdjFog0GKQZoI5mAPnDAKBC/spWmLqQoC0X4FnnKBMQzleC9/T+KZ9JBJMn5aI+79QPvtfkUJ57EZvFWAhQJzPXF32i+LGCaY/7c6yPXPDwww/XGbk6rcMIMjBkIiU/ZWDUteeee1YizvTAczFL13yf94B3pZ2dotVXX72u/YGpNlExf2fClJkYv6kP3IgyzzlLpRz64n7nnXeuLbqLLrqo3jMW4HHc4QqBIRF0GrL2NRgEMHHmSAWut9tuuyLKQJTHVCmFGj3HHQCSEBITBtH2wQcfbIceeuhoyb/h+QQ4kyMxV+Y578s3c5kAVfLlJqBfjD/uzwRE8nNIMQCd5qcQpY5ftcZGiuipHnna9ibc2vb6N+8LRPinn3569K6Ve1BvUpDSS7hJ5B68H1H5yzblojYyPTPe7zzjNu3/BuZOkUiKcwezjmQpEfKcDVA9lfKPfC5Tg6RNQE3ahiTkZOlpm623XgBTpywwTGSbIIm4tT81+i3K51cvuOCC0dZjA9OeECLBl0CmG1Xdf//9dQbK4PitnRGOAIQLJpTi6F2fq4urAIFFm3QdEX4rJCPf9cxE6gviZAyCC8swIdb2cO6559Z5rMDjhBH5vyBgMCnLPSQwMYNXhiTKRBzSEJPojfS4C+rmHrJTD9q69ixXkQlR5vAcVUp17D4l2lP/eIjs3Ef+v5CLIozPpBIJuoEiycFnKddGhE9CD661RyrzREyeC6GuBRT5bsogLkDe2JuD9ktiMDBFBjvssEMNjuM3OIpxphQ+E0kG7D5ugmnKE3NPhb3pUc6GluGljLJNSLbtTGT+KLZfjLx7cIoMHnjggVJYTBEhuRdhqQeSCYj+CM69g4/0DHU5kNZLoHr3SDRhmYAovAsMXJHBuuuuW18M+bQMmjKpjSoRyo8pT/ARnBJQmLD6EA9RYe+ZmqNGz5511ll1PR6MvHfwigysKvg9618DzRJOmQEzbSQh2UFNSMk9fyiARJmQuhzUmz9ogC5IDKaMIoONNtqo1CZFip8UOChxnXXWqTaWe8kx1WWjN2DKVGsCPGeIyrgF4DLy73S6wJRSZGCDl6pEaqpz5g+pzDoayTZllalXzucpB+UIpD4Ept57mDZ0SWIw5YiEZ555ppJkZt1LFkXl78ORIoeM0pCsPfCpyvNsL84888zRq24x5Uy7F3ZqfKiS6iCNuUvYESahZ958nmSeKSMtwUY7yDoeuvxq2AumPaWJBJuz/hY9G6/IRIw/b+EfwXLP6ig+kS/NJoTzGWecUdcThVmCSOATpUYiswTaHiYymW/qBSbEOlOmtnDYYYfVeSIxyxAZ2Hy1Bhc45JvJI20+jAyl2kjqmTqceuqpdZ5ozHJEUh5/addIDukvfKVH/GD+EYA/tppszHJEBvmcQXkUyj8yeRjEf2EzyxI51YDHKZlHzooYEtkRhkR2hCGRHWFIZEcYEtkRhkR2hCGRHWFIZEcYEtkRhkR2hCGRHWFI5BBTCa39B2Xs3Y4lAAQQAAAAAElFTkSuQmCC;" vertex="1" parent="1">
          <mxGeometry x="299.3499999999999" y="459.59000000000003" width="82" height="83" as="geometry" />
        </mxCell>
        <mxCell id="mVMNMaw9jNS7bV4Ns5Lu-215" value="" style="edgeStyle=orthogonalEdgeStyle;rounded=0;orthogonalLoop=1;jettySize=auto;html=1;" edge="1" parent="1" source="mVMNMaw9jNS7bV4Ns5Lu-216" target="mVMNMaw9jNS7bV4Ns5Lu-220">
          <mxGeometry relative="1" as="geometry" />
        </mxCell>
        <mxCell id="mVMNMaw9jNS7bV4Ns5Lu-216" value="" style="shape=trapezoid;perimeter=trapezoidPerimeter;whiteSpace=wrap;html=1;fixedSize=1;direction=south;fillColor=#ffe6cc;strokeColor=#d79b00;" vertex="1" parent="1">
          <mxGeometry x="424.88023939064203" y="450.87562054208274" width="48.9532100108814" height="100.42796005706134" as="geometry" />
        </mxCell>
        <mxCell id="mVMNMaw9jNS7bV4Ns5Lu-217" value="$$\mathbf{p}_{0}$$" style="text;whiteSpace=wrap;align=center;fontSize=15;" vertex="1" parent="1">
          <mxGeometry x="246" y="409.995820256776" width="138.34602829162134" height="70.29957203994293" as="geometry" />
        </mxCell>
        <mxCell id="mVMNMaw9jNS7bV4Ns5Lu-218" value="$$\varepsilon$$" style="text;whiteSpace=wrap;strokeWidth=5;fontFamily=Times New Roman;fontSize=24;align=center;fontStyle=3;" vertex="1" parent="1">
          <mxGeometry x="424.88023939064203" y="448.36817403708994" width="48.9532100108814" height="105.4493580599144" as="geometry" />
        </mxCell>
        <mxCell id="mVMNMaw9jNS7bV4Ns5Lu-225" value="" style="edgeStyle=orthogonalEdgeStyle;rounded=0;orthogonalLoop=1;jettySize=auto;html=1;" edge="1" parent="1" source="mVMNMaw9jNS7bV4Ns5Lu-220" target="mVMNMaw9jNS7bV4Ns5Lu-224">
          <mxGeometry relative="1" as="geometry" />
        </mxCell>
        <mxCell id="mVMNMaw9jNS7bV4Ns5Lu-220" value="" style="shape=image;verticalLabelPosition=bottom;labelBackgroundColor=default;verticalAlign=top;aspect=fixed;imageAspect=0;image=data:image/png,iVBORw0KGgoAAAANSUhEUgAAABYAAABNCAYAAACi/ZQPAAAAAXNSR0IArs4c6QAAAARnQU1BAACxjwv8YQUAAAAJcEhZcwAADsMAAA7DAcdvqGQAAAFsSURBVFhH7dlBSsNAFIDhN5OkraW2CiIEo1jFlQtxp4dQELyIS2/hLdR1L5ELiNCCFVSwtEopmNhM0rEzmT5qLRhtlu+Hgclr+QjJbsJgJv+pcQ5MXgNjthn9Kcnj+rF79vgNNuitGAmejGIz/T2bO2Bbjt5PYK6vxk3QKIn4pwhAJFGmJaUEi9kyCAMjpWl4Gh3Gof4hS+pOS3ZZ9vpd1mo3zTSNT9BEJjweCbC4nWkVrCKi98278TOQhkzj5kVx9edyoZJ5FZ0leOv3NKoex2zMf2nI97ADgRiYUbbcSh1aD03odF/19Up1FQ72D3++vLwjGCMYIxgjGCMYIxgjGCMYIxgjGCMYIxgjGCMYIxgjGCMYIxgjGCMYIxjLDa4u18wuLRfYczehvrWjjtSv1Gm3mi0MK3R3ey9FvdMLM14Mdtc35qIqffj/EQ1gmGT//qGqldbAYtZcVMX850bb7P/TzZF3cmn2UwF8AW6jqtkhACcVAAAAAElFTkSuQmCC;" vertex="1" parent="1">
          <mxGeometry x="514.3533333333335" y="462.5933333333335" width="22" height="77" as="geometry" />
        </mxCell>
        <mxCell id="mVMNMaw9jNS7bV4Ns5Lu-221" value="$$\mathbf{y}_{0}$$" style="text;whiteSpace=wrap;align=center;fontSize=15;" vertex="1" parent="1">
          <mxGeometry x="442" y="409.995820256776" width="138.34602829162134" height="70.29957203994293" as="geometry" />
        </mxCell>
        <mxCell id="mVMNMaw9jNS7bV4Ns5Lu-224" value="&lt;span style=&quot;color: rgb(51, 51, 51); font-style: normal; font-variant-ligatures: normal; font-variant-caps: normal; letter-spacing: normal; orphans: 2; text-indent: 0px; text-transform: none; widows: 2; word-spacing: 0px; -webkit-text-stroke-width: 0px; white-space: normal; background-color: rgb(236, 236, 236); text-decoration-thickness: initial; text-decoration-style: initial; text-decoration-color: initial; float: none; display: inline !important;&quot;&gt;$$loss_{3D}$$&lt;/span&gt;" style="text;whiteSpace=wrap;html=1;align=center;fontFamily=Times New Roman;fontSize=15;fontStyle=1;strokeColor=default;dashed=1;" vertex="1" parent="1">
          <mxGeometry x="559.83" y="473.89" width="110.65" height="54" as="geometry" />
        </mxCell>
        <mxCell id="mVMNMaw9jNS7bV4Ns5Lu-229" value="$$\varphi_{3D}=D(y_0,\hat{y_{0}})$$" style="text;whiteSpace=wrap;align=center;fontFamily=Times New Roman;fontSize=15;" vertex="1" parent="1">
          <mxGeometry x="903" y="1534" width="222" height="55.44" as="geometry" />
        </mxCell>
        <mxCell id="mVMNMaw9jNS7bV4Ns5Lu-231" value="" style="group" vertex="1" connectable="0" parent="1">
          <mxGeometry x="717" y="1830" width="727" height="271.00000000000006" as="geometry" />
        </mxCell>
        <mxCell id="mVMNMaw9jNS7bV4Ns5Lu-230" value="" style="rounded=0;whiteSpace=wrap;html=1;fillColor=#F5F5F5;strokeColor=none;" vertex="1" parent="mVMNMaw9jNS7bV4Ns5Lu-231">
          <mxGeometry width="727" height="271" as="geometry" />
        </mxCell>
        <mxCell id="mVMNMaw9jNS7bV4Ns5Lu-208" value="" style="shape=image;verticalLabelPosition=bottom;labelBackgroundColor=default;verticalAlign=top;aspect=fixed;imageAspect=0;image=data:image/png,iVBORw0KGgoAAAANSUhEUgAAAFcAAABWCAYAAAC6lArJAAAAAXNSR0IArs4c6QAAAARnQU1BAACxjwv8YQUAAAAJcEhZcwAADsMAAA7DAcdvqGQAAEpRSURBVHheNb1pkF7Xmd/3nHPvu/S+N3pDA2isxE6QBCFSFCVKmlFms8aKZ2yPnUzsOM6HVKXKcZWdVCUFzDiVqlQ+pFx2PqRsJ06NxxNrbFMTLZZISSZFgiBIEQCx72gs3Y3uRu/d73bvPfn9D6gmX7xv3/fec57zrP/nOUs7218Eu5ebZXWz4My5JxZs08zfNlesmQvjZnbEisqYVbd5q4/nlvR7yxvcu8YjW8Fc7iy0CvOZM++cZUlhjnv8iWD5K5kleWL5xaa5X1YsfN4yV3tkwb9P+1vmrN8Kq/A+Sfe7zPkOc8MVK3ZllnaVLLtXmN1vWSlrWsvPQcszgxjzNgGdA5Yk0JIGCwn07IKeVwpLjzjLV1sW7nmze1xXnxsr9DNjqY1YbtssTEDrfm/hQDDrcWZPaPoRrwzau7nWy7OP6epyZm5JfCjzfLu5Mt8x1hCgw1agdcrC76TmXku4Bzrypvn7Fcv/F+e8PeCeFg/YFgQHS8IINw2bz0dpoIMGeUDMbjStPq+BMoAHMBTirZqbH4KxfTzewfWEe5t8XuOpZ7nl4sW0t+KRN7dYMasxUAQYrAvGTlkCQxPr49VpiWs3S1PzfTC6n8GWeIbuXJnP7QgHAfhijNFOwaDtNFymnYbleU6f0J/xanB5kWfu88y9Mq8UBiUIDaFWuszadlhWYWztOW3DPHQq6DleIefFx4CiFFFZeKEslsOVwBjgDsRbgMxQTVA+Bu1GLJSgdzmgi3Vz04x7pmRuBTr4Qc+WaXNdj1rhxswzsKIJ09aXIf4WLzQ6alYnr146GTLvq1aMQ/heGh3jfiRpazBjGakv0hIDLAo0aBKt2kknDEJCLGbg/BoEQ6SFedqrWkh7GDTPdPHqhfk9DEDtiVE1hAjDkQeM5Xe1W4MxWww8bNEOmhNoAwG5EgPupdkO2NAOTXX6kHJt8Bqj7R3Ibht8nEduTzNrid4+2umHuA6eRVdMisFjhiUwSPMyEpTJNkQM93TyzDaIwUoCw49MQ0JJA+HruU7aqmIRGcL41MHb9LNgWY2Bot7dI1Y+xijq3rIraETtMX1hG/aU1yr3dGDOfZYW+yzrHjB3ssNKmGAzo78lulnmNt0eCcot7ebaAPRKs+ZhFEKDcjQcQlGsZJBfJ3gfy9AA+nRoGQT7hwxqmmeWWuZH0FAYI6Y72g/0UzxmgMvrfJBpwBW3E+a2MWCu1zHjgvairtEPVBfHaPQ3Uus5gWwvojgfwIzrEI1WSntdmXcUGxlZKKMgCCY0YdIyzITBOW1aitkPwNRtKJQYPMxznZBwEW29uGm+sRbdhnka4l5reo3m7582j3qVuHMitQIzz6t0BPet2Y57GMRVwEjrRrN5kNEHK9HqoPkOOkHrihr+bYMG5X+XIQptQQctwa8Ve3jvTyzxCRbBPXgiuRBDYUMXg6jABtRAPjxqDwPTs66LgYwl5hFQgZaEAmG3MUC0zXEtbNLPVjdaDY3DHZa85C1FWAVMCXXawqcE+gxl+hzm1Q2NLZj6sGnhCd8/wwWu4ytraouOxWT8d5TVEu+YdliHPlyGDM2ljBvPhmZF/x4UV2gm3OXeedqMTpsbuMlXS/R15oyz8lqwCS5uQ5Xa0Vr4xtjQMjQKyWar/I5PsWUubKALOaaIfea4kNDfbSXcQlaCgIIOYYCtQMQ6DbTx/KnC8tdoE+a4Kwz0Jvc943suRYK5PaAUkanQGOBBQv9hH0w6gPnDlHCLG+7yPXT4HQh/H9dhUrhIA5cIlm0lK97gmTdoTHReQACXaAefmXWgpbgLeRR4wk3SQpiyKoWg3Y0C3Zb7a1mR9CBQYgE0FFy3Fu0VUgYegjUObYTVEMH1LoSCcii4FXcREsEyt2k62IviIOgRFPSuo6m+PzqdvIrU99EhFJTWGbwkiOqXMMeEGEKMs6RXHEIT1/C/MLKQHTUyfBvXJX35SQbkWzwPDQn+L3mJ39/w1rYd88JxonuMEsbLN3lIxXfaAjShRQbysHUGTux0u9FOhNJ5nLbQouIWbc/QFpaQEOEr+M5CjhgUEqZ49g0c1mvc18c40NocdxwUFCd4Hvqt1rTiXo3AihSXeIZ4ELmYiaJVXihOYDwtJCufriAnDZBYYEXSiVCl2qJXfnlT9KJMClxbakNE833ab8ZYww7uu3/mTGJt/+C0jZXNVcQ4bpZmyX97GCcm4toCGhEw92huSNF8m7l2Sa9Ex/xOADHM2FVgojSxAZM8moPZF2h1C/PKaYeW0CTaoS+hAdGbgCCCiOV/w/SEDhzMc734TfxB6y4MeYgAEbpro528YZksA4NL6augz1Aw4nmYhh/NbkEeFhrauGcb18fVXmJd2xNrHQSNDOPze2AaTSbdRPZOBtAJxEoqXKItCR/BJShSdAO6B1/shSYQWvxHJoZVJ/BHgEuIwTpBPXu59wj3TdLGJ3+EW+hk5Mer5vGLxRJm9AymMeicgSjyOczIGEyQOQGJHMKRkOU6FCKlpYJMBlOQR9TEYoHr8MRjHm4MmSsAjHDjEN/zI58mgdkcwec+g1UQlCaiOA4fHGCITUJLDzQJ/sGsBBQSEFSB0KzKNTC3DfAuGDnDYIF+tkF/DLpUNCzsKVl+mGeO0fZUw/ye3AaqweYvoRDv8N0tnhsWXSKe9xu8LvMJxCOXJv8OmLEEZcrbGRiQzh5joh4fFfAJHgfvqqAx+pig7+3cM84AxrEensn+W7EdbXTAk1ROXiaIWeRohSki36RffIoTFn7KtbywYpR2ibrhKI5953PiHEwMMI7YZzlQKP5IwPdg9Dm4/BmwbDYIqZoHzpREG4HJ+qT99N/JZ1lAF222098WbTzClG8A/sU0MbwPxkrQjxvm7tXNr8B8tNZnDBqMmd55bMkc6GZxxZqrQK0tuSJoJo5UX/B2YN9lOzb5ofW/sY5Pp88BwvIBQs5XEqu8iaD4LLQgy3K4tKgIjNW20wamLkHIqpKiDY8G93P0XFo+jAXtTaz8IqM7xPNT8Bw3qh+eIMRjor6TCEdWktJBC344QSFlOQlwKAfmKDRO8XqJ744y0DXw3SOiPJDLqnSOW5B/sjsw+zYDW4QhBJTQjf2JWPntIYQDwlC0jT8gKQ9sKx7TF7cZ7qIEkmgpKUTj3RDXBVBguJoOz3gOSBc2YahIx8TCLIjieg4qqxGc8LdpFZNGmwZ5hj4zuYVjMOWlhqW7cTOf8uhZ7r/NO+jIJukHaFjcoK8rwraMjebVVtiDsE9i/sfp+xHPfITr+SWuRv66gxeaTXdWQJ9eHvpjkgHv7V+Qq1ZtLtRhoBVwYIJMCTPK4bd9gpqvz9DQJhowSVrbZjlR3L9Mt7oHc/V30PRF0toBsOgEEkTq8nl2hccA/AZzAv5TTEtquAdlPBDj+onSAyQYaKV7QLB4wnsFwnvRcARcHEEIJ2DnfgS4rWXVoaaVy01rrmFvq/jO6TYrPgPJXEKwYGIFFw+acODpHHQg0QXgoTX4PgEX4vJssoS/JflREoOAbAPGigmdRHveCugLG1xf47qQBBx2R7n3bwUb/qtYA5h39Ww3GBmBca+CqTI7R7Zq08QHrMXFzIekRla42C7QWQFeQYQysVLDSmDIGKRw2o7MTYAveDgVauBXNchtStp+9cLnITe4zrvy7jJtKdeHRiQHX8lTuKwI7h43LX3GIOi2EGCXJnfzLGl0YJBGolCQdCjL9eNowu7C+qZqNj741Eb6pm3X5D3rPTJn6ctEZ8wxwccqUMesiGww7KIPBJrQrwbuWyRHdTLBmQ1Lz5Wt+D7Xf4FSXMeylBeplgA8zGFQWEWDJZhOjYX3TAzOrIRf7+1dsv4dc1Z6kUsgIEfi5Pbw7ChKQRodFvi9/hCk8ph3fOkiSsmPc7tCCEoR4Zub5H2cRkkNw6c8sDoH44AQCVqZVyxLGflUF75FUAyMuYVbUJjvYCAC/bQRnkDcQz4oWwPqqMhh7chwlNcgzDiGtE9C8IsNWwca5j9tt3CONmCQjXLvIKaJRjncQ4GQlfAEBG74cgkvxSSzRRhxjvvPgk+fEUSUlOglCLXCPWh3Rpw2+egC7ndxzzA+shdMvMazZF1B2eIXgVaoxwkZoBDEwufwcIUgOF6x4qtkml+ivWbDKp9VrKU0nkAu1SsUTM8i2Gv4cfslPKEfr4ZI34od5L9/mztw/hG/kfbGwssqzHrEw4tiTh1YdQdq5tE4nKFSzVGiJM+rjYB5B5gY8S3BVBHbo/D5EgMDBbgCkO4xyVdg4jdSK/3Guu058cgOVS7YdLHDLp193Rr/judEkwIIaMTm0K57tAe2FYYv9I8QwiBDEnhv8lmDfAhzgH3Wg0AQruoJHi0y+na4qKKbzxLOOOOYaFnSVbFcvvZz2iCNdkf57gTMVSZJ2hsRC1jW4XcDQrIafCkTVDMQBolFJpeipEruRHTIx/6C8T6YhcZPeB7X6hQJlfNvcz7tRrWHFdDwiwpkMpenNEJC4RmoK8HIop9BDvPOZxBDmMF8hX1RciUsroGZY+4m2CSN4XqMQGQ+zhgF2h+UTuPsy93tVq5k1svoOvxTS4c3SHHxwUpr0eyq4BFPBegIN7GLywhOQYSXu0KAfQz+RvgqDEXM3UG7DNLx2Sl6YzQFlqb0OVGxhgieEM2TySrpMYyA4am0XM9wj4cPCSm/J0ClJE9lLChFYUoTiZWE3yXkd5qWvcNnWdhN+n1MnwtcV17A5YCZ+bADxZ+IfIIQvtBXL6O5Cb/Idwlukeb6omxJP4OI2Q2YUNLCnKLNKFJ67h+gVYJViejfArr5FaSPo1d+jqJagOmFqlKYkypMbgfPHYZprzDgk1vWT7DYAp5tnGWkHyGNYdrcC5OJ8PlVBnyegHeDd7UlHypl2E1TO/nMtULMVzq/zrNgW+HbAHJxBJ4AHZ7UudgHXTBYtASSlVghAwU5WRRaWMhvHkCjwNO2xPfQq+QnDKAUfVxTqfQ8grwDT4BecEdDIYAnluNOVEGMLlXCXoGODV5NZbDgbDIrEuCNEPATsZIU4GIhh4Omdo8BX6Bb/q6AIEV6VaW4JSwTGVUKxJQZStQkr5oCPi8wcPk/BbNAkHNoLCTgj9AURcChioX9MG03gUSZ3BOYig+NaaO0bAeo4hbPXKSthxokDUqQYzBhP4jiIH2pIHMPC1L1bZZnVWiBOb4Oc9cZeIaQxmDuC7QH7syxtOQ2SAbsnK6XLZfrk+aTLgeEJvrCI36fhUZp/UHaBxFF4b3PzavKcgRHxtDMIXw/v2L9EfEoTqD5iYo594BrtxDKU0X6NudKJMoyXlSUF+oQvf0o/mSHJUcIWLjZhGwtw5wcPjhMM5A5BoKQCphHSDQnjWFg6AuSh9CIe8GfQKtCyQL9pcA7xTcvAVRgjGqLqmGAVR2fHdHeDvDrdpgBGckjmL8MQ4dINIYZAOgh7E8B7MvWRvsea3ErqTUJaA3cUYGpBgKpu0sn0yAgmFbsBNqhwTkuSwX78IyRbtBPE+ZJDcUksj4PbQX9WaZiAbQM4DuVKMnFXYaGjQWGQHLl4WgJhyv4g8twvECpcQakRKqfI+z8HuO9D70NJdBjhL6Yfak3cVx6TvQkXQkdmPS2NqtM4D1VdwWRtSTNx/hBgLfKhTLbHF8X6FDlYQ8tBZoTGYwZ2xRSUJYzyI3Ar1jABgfbNQhoQQh5fiRS3+ESYnotlyWUyOCT3ibf4dPJ/nqGV617cIb4tWi7bBYPt8igG3was8XWIbv2eK8tfK/D3J/xTINGYpGIvmP2R4KCn81IbtwiLoGYIXrFZL8Jc3FRXORGruOIwxjPMr5Sg8REcYbxqNRZyJKx1AQFC7Jk5BCgOZEfZ0g4gOhiwz1aT79ZD+7jsrWI8LEMyJiK6KR0F4xWKY68PBwuPy9W30ViZFRB0y/9XxCuYKR5KEV83bPM82W06EXuAxuWeO86MGs7euZtbrPbFt8etdbbqDP+PJr7IG0LivG/8vJCszhoRDIBtoa5FaBeV3kNRV+1YQSy31+2b9m/tdfz89a9ldvD7m676XfZv7bft3c++j3b+h9p6AbBF2CvaRu/D609lVs7GdoWLiKojjADjU0Gq7lAhhnQblcswVroAQogiljg8ftJkPZyP+jA2vgdBuW3eb8gS4Gbcike14GWpaTzkXYJ4efO+QwIVfyq+gJ35TtiwHJ0oqIuEKWEn0x3QohwKnDF53wnTVcFC78j8O/QkFj8Fvogy4r4FDikn1azRbIE1wg6rQKs2AZs6C9ZmWdVs/W0Ky8ht9Z6gM+dw8TqBJG2LXux/4b9neo/tf/e/SP7u/k/s1OlP7Mxfw3jbdoKtj/fMWQzqPwc0boitzNMP6+Qsr6E1h0n4u9GS8fRvErLttCXALxRyuq76VvFJoYdNCWkuBKp5bPfwGhoTLVgoSil7921iNRyVeBAOwkewoHJAxDRyX9nLQI/7gerLUpiOt/bYC3YMhpE4/I/VoYx/Kc2zDfMHaia/zrA/KsM/Czm8+dcvv3UinTI/Av8/gLPOgJcS9FUGg+XEJZAhQln9jEwiLBhRkZWpQwxeQKYf9ZEE0lM+N530R9MTa6iFY8yS3EjOYmKe6thf/jVf2r/aOGf2NDP523zyx12ZWQKr3LE7vo+mylesceuy57Vx+3Z+pBtNau2Wuu1BMvx+ON8hYEvwyAFqpmW+fmSZXJlxAXV9RWwPL5alTeHBoegaSNoxTclPYxH1bkxxgJqil5TBS15Tc35wVSvYvk1lOMqlt3cJInCjMHM0f1d9C5xtX942hc0JM1Jv5iOkWQx8wD+TU8g+V8nDXwrgzg0EwaHRVHVbqUdBJh9cFGRUtLX7K4qR4B616ZrSFDFlgeI6zo++gL3KuXEMMIYDB7je7QcKB2jtb/EQC8xmFU0AgCfjm/Zf338u3b8jz+yq/9DbqP3azYxOWu10XZ72/+2/ejjb9udf7nHFv581Na/W7XmDNnj7rodPHHL+nc/td4D8+ZJVRtFuxVX6f98wxKUKGdciZACCU+cIV/F2qRcmrYlxFu1k1yJ74FbsQgjzSTeJIwjznwLQx8iWL7I86T1xSyBchNLAyrxBHGHvtbPnPGhE65/lRt/mxEfhJFYldfknJhdVYSn02mi8scla96GIWRziSJNAf5dS6yJsHOIU/1WGFfuOiebyde5tkEnis748+Ix2nGNNjdh/P6WjXz7mXV/bcG8CjvrmBIalgHKnfqG4eF4w7pPFLa7uGHlJzVbQlBVBJgS6dfSNpuvH7DGD3DyP2Sgn9HHgoKPonZhE2Hapuyq7bH7tr3tinXshYD9DBufmw8r0Mm8GZeMTjGjHTqV+Sg91QwEPlOYOuzis7CsgjMuTt5SiqTZkuI+inARfk2jPPCB3snSuA88XHBJP96Otlv6n5Wt+O/qVnqVhjqaJAO4EOXpIgAkEd7HlP5vBkwenaxrukbIHK+kkiGppBdW1foBBbQ6RDxFUx8Q0FT3SSBQP+DdsEQ7ROzu11fszdG/sFdHP7aOsXVrke24WcYMc4Uhi4P4tN9M7cWj79tEbY5MydupDoRDUlDfUSIPGLeZ5Z1oORoDJo6oA6jWhKzKwDrjbxAOCiundRtgMJ0jGxZehfNf4769aJ5QBP5RjFTdO5Y2yapcLCrAYBgednFNaEe1WeKHas35IJqzjedAC6Wz0PldaPqUa6qSqdwnpyzGIjT9eH80tZHv3LJ9p+5a66T6wHTlcPk/yVIrYQr2YW7Nt2vmPswsJ/f2JUE1rhOA8nutWI9Ntsi/JVny/kI1UdEJc1MCpoKGE2ZEm1UgGRzZtG/YB3YqfGrtvYuYJtBpo47E6bTC64C3yZen7dfCB9abLVtG0Gs/SQpyHMUHg95zO20dLGu4kEBmJFxjI21kY4V1VuooZmYdYZ0x1iz169bTtmDtBwknJ/CPk4xPsxnKOMXkQZhNEhA1M8Id0myYWQGKuVHcpPwnWWjSxrPd/A7kKshGm7ObVizdAvJpYlLrPmCy2hUPVBnkJwmH/sHpcKwNU/e2dr3b/C0IfsYdWnih6KeVNWQ9JtyoKrIQAtoVZ3DVnmZ90dYEyJNrBkFpNG0pBY7TP1hBAUj3mtxTgjHFd4dyaw037YHttVv1fZZtKhDg9w8isFfI8X+rZf1T1+2FYtoGOmZsfHyT6J/Z3W8dtX9e/Y69u/E3bPosOfx5CMF12WvQ9Tpt7/C4/Yo9w9fMgITnWlM26yft6fKobc6QBsziEzUZqiQIn64aS9jD71o/oQUtmj+Uy+vrtlzuag1rvMM7iYmbxQ1olkdJ0CKusaaMVnUTHq70WhhiwJrWUluaHH145oyzN0Jwv0cnu9es471u27zMl1dBCQ9JKPD2moHwyhERWUGQShW86D9XHq2cA9ok86DZQsE4JQujXASbKgiYkh60N87HlRHUAQb4BopyasPyITBkFXTAc53Am3Jpi3iSWW/nAkH6CcnCArjgih0NtxH+pv3b8F/Yu3Nfs6c/JnxfJ5JcRilAJPk3MNOvZrFMlEzju0mJSyGx1gD9EZD8EiZPYFVZuoWmOxgd1yO8AE2HGQJKEv4CTfgeNMP00giQ8Qi/N1EK+VatFFIxRtCxl/GrXLuia+vEmU6CaMWKPVgffPHSKk3s/nulKPtwrK9ChCbYlqBEdZZL+KILy0jmLORWQRIv4+RxTpiFK9NIBWaJcSorQqQn4SgiRuF6x6D5w7gFpb3TDOQeA1F2sovvdmiwUNDEX+QQ8eXcKt92dvjgBRt186Tr8/CihmGmtkLKViNApLimjlCzR6VB++zqSdv8f2nnc+y2G2jV1RYZRDZho0cX7Ol8n2U/or93YLwcn2jo5R0+qJwqZYhLocQXQHF6Ent9DapR/Nb34Ml3eT2ERk1NCUaSLpuqfUGTiPSp9VCTQjP0ISHlxIaxNsthT7KX2ximfmKJ5p+LuceL4L9BQ/grYb5chZArEPC5HCpgPQyReu6y5CSRVvVWKTGmWDyEqJtojaY5liCigVRgoqt0myNoFMAVm8vBtEh7mGDwLQTzTa4j1eQi7uZz3MNv5Tb1B0/sW13/jw2gBSmj1gqBhASmDU6sh267jO5+WLxuD2d2WFqvWgVYnmw1AB1YywY0dcEZ3Eb/4IptLGBdlzFRWZ/cE0yM9WmSEmlbwFdKAYNSVfnSCWjfyXgT3snaHDgbV42ZQ7vukTu9u4HKfMprEky+y/wr8EbVs4eMRcyfon8E7Ldz/QvAEa31bXCu7fmfTtuv08FeXuBLTRqGeW5ermAufRY6ydVPtVnxTZ48hfBe27CuL7cwOfBihYZLdJChHVJcYIiiWpzuURVNxWY6Kw7D0L/esmO/fcn6plZtkcwqLDkrf6lpJ174hf0V92+Q2RLWhLB47QQMf7V1zg41p+1OMmLvPXnLsnd6rPfVB/Zr2/+9ndr+A+sZX7LyJLh1oLAsSWxruQfYiJUNwow9BF6iuuodQXHgPopwjd/v4u4UPwjsMfgI7cBQdwOmrkFrF/cKHWhGe5uEyPUZfKvdxYIHQRB95r5Em+34YnTJaowXTK+Ap/+CiklLWNsCbuEJOFfTJ44sJN3JhX4IKOGAVITRqkPNt+xEEw/S0eHU2l7Jbc+xeds++bn1f2WVjiAQH+p2wXglDpp3kxbA72iKNGHdtDWRx2mdI5ULdqLrrPW/QhJyrAB/rtiu8MjGcAc9X6y0bFi7deIG+leXrDrzmPjdadlDhH25IN9oogfn7ffDu/ZrxSe229+xruqSVeroOxbUtpBYhTi3Z/9d6z2OtLU4Q8s9FYQ28MjwLmxB2BYEKl5o5vkcaOdjTHye3wdg0R5ek/jdbSRTKFD0GYwLu471Ba/JGL7T+mNBNiGhuDYOmOlQGIGAXAVGfhLbd/q028eNWuQ2h6kK+GvZIsBYeE4Nhl0tAh4uY1vDurrWoWEVRe2ztQ20WrXURQgiSHikr8yuGGVQKsj3IjhVjUAHdjKz7T33oGfdCnBr5Uhqo/3TKFGdJK4N8z9sl+wluxkO8ntiK6VhezI4ZT+1r9uN2QPm1srmX6TXypItuB47707ajdope3xjwjZ+wSjfZWAN6CV27OiZhifO1uo9wKYSEV7jw6JUB9AU1YC0l3u1elErMKHHCalo+RWuT+ZdrNIeMcPL7ZEWR80FRWgqKqiypnUemlJCTgFX9bwdOAqES7fBgytnziRu8sxplQULZWpAqpBKqnoQAnAPRvBK0YACfOiJltX+Vaxg3TZc1TbqYEuIjym5ln1iFkGTflq/NQFzsQRTgWQX7e731tW3goIvYfaP7UX/Uxsu1siMx+yzxu/Y5fqrdru2zx6tj9gTd9Cu+5P2iT9sV1dfsbVnXQRRXAYas9HZbnfDIbuyutcef7bdWu8TIDUF8w6aD1RMjnnbPf4A371lK27AmhtgVwatATutYRBMasdCSTySBpBKEBMtDC+hgeB84V4t3TIyL3cf/08SVUQfgJZ0tFuIgY7xiTd6F8QkjdZkqNvGWPej4wTv4mdKfzcJOndScn9eYLmkhZlrQpH7BWZJdkhNeQgGukfONmYHba45aatrvQQYCBfuJpCGPhjZj0QFyonSHsji24R3QROktMVGbqtuxGqhy4aKRVLTxzYKc3uAXLWtdVt5mtnSpW5b/dmg3f9gzM5fPWjnHh+2uUf95nPa6Yd+AtaNx4fs0u0TtvDhoKU/RwHO0d85VA0MW9xuWK5goiTC16y9E/vkuXQKU1Xx+y3M+y3G8WVoAiGFF3LLpImd/A7DfSeaWqG9BokEaEj1jaIE81MAcaVqKWNxWteGhaAu5vHdToBfFgMfhUSUIvuuL5IIq505HRfgEdXjtLhqtTN8VoFFC960qkWBC6+jINR8VLL1B/3WvF0FMXBdhQ/Nigqe9XPvCO5FxY6tnMEi/fPPGRt2Jtb9whpjXUfofbB2l5X9Go7gc/vLbW+jGC27lh01+y7YF/hUOVazXeNPrU6was0RqCRczVJvwETM0u7SvywG80xQCvnSdAK8+UZqQ/seWZH122Jos60GYZ8gm6IEOQrQ/+Km7XrtgQ2fWrfVtj4rQDxxrG1fIJlZLOQ641LdWvBNxaUJ3M4B3KVmS8jmVHvWdFboxMq11kH3EcATFda1HGwODt+UW2j8w9N+hpse8BCdpPhdZTCRaTkS4qtExRSQhPYaJIJp4GCBa69JQqEEmOnws54MSatNPNla9EefNczPPQC6YB37u63jtafWShv2MDtm19cmbar6xP6r1X9jL//jT2z0pZZ9uPVNm/8/kPquDttxatoOlz+3lbTf1qY7LbmJZiDsRHDqKf1opQ0QS/14FejRmmI3Loqg27V/C+QB8nbtVgNPhzKcwMdWBmbttf537a+5f2XfKH3Prkzssfnzw+bOMjatOVNRScHzOmOUkiEXD9Kxt2TuXBNj8UJBUzyCcn30r3lCTX6qeLXJ9Zkt89M82/qfcQsFObK7gxOf58vCWtxQKJpmyndqUe21bD1voIlIJVsiiZjh8yOuoelB0/BorlJh7OC5iSjyPuDCiiq8AM4aEoDglau7bObeScx+whbfnrK7taO25tstA4OWsMNWC5+2gI+hsbbKKsjysQ2Wn1hpsGZZL+lrIHMCWmUbEK8w3UHk72tZrmI2g1aRKAHcL2xO2EqhqYOqlbu2rNS7aqF/y8rtwiJbeDLcCP9WW90kKViK6iGKF1hEtk77gnB6fCe8O0CAwqUkL9H2AcY7xbhAEVo+mq6VLN1CcJoLrKKtpHpxpY74xw/s+OPTwihO60JBDJpxCKSubhlJEKVUSnPDZEJHuHsSjSU1LMlPqZisRhlfLMrg3NM7MJrkIGh9gSwBrSGxjS+/mVr9Jnj0A6L1x9z/oGnzo6O2to8c4K0V+5eV37ezd1611gW0/M2yjRx5ZPtB8Siq1fqGbL2jAx8HuQwqptmaE+sHgmmpp6yHG+M2grHUmv0E25TxJPje9k2SQnwoeFyp6WI+aZ8WL9lP137Nbnwf7v1YqbFQBHRvh5kEvbAD+jS1Q6apSdOCBKHo5TPBWWvZwixMxNfn7zdJjelXM9xyFarOFVhKiikXWvzsTp9WqujQIDfJ+0GYpQILmml2kVcvKR5Y903Qwi78DpEwl/lrzkt4bgUNipqKz7qDVj8CQG5is6Q6SWi3oofgWClZMqcloY/Nrs6a3SKBuJVYvdZh14desHPDr9t7z163tXP9ptlZrUbfs/26vZA9hBb8WFqHkaCecqflgorKM5Utbse60Ng4YT0PvSrQaz4PyJWVQQ69mXW3LaOjTSuj1UW90xY/GrbFP9lmy/+4x8K7MOIB9KcwaAIG7cPtgGyQqnktwnuBPibQ2AElKzWrDjetsu2ZNS8B8X5Uwz//EuWiT3x73DImWoQ+tDqo+UckEVrhTdgLKkiMIA3S2xxf83wrkHJ0YBqfc3xpTlBwWl+KpviisLSLwWndapVmtKxzqRKl6LU+y21YMZJa8pfo8TdL1pJGJJt8h9RpotnEpK6DAD7qtM8fHbLm/JCVdpIN/R54+MS0bXfXrT1dAFK1MK8y/2bW6MMVHSFw4f+0pldr1QowcbGHMXwN836FQWm7FT7ZKUsiufAIwjOYetFmm1vtlt+Dzg+57z2URbMeQCotGFHQLxBAqw0ayBJVmo1rjB+hTBdKln2aWuNasNZ9slYVw9DSIDCvGqMK2Vr1yE/QRB6oQj/O2ul9W4ZkMHOZO/7ETZO1vC8T/I8ka4et2A8U+W20VRCE6Bzmkea4t2wXbkJLPu9C2SUGdBtXooATViy0lS35ax2W/DcblhCts++2WesHm5behSFE1gJ4lXwVLfwbLev69pqNVBcQ6LJtzzdsZ3LDvkQG1gFDf+RetV9sfsfu3x21ru3rNtEzY+tI+slnI+beAR3gL7VUvu1gE4ElloFm7AlajHWVDtVt286nVmuWbWmjx/xjAC/jKs4i3c/oW+hI1T1tF9gr4aA0aKpqPlo75nBlKuLbAuMSGtLiD9xDrOPcgJ/wyVoICVZJiFmGMFViQTB55jC6MgwDJvl9mLWyKSdIQutKJsIEwwP6iBngRzUafgkxWjw8DRGdhVUP05FW0CBELcpLAdkBf+e2d1r4LWdfPnrOvn74B9b3d1fN/yF+81tlK06gzSQERsbnh8o23D5jL4Yr9lv2ffub9qf2m/a2veDu2oC/hdsEVz8CY34IxWHTJkl594IilDDYZ2sR4bTvbdibh35uJ098YJXjqJtGq0SomVqel219k0A530G+rwCLVmn+TFmk/LUmV7NGXA6g7bZaKxddxUUs8F0C2PcaVvxg3cJfoK5/WrfiT7l2C+bzfPrrKNAR4hRwLNPyWgJ+gWUWWv3Cjy/vgBlaLX4S8xGTGLDWndoYqp5MYmYVK40gMdVnyf4cQSSuq9WyUAaQacZBBbQMghBCUMDhY0Kg02K6x40JYt0QrhnzwWflb6D1/3mw9v81t/RvoUX7W/YMTVxIeq1SoD0ghfl81N6zL9sPw39qt5Mxq0w0rPrmurX3tAAjbbaUTYBc5PehRWXF/jrudoGM76kNDsCE/U1LCLyul6QCU+/r2rTh8Tnrw6XYr9bWHsjNH+fzfhiv+sirMA3tzzUNtA2NRUtj2bRTAsAna6fPOkN7DG9I9zWhK5QiV9nKGXDRwA3UeRHMI2t5rPRfFiH7HXznKBo7h88EFhUyqxswQ3k1BCZTVcv3Q4ySjacwRPsUtHkOhmudgyBZ3EOs1X+aPmnSXkdm6TdLlv8uukI+XyKqhlU05+XMjr1y0U6U3rXNMG7nWq/Z9OVt1rdn3U50n7M97hbp7Qn7dOGANe5028CRVdvTdcVGwyyWuNduNw9Y7RoO40qnla7hIwlEpW9v2Mmx84ymCfSdtCerA0C7Dqt2PLO2dAPk9IywvEjWWbVbtb326AJKc0maLftHc8sIYgjr3cavijXIR+vfIva/JU3leyUaCpwNsji5UAJ/2M1Yr3Af6MjVlRpuwlhNnWtVSLdLSn/z9OkSUKh7D5lFSvRUkcPhDwlg2pFokwQl1SoxA1X9tffVj0lsNK4lPbcRhJi6wkurLur6AsL5GGYrfA+1N+kLHJmnmY2/0bDf7/8/7e8v/O+2L12ys+WXbOYv9gAN8cnDvYx3wD6+9IrV/7jPGv+Cbl4v2W+M/di+4d61++6A3frsuLV+SsbVAhFAh59CwBMblnZsMbDcukPd2ttWrKM6TwbYIqTUbZzc/ZjdsX24mjxt2kLHHmvWcTUkCO2v163z5JZ1Hpq3np0LVhlbs2YfgQ9craWmmk9T9pioMiaG10BEjC9RzQQXHh5ybWETjZ1l2Coi87uCnP1vZ3yDzKf+405b///K1nwfLbxJtHwEoxcyay2jzU/RjkdIDwlld4nZSDCTZLWsSlETjJsKX4JXS6cY9JfxQyfQiH34Ve0Ov0ln52D4ZYjBl60+Tu1+2GEPBo/ZhWSnzaFlcTXhJ6k9emfILpw7bLV38PN3sAxobUx32L1il10PU7ZMiAtdCqb4uAkErb24uKzB7pqNQUyXEIXqbtkwch7BQLt5gYRgzAaxY5U7PHip0rNBKptbC5OuEZw3ZmBGq8O6/KZ1aU+Cw2+DIjIsNBeSIGHJlCXFlTmYfw0xkoUVQEqtsnRxCoLvQS4uVuMZPz8umSqC4pfrBGgT4R2MQtlj+0ptVQPV6plQYlBALhQMR/38O60LK4BmwocBwO3GeC+jsoIlwp0/rJj7CDBM32EA6EVEzv4yLv2vrNixHedspjFuV87tsvBnqMgqhBJDY+eaNcYFtbpo49ve+n9j0wYnF0kEc9vY6rHGMp5tk+i/klh1sm6HRj+zF90vbQXmXcxP2d1bY5a3t1vHthXrQ4NHbM4G4hRSbmukXnOIYmZru61eHrbwOX3wv3vL2b4D59E5bzevv2jZTyuWaNUibtqTFRZXscyLML55HS0G59JigBGuwL/jcrK4alyzmton3YVAU5ekK3/vdL5I+jsLFHrcRlRlkFoCRIoryBXQ3IKMJMyQBqtQok1wWhGjRR9a7IygkgOpVV5NrP0UaOEYMYBU0RG8siv4n2uoZbGAsCCI/N3lDVtf7rCHm9ts9tKEhU/g/BOke4NnzmFyVxEG/Sto4jfwUC2rLea2tNhtW5Uu6x9Ysf7eZ9Zo7wRq1q2rr267K1dJpKbRzi67UTtua+/D+OUyyUvFKl2aEe4mEx8hcI7ZhusHG2NFSbdtXiGYvUNGeHMLrNxmo1MzQM92m7sN9PwZbuEGGJ+kJi7Uk89dhLl8CHGbqDSGN2ylQKw4S3w6DNdSSK3aCWRohft7pz2qEu9Tgt7E2TbQPPleLaRT7RGcygfyaZjKK9U5CFpB3sPvQCoVOMIasRKf1NRkZAdaTqBoKSh+TobWVIfYYDxXAQbrLIMCjKrUcZrgILcA4nCgD+0/0DS7w5f6SSxB6wf60ZAuIFxSwuVVLNvssi1Qv3Y39nSvkzfoFJAS8nnJ7kpgP6TNWcx6ydvmYqetPey11dsDtnRn0JYeD9niU9zG3Q7LLyJQlVtBAgXpbrqrapuE/8ZnfSQO0KPqoPIoWZVWbmp7VaxSjeGS+i3ZiZtiHGmtD4HRp3bJ4BI8UCLYmTNQvoR7lunCMIzCkSzq3ABtpY9L1+UC4JeEFSv9m3zQ1qrtfL+XYMfgtZxJ+yG0T9u+Bcj+Tey7D83+1x3m/oTnNNHHVypFKguMk3nk8cBWgiEvrEPrH+QRJNDS1JblO9vA31iL0tHttI+LcKAZzXtxxYqjmQ0RgHqVxYESAnnw4+mdtvHvuqz8J4myUku01peMUxupVZcO2n2jLbZdvJPyKsiquKQprfDNYKWvYakhwyUg4B/zPChBJUTtffOabVBWJkYchJFf4foxrn3AwH4G5cQpwhxMRYG0ODrT4me8kNaXR5+sFS+aXPJIoIoEAPhCFvK72ljS2gCOaaOF5kFeoIOTBgZ11kTK4Rc0sEUHfwmt/AM0Ek0oMDn/EzpU3aHB71oihWGoqB/n/5FpIq8BiolLTsf4rJrBDl4kNck46e4oloJ1lHIC6kV87VX61hEqrzsbeXnNqtU1W13tsK3lTmuchSk/QF9+ArO1m74C4VrEogK36iD8aCuBUuQ4da4NJfTr44LDDWud6MTiEOgHtH8OHoFyWmRwWkAC2+Mcm5YzuddRwm+hw0cx9P/A9X9FWvxx7bk1Sot0/kCWirkbMLtqiQriDDwu15HL4BnlA/GwHM2gNnIrlTHJXnwUwBoLtOJkYRUG3zjPze9y813U4yTtvMln3JbpTISLELLIALTyAtnmSiMVFBMYLmgjX8a7G0QI2qG5H3K+kdvA1+atb3jZZmvbbPUWHLgPs5QFbdAnhJGbMFCeF+Pu4R9vY1CzLfMqdj/j9w3cAmRoCIH+3QqWFBffcaUfZvYjbD6GAOjvxAJ3b4LlO3Fh+NnPeegyY9Zm6rhUHEuEP/4omvYqbUgJiAmuCs0fgZZ+4i27w/iU7am/uGS0DHPdQsBxRTyrOXw/QYPcp9V7DnMOMQPjAildMkAHx4FBJ2DAQZo5nlv76Jqtv9dn9g6o4QoWgClGxmrTxFOYNsc1oQAsOlqBNED0akZWhXkSlrj7pR1kcRz/93pu/X9n097c8x/suDtvb4e/ap//4LA1f0aAUllwB8yoIH2Zs3bHa//BFWi5W8OXg6uhP94nDdWqccWH2zAcs7UCB1rqNEdW6knXZTFx7Z00CWFF/66JxhtcmwVy5TU0UTdp/Rg3fKfDSr8D6ShDoQM27jCw29Byi7Z1VoQqPXHaW7t5JhU2+QV+ppp/n+L1Kp2+BEG76UTmKx+uHwKVYluhA3fwmdqy1DZRt+rQCo5d9+PLwI6q+PslXtpmRDaXaEajjtBUKZL/G8ASYLRr4j5UCNIqbPrX/oPndWXVaZs25W7aYbtmfaRFCf7crvIcaMc3EICCpk7zEHrRmoSLvBBSDIyaeESzbAIJ9uCW0B+s9fk4VGCvFjoEigFDi7bWCgCobqICDQlBnEVAaDolRYcnuYgEwMVYXJiABhQqDNKOtlZdhvBbkK+zICJjhU9VoJDENCz/t0/bZq95jw/F30mqQfhSP2ia4Qbi6hR97iGqakpjBm0DUTQ1fYJLaQhKaampdjMC6k1BSIsydEYCEnZa4T3M9zsQntZDCJgrk1MScIh7X2akYzBbtYlnhNdxuLErsU1Qyqf1N2z+c8zhAe4F/OsA7p7MsBiB+Nfpby/9lOgHCOn6iBEHYAzZZL7MGK6mVlwhDuAi5Ap0SIZ1gjp4TEuOdB6aIVyv6Rr5eZREi+i09kIxwhpVmNYJk9ss6cU1HUK5dkIjKESlSh1Lo/1sti5t1VZeFbZ1Vhod2D87Q0j7g9Myi5BVSGsJYlqKT+6sfWQOyWvlifYtqPbgVCy5x7tyaTSoUMFdKbMq+bIeRUmdZXCU9nRKxw2Yfg3VbfJ5GIZpPqoXExNB8rPa6fP1xNq+TYRuo+/79P1py1I+r0z22szwpD19MG5NNDKZR/hke8XHPP8UFwWu3vHtaza8b82W2jCJpdLzFYYEwRJwL9fW1U8Yw9pVfG23ebC4P4WPBOno7LegHUzyv0NovJY0aTnAfjRRJVptJUXZnIJPC4HloJ4hFGA3gsA1xpNNtCNegR0Fcgsq2tyjM9WxMQV+M/u/znhFfnQGrcujVgZNRKLhHrMtgyJ8lZQWl5GO8FlHmxDcAt/ld7gJJufXaUdJBlrgdLCOTmIa4TWOdLReTEvUiRw63qSsNLkdJmgNMHaqGnL5qLPhV6et9NKqFdIgBNjE1y9farMH93fa5hLt9CPAKcYstLG+YflTEh4CT3vatMHqjPUMNcyrmidt3kmAPU7MFoxMhPWgU7CkCsjURpgKQpLqCpbBG1eC5vaylXXcyhAuaYix9qJoWJignI8nkjAErFfLF3KtcNSseILCDQhok2QlYqj8DMLQdERcaMazOBB8A61UCQaiQ+clfEzuDLRqAKXys2jVDWCQJu+0hF+JgJzkJqaCZrqP+E0nz8nUBK/KPEsOnq9BuVLhMupdfs5oBWsNSkYT45pWwPTWQURrVh6GMDTHqfomv15HQ1ZwQ/i39pfxff8JweUV+q5CeAOQ/zC1uelDduHJYVs5227F+RK8pO3jNRv93Xvm/xBtel1VF6QS+vCpwbZ0PoO0VsLtQIloTu4hzDM2KQ2oQEupMxBSLDRBY66NMnJdWhZbQ/vFHx2+ocDH0KyXtvpoX0VtO4rOHjPnND8k5oIrshQM1g3HkYy7Q2Of0Nh7uIR3YMPPSS0uwzQ5fEk7HpkiqvBrsXjesiLux0JzNQvLdafZiAWiO9IsdULBEC6BwcR9CPFIKXXNE/jUdvxlPyPu26bjUbjIQMI2CQvTJjZ09C/b7tEbtvvYrJWVVo/yEoZ60LC1X1Rs6ycDlrxHu1frCJWxHmjZd9z37egrl83egpxB+tdJKAp2ZGQ2w73wQ5shxdwYmJ5Cr2JRIAQJQ2M98RgtJU19WJgCvTZ8YwDuLte0h43kItWCwyFclFbydIJCqj0W2vRivPx4a+eX/bBhkge1h+oRZnObh6ZR6lUGiQm0CFReDl5RWszVkiBNUCKM6MM1Z6XjA7ReVxog5pVpqxvN19ZSkJ44GgOL2tQuH2VVpLvrKzV72tprNa0y1CI+nTqCEtsm94Jb66tkajmm6zefT0FtJ8jgv13SFg8qEiLJBaW0MG6c4VTl/1atKyUIDMLtAZjbRgygSacFJbx7aIsp+6/WHkjB5b60rEBLSDXpqoUn8q3CubJ0JSQIRfqtqR2rAUm1lEnCgJeF9qRp7QaM9tChn8QOnj5tLxNw8JNam+qkhcswk6/i4get/eKBuAJQewgUYbVYJOF3TXGDz3S2gbZKOdV0VefcThv9IAqhCGmMSnWamRWWU0IS58t5xzwDfn251W9b1zowOe7ROQeMJx5sxL1FqwLMBpBtdVt2D/eizdiaUjrA99q810efQgFYojuOYU8522wfsMtPXrDsJ6TxF9BaMU6zwgS8gHuKwtOyAC0X1ayEdu4IIQnGaY/wbb57Qj8Nni2hzZBbaOEeyhJnnatcl3ZLsQQTVXoVYNBGR62M1G7S6TNnnP31EJLXUG0k0XqXTn5OJ/InBCdtWBN8UT0gpn46A0b7yha5Zwv/owbly3mPMEyLJX4XYr5DJ5hv64f40O/zjOrB8vHaes+vAtyKMzqpqVCWpfYx9RSGx62xRGntkhdPMjCrDo2zLiI4g3f4PdWRMsJEG4PJSWO1s77SW5AzwLiiaSUCbuNT7vsRekDsiEwB8cS1tDoIQzUFYep99KPN3D3wGncR9zXfp43r3DMHIsJNBJ0gpToI6bjbwwsXEZdRqU6t5Qeqa0tZ6ELJS7EdtYS+/M919NUaA8KcM2mtJJAxCEcaKTMYBAUo48KynDIutE9bNbXLRdtRxdRiBZ+7AJzRSpz5pmVPRCT5uZb1S2Ol1RW0WYUgflUmCYui5sSNgQLsZFD+gTY9M5hn4FBhZgB9PDuXYKokoQRmtTm+/1VA3CLggvJ0JEuBsJqbuCC0PjwAbVyBITr0Ah/vRrDCEX6XueqsBrC21l+4HbQnTdNu+wUUQcvzNX1FcuJ1cKaUARcYNyByWSeihk2Yt06bfI5LtuQneLm4+o5xau8HACWX/+Yn7lp3mJigkr/Ig/MEFmCSH2u37EUGL/+qI0riwUA0BrPEpLg0/iKfF1ZwIRUEJ42CYSdhwNf5bgLBaDHbLa4JEcnH81JCqOBRiEDha/yZUxKgAcB4veKBx1ofq+AHNNKpnzoHLG+nY/m/MjQxnvjSZy3C0ASqVB3TKJHb64ybuI4WhVHVS1PiDi1vVZS1YV1ocEsaOMvz0ax5lyXSDIRFF6iZ8KgQNK9VSBKGqaKWw1Du1/oLHXQX94dIKLg4nVJCj6TG2hOhgws6QAtt+MhY8UKFdQjOHgLJy9yI/9A2/7jKRbMUuIkqA2y+R8P/kS827gty0P8wEKQjLpK2Y3Qsv0gASxik+KY9xWKMcnctb4/EYAwBhui0JrmXX1WvlI46FeP5VYs/nA6mUL1C1SYtBfAIkO+kOCohFJp91QX8fdxXpjSb8UmbMPy4oEVBq9CJzj0IFTgZl9z+lCZ+iJXdw1I7CYz9fDdIckRwjwuYuUW0xtOXoE315igArSMTPQrUsjwyxhz/60mMMizo+dGxOt3MEXn5rGVDCc4bpI+EyvFsAecZIHAknueo9apa7DuDxBcwJeX2KqjTQ+HHIBjfMcn3+J24eU4mwi258nkFj4oGBQG84gpsnbGgMwxgelKC8CpEqQSoF3BDu9JdwNXoME5BQC5Li6IvFmNkDbgFzZiY1lDIByrAEL21a960qp2vWlq0p7VsYNdYUZXL0Tk1V3jHHeYq+G8HIU2gjeMwFsHIIrSDtFCM0UJoCV1nWWpmHFdVAEt1ypMKUoH31hz3ci1b4wL+Pp4qzY/zbc1QkNUkVbRDN8tsYUQQrgOq6EROry2pmGrc9wqskYuRTwz3eSn6j9Eg0VoHRGpDtZO/hqlxyTxaGE9XwpxizVbtgyoK7aZUVifNhRbuiC4hUQJyk3vmGmgfKWWyz9wuBr8DAch/qwCkTE2bY5Ry42KcEoE6DR8kkfgKGvc1fhc0BCkY6br2j9kkga6/TDzg9zsIaB4F6UaZpETokzLhJv41ITBrf3M0YLkvNNHXoTeu5qRNCUgWAHzVEv1YQbuNpIslDGUYVAEU0ZqOZx5XrMyIVFHnB6hYrQUTbjsPoV1CAzoLVyc6OzWuEuRVfr+KpLQwQj4YM0r28bx2Pr6Gf9wP4UNoQQXG0oc0jqeiYOQadDqoahKxposQJUi9VJ+XMOV24pS11E62rbVltBPPzGnjmg550yGevCnIxHWxDNqR0Wlbf9HTshLjSLWapsYAYKR7zM3ad6w5xCt8fq9uxafAFTIzbffXWT7ZCb47jKXprB0B9ScwX0WnWdrRWmOCpselOR1Vs8n3z7yVdHjRYg1NlcncgySkXWpYhTHqx+tgNPm7lpw6BGhSsnjGQ0RenQ+mXYf2UNPtNfMzSGiWASr9UylR5in4gy/NSkodNRWdW8Z3msyMeyWU2eldwvhiniwGLtUbaCrH5GOFTD5TexV0sqiKJ3GpkbjEfVyKprnFNQF3wT8eEfMjClGhfZxGlRQseWtdQPg6c3cLAQuryweSMdZVF1jm/q2KJVnZkgWaYCzZ09xKOX6XVDsZFx2iETdJEzqbMRaEhqCNC05aB0SLSxSWBJjB0tzgImCGmTVnDUFVflxyArwi00WQKi6HeIIdn3vRQIFh+Zc5vgRbOVXtHYEudPGOKgmGEHC03LI4kUXIIyE6BhGAN7E0B6MdplzoIKIR7lNAkoapf6WT8qdwz32xfsv3IdxrXLoIQ7SSR+eGqYCiAomCohCDBIGg5AflKuImkSGYS6TVDli5+ygQCVEfiA0pilDw0my2m6Z/IprrIHDTp4Ff/SmG+Dr98Ez4Ma+fYg2bCG0b72BdI2tLQT4tZW5CBEqWpJiwTyf1x3IuVu5DHfJq2OoAYYxwGw8eVsCKZ2Nx1yLmhAanWpewTm9K8sNdGPoIxi7yoCKcVp2j0TSsQo1mSLW0UoVm7WKP579gjlooXCzQBuab479CToCSTWtSLuV3Pj+fAeJ5+XISi4SEJRa8td5LqSm3x9WTwo9CEnpHswRT9L2E1j6FJjLY5irtXYDe2zSKhpcQjhCFXJuWaQmJqHiuTRIqP4Y5GAGtRbNhnn7LmtJ/vig9OmLflsa1wTrYI9uOYgj3y6eKmV9oqJKtirZagaaenyQtU4U260V1NI0T91VucEEPSNW78IMA+ibm0hQTHnNNo6f1eGKvCjNogExlkgHsZfAkGNksBJDpCGPKhH0GcyHUHcYnA9Fag014WiYmESj4T3+LQQgrR0g6GiVObCkYyc/JVeEyHNljPIJbM6UZ/eHP46l+mGsh/xvTWX2H25A/JDWVBje7hDoIRkrndSIT2q7zcT1CyKR1MDmilwl4/XXc2dehJW9Y6ydVCz9rkQqDW1XApy2npfxyERUgq5ap6nAOlC6kncDE1NJOEjHNB9bFWHF+rybDn2E4yuE2YR6ixp88p5acT3rPmOLqNJ13U+JdEVZHtAjeCJpJFiQacWchLiKe+qwlPmQzIU7bYCbtPPOVivk3+R7fmGQlyxWwtPCaQKfAp8qaJzHRzEWcSARCaKNLgTlG94JGOuiL5gxdOvXDjvOs5C3k8kj+l3vRYtVlhWLiTDUWKTShfR46SF7HvggyPl8PwbMD0EHG6Y9gUVoO2mhY/gHMPYebuwCCuocv0fLStpKFoyjVEe6/RDsX11A6cbMf9DcUszqd9K91XjrqNQAlyOL0tyBk6kswQo5Mc0arDABnqzVLitjSPBW/94AMdskMecnXYm8yBPk/TZHnj7ldPrfWiMmTA884zSkRLByapUOZdDyUAkTcEKeC0G6ukZbGZGGT1rTTfR7igWmqDUtAEXrJmWhFog7zKoSRsnh+moxJe211UrRyfVp/jrd1FhlqE5QeK2mRb+dHuqNjurw2IZIsJCQ9qZitbbQRP6MESpul2UI48UgneESuLbSgP8tQUq1Cf4gkapZc5uZzxmpmInJE5qBPcQ0kF5//wQQuYQPxzABNKkGB0rEvNmLEo03xM/ky156hQRlmER0mXEsYFs+FEhG6E1cgLVndgNAVJIv9jfRZeiK1bBf3oz0pg4mr3aXBWsis5aragkHKrLO7tOUq4XKhegF+Mq5NE6O1lSBUERBcVTUMd6F9GK6+RXvt5o6jdQSmWI+9D5N0gp/akKXRlRunbf09Hp2I/8WaY08KrdOlAz7TabofeB10gMVd8LUOc2uKgSjXIIzf3oxzcNaAB3V4pd08sM3pb2XEL6SgYvI4UUTV3+gKuDE6OYFaGgpACz/yHOZgCuU95EwEKn8BTdBuFrT8+YScxM39wBD9nZ282m0e7Y41zqtoWus22id/ToRq6wJdiUCwsmQnZws004n7OQyMNVTVhMnoHN/JaRWCXUpg5Ivl86StMEmlybBB+xkjQymCsgkAbnKYCKckQugAiBVPBcE9xGNhNnBJZGG5FpwQLMUKWuZGPsWpHwQmF/CEMeuw+gaCSPHa0FLg5uKxB7g5N9yDALGc44m17m5Zcqlq+XW+b/KMzdCmeLJfSS/QKoZAIkQ8QV6hspdroHruTwD42kARl1Aq6BAsPKoUD9uRtntegF4fGQ2KEDeUNn9RwAiaso1F3VnwJf73PqZ6E1x5HUF9DgPPk4KeR9JkUh4mK8ePc2+Sl1y/XgLl+tsSWiI1hG/ETyrJSLMv3ESsnAAVcT/x6FnweqG/koU2prgfHeOqZQKCoV7FWeSQ61ydWYT+EGZqKehnWN4HfP8hjL1JEBfykUtQGq5SZVlHW6GV7qK5jQ1LiD0t7fjZ3QE9fC9PgK7qBxv/4r2zCKm8gC6h2q4l94DEGF2sVqkSREDSvthCZxUQdY1U0+GgYDn3iokMPJoCncTFDtynyUHchrMH3Ie2ugNWdKJ6nQwCLYmrUpQYKG2VzXf2kUKjsVPQojYx9wQPEPN7rFKzBHJBEoC0ScaVYB0ttNMv65jAX/JCOVLS5anu50nFMH0p+D4jOVBMUDyIBzBDr2oeSv1iNGVMMUlh/IXGLuZIKRQ5oBmBPP97PwuMhwytdMTCy4zpFHeSyXllgToRRZU4IA//MiatuHmRkagKrwovA3Fy/iqnweMUsJ+pQJEjZQ9lOq0SR66Z0QjSoTH6GaWFkShFShE1HwkRw58b324g015zR/CHEu59rsd1E0qRnvIMEbp8wOytHiARYQL4o2wxZoHxHY2eo/2naPda03JZ01Hw54v4cCUs765YWv8h1iV0chBad5OCd1mhs3oPqfwIofKdWqhyiyEwRv0JHClQ/GNFSoZwi0WkXesOxB4tCOEZGCyaHSCcFIL4IQHsidrq9beMUICoBAJasFABVkMsnmg3Dx900r0AeNzPqqMBtVijj+SAa4XAfjR3+WPe25Eg0V3nbnn9haVe/BfAX6uv46JfK/OSBovofj7rDybRkCCcTiMFpKc5UsbECtAE3gwZcS9gXXUD1V51VoL+0JBq+TGqVRFRlQErYQGOxSVH0mB60Cmo8s1ZRP7yITCnwAeD3XWmb4ScDZgHnNRfYDHozTtrlgHb8hJaRtoeUiCeSm3SYkwixEo5ftUJ7/MxZqZ1+pbFwWw1ugRCuAoFWqGjsqSGLEUXCRI+P/BjM7gRoixxIFbuNRGJsgWypwjK5zGvVUxXxzjjvNyejhjgtK3IzyQxEMmt6s9yJQ060WRgCSapDUzNI5Qc/+33oElfokdMx/8CF7SIr/QKRrQJb8Mu7Pwol+QWBO0wFGVlMbHQj4KwJk5X6ohOzAZxjDJQMjUtzC5i8SRHB7Xqm+yrArCP63u5Kga1+E7uTlP8pMpCNorfKVaeQ1P8m26KuxKcXqpHYL1OCxEV7AWWoxvEz8u3cgsenevbcJ8oi+byFH70TEyJtZBK57VWR58v6Xx+4vBzbVGJUMsvISCHeJ2t7TrBLV9SpgWtjCXRRjf9jQeV6OQedPDOFBonJABS8b/key1WA+P6Y2R0gP6cxCO8z71PV2FE2fLt7UR4nkdZYrVMR2jhBrTcSn+3wWnDsgKRSNOagXlcClCgQHtCLASgFbIMPVtG+zLu17YBDc1J2DwIo2MlDa+WvIFo3kARdjatobNtFMimuV2uUDqkQK+XNF7GqmKWzlaThGCwj9sncZORk1ih7cICUJBBIKpO9stUV5CUhrC7ckcsfojPsdojMCwVR5HkJrTxL65xRd8FaXWGC2gjFlV0FKsq8SFOOOJaaDPF3BJNp4/RmQ64kOPRn53RCU4axAy/a5LQkVrrrNU+GN5HsFSdFmvQMdsJFuGfwqBlCJGyEPXzITqnXW044enoD7UN1isFA7HEU/h7aU/4V1NTFaxH0/MLMA/tTMnyFCTzEnRprYFWNSr2aokAilC05cBICYM+CJQy72hROu1EbZZpJ7TRK8LE1ckFOtdtLY9FqsQKBna4Nqe5nxjgeT55PQv6I3DyZzrpQjAlztSOIF3QWa7Z3s8ZyDP8Iw7OycnpUGLB4QbQKtYjGCp+JeivX+yHMZi3CNSJpcntZRAc0EZ7ETpgGP/HIjRPxtrsYOl5P0IIMkdFbr6PsUVzWJNo136uM0h3n0GQ6hZaja76Q1wLANNUByExSdDeTAhSyYmSCE041qTFWFdFMA7N+ipjeIt7wLoZUFB/NyjuoRPGlWJJ6dQ36bN26egPIMX6g9b3zkOLilQSr+ICrEgmcI17Ni3pQRJXAABao6zDLazs/n+PJO5RPGl1pwAAAABJRU5ErkJggg==;" vertex="1" parent="mVMNMaw9jNS7bV4Ns5Lu-231">
          <mxGeometry x="113.19191176470599" y="145.55805147058823" width="87" height="86" as="geometry" />
        </mxCell>
        <mxCell id="mVMNMaw9jNS7bV4Ns5Lu-209" value="" style="shape=image;verticalLabelPosition=bottom;labelBackgroundColor=default;verticalAlign=top;aspect=fixed;imageAspect=0;image=data:image/png,iVBORw0KGgoAAAANSUhEUgAAAFoAAABWCAYAAABPaoF5AAAAAXNSR0IArs4c6QAAAARnQU1BAACxjwv8YQUAAAAJcEhZcwAADsMAAA7DAcdvqGQAADOySURBVHhe7Z1Zk2XHcd/z3Nt7T/d0z75gBoOFC0gQCwlCpBRaLEXYWiJsh+0neXnzgz+D/UCFP4nDjnCEXxySJUsMhyVRFkVSpLhAAgkIBDgzGGD2me7pnt7vPf79sk7de7tnSNkvfnKBOXVOnaqszH9lZWXVObfZ9Hu/3Q6Gn4uG/yL6kHlNXvfK5ai87chU88lU69f8AGoPcW3zmW0HXX6UT21r8pn3lUpqYoonDTTsSnxa+LSZV549ao3blWe2r3Vqe3U/2tbktTrUVHGqaVIzeUkDWtmm3n+lAeh/0Q6Hr1HdxoeVKancK0AZjK7jBpDacYfDUfvacVc369mmti2qm9oUaMBdVbamozLYeir/HfdjrkSFp6mN/dFVSdarNA1V2Ux7kP3aZkgN+ddk+ZhvBXqY5fZZ+IyNsyZROoimoWarEdU+vtJgBFa2Exs8jYpSvRRU8t42FbyOGng0Mzye7Yi6UvKo/Llvpmnp/RStKt/KU+pFr6E8aWpE9VmRQaKvUd4RbZLsl36iZxmyJM0fppgDENvDs5G38lWyn0q1X+RC5l4+t6ym8fMxWTZZx9LGURjkmA5hJAgJBEKUMp9Zw7FxompVlLc+LxY2VOGWNlq4Awg1Q1gPGXPLs3PK6Nvu22wjb6oy+i1Atg5A0lTa+KDtQX2Ie3L7yH4Oye9gq7jlPEgZIPo2b9oZaLrL+1CqC5XenWgNbZt2tsgyIvubgjpdu74rtUk8x05LPXP/Ux5JtCbdTUXg70w2dIo5FWQgMzWuIzi2ggagpJ+dyrAVHgJ0hA4l7yetbDLVvh3oLocaLLjRwkeDXJW3z5ofTZZXKs9zEOBzmCpP6AlZf3o6KvkotQx38UESHTf6ZcA2T8G7ziAXG91A+nmsJukpSZ7SWCHSCIxKTwN6gv+hZP0CbgLcgRFY8bi8yjIJdp2bta9JmSZky/7kKW95KWtxeT9dXvXMf/O6ppTCBYXJCgmmFWwM5XU3+l7m1LRDO/K5uZ3rI4tCZYFzMBRWt5QNfXQkdX1ALMlJY+FN9Xkp190YreiKtKpiWTOUFSAiZjEw7nPZsa5uCM2852lJlSf/Zh0ls46Q47NTD/manMHq4KCIUNVD/cREPspa9Ky80yDo09QkftJIqwp0YTxOXpeKpWoZ0UIAkNO13leATMVqDrefTNYdKz2eBR3llOwUSacKn5xJRUml9VmxtHnuJUGiPFl2bUeknJMDWctqPfMJvTJZpuxisgvtcbcF7fAIF5pUoxzrHuVPmcVdYrhlpiM/gAnEQmEHubYkRkUAV+hiSdVVyGyaiKCbriMBS6qh22HAKx1NSqQ1FBdRBK2uSEE6sl76fxcjI4dF8oWkkFjUYoh1pztSJmjkRmw/BkLdUh9nUw5Y6a+Q7a2nrM5ysRFY9HHgE6NCh9vZZpyIm/03r3lij5NgHE2dcGlxh4VNcFOpKthkGgtTUgdU0tE0ydfryk8SpBmuFqAanh2jbBla7O47SsCXOuJ+JFs1Eq8nLY++clbW+/EgZ15nU/LpBjDrdwOYg9jxGdHTEyZkZ8WSJIEx8C8Bt0zGQOkjHYo2QzKfO51tI9mpAsEvR14qm4FRfJvW2FmalGUKJ9faj30KWHEHpVfDJ0OuefReRn9BXuYJgKe1Cwb9NwDcHM/2xW9Lc0nDWIGWaOOA2L/9SiUVP0zSv3ZU1gVl9ql11dN7B63OZOW1hriJxz6zxby446JfrfVTU2VeOzCnyci6vTcXJIFX1C4/ZCm24b4tSo+7ta0KGbsTkjVYqNY42mSwwCVIlgvuKvcnoZXufgkOJ6ETSdGeh05RvkIdrd2+bCv4ylNlst8CWJZNrjUpp6TMHWV9HAOGMd5AWS79n6Wm3/zzdti+gmDFql2tZVCmmR14X/xPXXnLyDliWoerdS1zwWDh0JLTwbsdxZ+yYVCJUl9+Li62cVC0eBWyjsBUpWtSBtutQoImgAICuRO1bmc1xXfiS1vj/S3KN7gu0UMTjzsZd7mWvNYKbaOsHY8sh5y1ZZHiiXWsVeod9sWTfOyHxVKrptxrI6BofwcNc7AETRYyKMzLZFFpgdHiaqIcRd0UFEDspEQsuWAkOWVoQSdOv5LMBUa3oIXhAnKKCx5A5iZDQBfJi4VqrdFgqXEGOtsR9w2gT2PNC8h2BhUuIv0FpD2LXKvwn9JHY9kt7XOGYAqJo/oVQMturg6WutAuw8NuZ5wN1Fq9zDU2ZZTUu/KqJNBSvS8YFoPL2uWigFwb11yGlSZSnV5ZR6vsrKBSTrc6SJWfCnTxLYDqf3ULOcXb44yLoJ6m3jla6A6KSxCsntf63nl89HEUFnuq9s7hvc8z8JeQHopnKYeai/S9CIA9B5T2upP06y6izhr0yfWh88OdQZRTRShniNcai/qZig5Fj67eiGoqWI6TfDp8+z1cx/BViso0LKZeQPLAR99pg3IyJpCm2kGZdmWadIDnKi2IPsPacprLT3+r9aqs9z6Xs6BT1nQRQ7oQwiatUD0TAHgsQxd4NEthn7bTKDGPDEvcL9gn97TJ7u9xeY/ru3B6CCx7WGW7AR9nGw/jIXy5BsRW15KNMIpcvMuMbHJBK2FdbqYywhBogXPGqi9ypm5ave6CuukWi+sovKz/73N55ULQunzk/M0rycyyyVQ7LD6wAlcHaUQZGtX2HT/Bx3cX0LW6S1Q5z8zF6qbx+X39sFOZGFkXtUT7Z6j2PKBdAcDL8PCeZnEZOZ5lQK9Az3LNffMCTaHhJwHieTzsSepj3b3mFFK4kDqoyJCyHdXLdFR/k/rW5LX6SrVuzZ+eWAz/JT7/DS4Fw6kkAOY6E6/dFDgyWoCjBMO0OplqwVoFHXYjXHybvrfws34R0ZkhsJDHl86goT6AqdzH365Qn0ftAZN4C3Bg53UYZp4BkBfJX4T/CoEbAzWYJwQ9BbgncB/HBzEckh/gdzWoO9DHeOHrzLb7zIhb5DeRdZP2W4LzMbSJNbpAbidEZQaq3z5Sa6GdRarXIeNDptGOkMu0dNcpAwEtmkW4WnTDwpiG9ztMigT6C9zI5Emg82iSjj3MLoJQbwR0AXccPSiUjPGluVhaV5+mkBXoRYZAXzwTAyy2mQLEY/hdDLudY1AcU7uCVXbZP4jemX4MXmQJ+gStaLp9GRAv7Mbyxf1YOHU7jk8/QGHW+IPFuLu/EtvvnYnB95D9fRjcpG+ofx22m/RxEyvfs5M7yLWOZBuQR8HVNe4itTp5X2eraQLoFLAk5hf/OjACrQt9OtD9Xu+Vr7TtmaxuKtZXGciw0zqfSD5xytlpTbW1qazOudlgt+aCV8IzSaDdNBgPU77Aju+0INN+CWIsXIemiFjaefpdot8VlGbBixdQ5vlBHLzai5nXHsUzL1yLl4+9Fb/U+/N4o/e9uNJ8FJebG7Ew+yj2VpZizf4fwWOIwaDz0Fk36z2K7zATBg68+uzyr1FTMYcc3YzCKhJjvcdkqtdiI9Dmda2Ch5QeQJy+JtK+ynIxFLxy4C2DOvVbw7R0B3U0ETIXTp+bXAw7xkm29fzBkA1/23otTwF35Tf8AnAXs5MoC5CpXB++fUDp4TasfoIywraWiG76OVq/shsrz23Eyyvfild7345Pt2/Tw+NOmam4ySy5HlfidvtMvDP4Qrx154XYf4v+bvSij6fofQgc61S/ipQ3aHIHcAaPuLhNIZadU0lLLJZc4myv1UnwJgGuSTxs56JZ25l39w1+LN2OrmMEtODpKgBQs8oKk1ZrkrEbD6ORMjBls2HnPnNEtQbDNv20lt0taO0q9+zqiBSaZdrMQPjb3hy24EnYDi5qVvBpv8KzT8Pujd1Y/exWPH/udlyZ+1r8XLwVvzb4i/jUO9dj/hsPIz67EB+/sRjf6X823m4+F+83n4z34vm4NzwfH25djMc32CHemo7mFmLqOgA6fgz9Lfc/QaR1fep9VKXC0I0GfntkoQLdpfRhFXBy3EGZ8YI8CbT6lwHyXl8/zKjr34Jzo+swdtVCu1BKq6WCXjpDyi6Vky7LrSNppfpwp2E3QBlR6DIcDFd33QWW1UCLBPvPsIV1EcNdED4HBh+9Xfy4cs4DMm6ifRY/+mYTF371Wnzp9B/Fr039XvzT+L34Rzf+JFb+w/U4+Hc78fX/3Mb5q2x3PrsZ1y9cig/ik4D9Slxrn40dBrZsNFFXERaR2Rm0gIvYI39MP7vkG/2YxrW0rSuotINuCmJSFwY8Dcl7/rEITMq7Q9exAv5ojYLKLrJeM9ttH3/8O/57JFkk6OYwy21t9kRWysbP6TnJJPBqV/xz2XE5EAINTeFKTjCQ54YxOAVhue1xCN/cXqKPl+DzeQD4In29OYyZl9fj7NzHcXqwFaeGjzD0jZjd2YklcFiG3QuM7fTnBnH/xcvx58Nfib9pPh03Bs/Gje2zsT9cjEW236eP3Y3V02sxfY6t8EXEJyxsXsCkPol4DKa7+gMcUJsHUcb4yqseVa9Kk3rX+0kM/u6Ui+EwkCItsTYW2DKFJpmVf40i3IZiKhbkVrvULbNCYUEhea1Gr38aRQD5FFZ1HiDdRR9DYd2EY7FC24vYyCewhdd5/gYO5+XNOHfuHuPyOGZ7j1knd2K1uRnnp+/HVG8/BidwXp9iOP/1qfiP5/9+/Kf4Z/G3O6/F7VuXY29tNqaOH8Qp3MFS8zh6U/Cd6cfOFHosMMUXMZ5eP2CrpyD8A/CBOm5Ano9wneFbBVXqDC2vtWQNyc0d8uYaAY/EoFsMu+tq8S6GuI5Xv9ICdLqDDEUcUTuuNE52U57rLqAUqApR2+Zcpa5Wcjz9c2+ZXaYA6xbOMvkwHr9I8DAvTzZfQlSsefaNtXj20sdx+dgHcbp3DU7bTOipdEyLxBHHZ3aif3IY82yzd764HF997ovxX/b/TXzrm2/G4w9OxsEDFNvrx+zJ7VidvccwrxXP2Ue2eTScw3fOzUZfPTeQ5SGe9g5a6Uboqyx+XptPJgETTI3Ke/x++lR3kAJZDVN3Ue8l25kLdAj0MzQQPH0wMXDmkkDbsKSyAEwCDaNs59msAAuup2wn2IURwk1RdhyQKRrqjxdpL8D44lz43K9cYhl2V0f4duHsjXiJler5eJdHj2JzcC5uNGfi4fBkfNQ7Hdeai/H92Zfj+8dfiq+vvBa/G/84/vLal2PrG0vRJ4poHgAAoA1WDmJ5dTtmsOjHzLA9FoOdA2YUlntwMBuDh1Mx/AhLJBLpfYyF5iZGE3dB9ForPWps1cK999qkBZtsU5IxuO8KhTctOysY3jX/qh20X+RewARRn1qayyDfkZVmJKE2ojAmFljr2U534f0xSjxdO8Yi13fDlwteD5ZabzvLZJqG13nKllDwecpe4P7KIBYurceLK28H8QP0DhN5Ib7V/r343uPXYuv+Mqs3S2uzHXM9lh7CwNmDnbjzwdkY/DWD9DcoNIvyUyh4GiB+8SDOf/5OLM/dia12OdbWl2NzA9kYhOFjjOJ95P4m1v1NZPweZZsshMThrecguSq76ahgqqW4CGahsviJicetgmobcXKzI6894naiEcM76+UxqRdOiUxl9Az1ynHg+BVQHqxQ3bcrpZqj6dqLot3i55FnxtAz+C7i4OEpxALsgwVEA+CWFT42acyGwTc07SLCeCiEK5nlubxOI/DJ9mGsDu8B7nTs3Z+Lg/eYBn8xF1t/tBL3/nA1Hv7+Stz9vbPR/jG+/S3EEZ+7iHAPidYQ7eEwtndm4TQdm1jw3tZi9DZZpLeQcx1tCPN6j9FnB7kOBI5F2kOkkRsogKqfupc3SjxJ/esAAC7lhnN+vVTWp/ImqGU3nG0z7HWQfOJ1MraD0omjVK5NMqCyLsKYKakwNRQchXHEyS27vuE0nWCt7vRaDZ/qPTps9rlHsZEnwipjGT5nB7Fy7kFcXPgxDuyDOBUfxfFmi/VyAP4bMb+wlYoO7jEwb9H4fzFgX+X+j+DB/cGjg8hNHoPbMlhDLD4Omtjd6cc2o7yxPh+7D+ZicJv+2ZuEITODMmAhxOyQQz0FwZmpBXltGX3lQvc0N1IHRKqpPrN9wTOh7cr5tzCtsaBvSMq+3aBb07eill3dBXkGqY6Ux6HFZbi1jhk0JiLw6LcVSGN5Ytb2AX084DoXHXzpNMLrbY6xcK1uxoX5W/Hq8J14ffjjODNYYy5txTSx7cW4Fp86/XaceZPNyRfg+UnkuEzPpxlMN5ls3+NFAHqd+5cYeN3QOfpYQrbeTOzsLMfBGr4LkHvuBm8wa67xyA3MFnrNUC/rlrUprSINi6QVt4SFupH2CBkEOLNH4E6kLgop8fQ4dUBPkiMp6AV4bqBivWWhFCFBthMF05wAmyk1vYpCvtRYwAnYVKAfYc1MZUOp2COHnaFdb0ZiI7i4z077J/GZ3tvxid67cbx/O5jNed5xjo315+Pb8dLSW3HqM4D9EopfYnqyDAw97bwAb2PiNxjMzzJpn0dBQsgeg7BP+8EWoLkbvMtzrDhuAd6tg9i/g6YEGXoBTwPEtuilVauvSQUETWNzoaykL64WPZkmMbRtfV7yMiSt/rH4G1M6cu6LW9A/1R2j1EUY3dvmYs0ISFy5D7dhnuD4nQjJMePCjwEN53Jrfd5NC4sQgzJ0jKjEckUQssWceIQo0xj+EhNB3ky/4XScaq/HpeX349yXHsb0l7ejTygYz8Pz08OY/sJeLL/xMBZeo9/nke804LOgHdyZj8fX4XGVPj+m7Ca8buk+uF9DX2fawUEcpK0gb542Mit7WriAGyPTjjyxz12v1g55jp2btwPa9SE9ggviEDdZLNqvnwouBdOnbMFlIG/z7IH/2bEW7a7PKWZcZhjn/BVoyhRCFsp1QFsH0sWAsoZoIF3Kc+RYYL5yOkVAf5ZZcGotLk1fw6rZYOCTt42YGxY9vPWN5tn4aPgsLnc6Vnj+7Mz70T9DHHRiMbaXp9gZPo7nn3s3PjXzNla8Hrts8Xf32OltIivgxlX6uc4y5PHzfe7dkzDD4jHaYUu+welpHdtceNaS7/e02PIwQU5rEQsBVsHuOhXTskmCOXoJXAA3wKAnIKBO+6dlw+Jr+hLC6CJMVmE0swOuO6AzeSIX+gfB1uooz3ppurkQ9Qbk+mjZ2NTQTksjnOu9SM7Gpc9iOSSunjm+HWfnbwPrA6rtsY9YjfuxgtO4ENebF+MncQlrGMaL7dX4TPM+w/swdpamY//EQVw5cT1eb77H2H2gtLE5x0zYORmDO8jzYxSUbqHRfWTw0F8MdxDKCatw7BrbHi3BqdmljbF2AixYWqIRhTNb/aBq0amUObwryGm5Hdjp3/UQ8O+AzqgjPwYszWggOpIdOGKWkqfzr7UM7WTqsWDtEAFRoLdNW/scIJ4RANFAHKPMNZTL4S7TFIUPVBa2Q8KvdYB9wODdjDPxMXS3PRN3mpNxBxu/OziOY1mMLbbxA/471t4jOrkar86+Gy8MP4wFFs09Otxmtu0C1MEOTA1lndp9NkvTbLfZfk9B/SkWPTdK0hzyzgGFRmCUtKiORlHOUN1ICXHLi5AO2LRoF04R6jYruNncDY5Cw3EaumhqfKTRFrxMiWqdhVUBHeaeg+T7NcnnkowF2851dI4fA0ZfVp3K0zLulxmg4zwRbBUkzEvjkL+e5+RmLM/vodI+/03jMs7FbWbLHWS61z4bm+vHY47tswN/gDw7zQJPH7BFv834rSPFbNxszsZH7H5uPLwUg/fnY/oRJiLQRDct4Vs7xeAyw1oP/nVj0+S+5J3FIpRTK95FD4ykx4wsi16x6CT3GRZjbFqrRubL3WJsncVkXZ+VOnnOkVYuPn+CRecgYNiAWaxzMsE9p0sBuPhtLZsQhylMjEROZwoymYhP7dqXGSrU8+2JY2HkcZt7Vv0+4V4fy27xqRvtMdzEmXinuYITuIK9Xonbg2fiwdZ0bG3Pxr3tRfYgq/Gg9ROEvbjQfhSfoOZJguJtFrEbuJebg7OxfRv/vMGi7Gjr2c4h91noBLqtIvsq1ujnCoR0veOULxMuLlJOlNSeRmKPCvquUy70HsK4HmHduYfodMdK8x0quz62RZSpaSVxYGD592jCol9jMfRQSVSgBC2Hj//B3E7SR9dYuoBeUo08rOP/bEea47mncli0B/z6wezdryuHrNBslxs2FwP99NwUYPVjb3Y11oZn4uaj83Hv1rl4tOZ2fi4WFx7Hc0vvxeebv4o346/imeY2EwPrHs7kDHC/MYvCbR+5jhFpeDp3fhDTZ+nyAtZ1ggpEOC7G+f3NKobhWx0/vPE08RSWfgxZmS1ac6uv3q7GRdu0YORNLNQxFemsVn+u1VpWDC7jZ56VQRF8sfoTF0OA9vRu5JsF2wrCpp8qviqdbMaamqZ5CYfylM62CuSos6NLN4HCTU55+OwiiPLgt0PQdSksRKFbwY+3OwuxuT0Xm4Rk+++xhX8XpTfZerPgnTlzM95svx+/1fv9+M29b8SpqTvxsF0kYruC3+7jlTbw8I/Z4BxEf2Yrjh/filMn7sTp4w/jxIlbMX9mK2Yu4rQBvwfF8blocWW9CwzIc3R/Bjnw307t4mZ5xqxo99QPIjzpY2xDNjW6UL/jKBu57iVurqTc5j/yKQPkQPRYEOvBP0C/Xk7v0qItlKEjotMX1Aw0O7KOyXqSr6sWWPRSTISgs2kWHaKJdgnF5inXCvTLbnezGfXmiaO99jTPVX+T1g8YmI8Q8j3avD/I6lPP78WVk1fjS82fx68Pvh5nv/F+rBClfDB/Pn4yvBBzKHmuuQM9YMwe4rN3AH0Nq/9xvBDvxXPN9XiGbeC56duxtHQrTq7cJTxsYvvkXkw9sx+9S7sxRZg4MErao18Wak/4pg70sJZhZCzGfRbjNs8TtHyxQbj0z6aKheUap89KPRfJcjYyAvoShY6EhZIj4r1Eh5XZaKE0eX0MnHAdgCXQ2QfJlb3FfbSs7LnoCKhuRGsmxpZDDgoLk7/cGu4g9Bb3G/B8hJAbRAq+jbnCZubUBjH27bjIHvr8/E4MjvXi7tQyvc/Gau8RfvoB8+oRvH2t7ObnUbzS/CB+vv1ufIld5evtX8XLvW/g028A/FWWHGKX+emYx/p709tEKdNx8BDfvoZlGrEMsFrEaBeQ22hkvvzqKvYNTzQ6k6bvFDVV46N+dR0JtDG1QItTAq3ruAQrLVhfXBdFK9A8D/eFxnuBN9WFkbAhf1PItSZomaAjj+/oeoZ0bpVzW85zrCYBpW4aBtY95Lr3iMXpEdPODYXrC923+tVLbSydehynsNjZ5m7MLm7E+tR8zDA4xt0n4qOMq+dYlO19CuXOEyD+Qvu9+Ow71+LMd27Gs1fvx5Vbt+KT87fiuemPYq9vKHgMUeaZ/DPxcOdEDO/P+iIcoOkYN+gGy9dsfgrYnCNnBjZ7rFFb6Jou1neL21zaa1emQqPXfhVkBsPb4qO7g/8EWRJAqbPSHBGBF+T6zEGxjJV5wqU4cbJTQ6Y5OvXLLoU9Sxv9tUawQznhVi7iuBnrt7uEYUzbNkMrSL/iOnvuIGZODWO5/xCg9wGYLTfB+nHAPcd272TzCMgeQ9v46sdxvF2P5wb34vI71yN+dz8GX2Mgv4sb+u4wZh7iv/fXY/pyG3eJ1R81yxm/31tbjQagYx1d3WwRW2s/OdAslH1fJKPPFG55QKDljNRt9Im8EkNxSfBVzpLyOisXSY8j9J3R7QxbT+JHIJbmI3DThRhVyMznlndAZ7SPkAbyPE6gae8i2OAuGoW9CD9fSZ7CcrHwKd9+n6T9CXgtU8e6M9xLKNS4SOJyejxT2cHyfiwsrGO1jxLMeRQ839yIi5t34/h9bPP2Vqze2IwT62txcvtenLy1Hv3vMNnfnYr+h7iTm0j9IRLv446Qb+5zm3F1bplQ0W3PlVi/cSbXh4D0bOyVovUbvnOokp9FEIMfYJ27mOJOLwa4tQKe008LhjJ4GMfTAm1ePlkQL+Nogc15PNnIa0GTqVbutcnnta71PGX3I5QaT/KYGeA3c67guVk4Rl1DLEKp4Sewhc8B4Kd59iLPnJbEu+0q16tYtLRCXT87UD4U21ljWz24iA2fijX80HA4i9tnmAGw+SFgfp38vyPpH9Dsv5H/T5T7ITJvIgAu5mCtH+sfAMN73L+HB/t4n3HfpIvteOyJkt99PECmbWTAf7dn6PszbEheYrH0Q0oGXF89PD0MQnVmWjE2auEaBPxnpJy2Uv7rMAqkjRgFwqRyJu3ux0oCrbPVskWv7IjqaZVANwLerlG2gZtiRD1T8BgSf9wjJu27ALL99YOZuMwzfG+w6jeEW8Nn4MEANK8w3aD87OAKPZ1k1Z7GSti0rA8W8Io4CDY2277BHhJuaSwP6AsvMfgxSv8AoL7NYH6b9rfhy7pxAChDF2SKXELcRg3QVc02h/hp3EbcxWI3kGHfXaRuohczqOzXEb5I6LnA0d45PGTdZ1dP0gqcyTwQAzATc+9qYm7y37gQ1/HKV9rmQlpiQb9Wd1E0XpazjNFMa+dxiVCsB6NumrhA5GGHdT3/9LGHNiwsQ+LnKT9coX5/hjIjEBaYWOnhMwdx7gvX46VP/iheeOHDmLuyHdvnAQm30bKL018vrayzwbsZZ9s7LICPcKH3YnlxE1UZHLoc5PYZkAANNx09F95nAF63xaLWxzPOfhF9fnEY1798Ob7a/Gb8Wf/NuPk2o/4Dogo/NwDNnpurAyz3AQN5Ax39QPIectwB8LsA3X1z3W4bR7t6djtj9G9S92J8xUcXPz2OOnqdjxazRMcHJoH2vaGH/ZbDJL8l89rkaAm+HWjC3fO0cswB4fWKLnDNDt06GQCYnXT02Zk1i9CZ/Th75Vp8ee6b8evNV+Pz8Ze4xfX0732ssWFQdvf6sby8Huf6d+Is0ccCynmaFzN7sbRA3LDDRuWxQCDPB1iwnw+w+PoJQ/9Zdo6nGWTU2/1lYPniavzx4uvxtfY34rtrn4/drx+P9j3lJXZ2EdSu7mNG1+Gla7oHX639Lv4bkIe+JbqLInsCOgm0GDjTNTidSgE6PcQ4vMOi0/NXa65AuuXWmo0dFUYgYZh+SQs32YEM7cx2PrMu7QjwXUA8ROptD3EfCOohzhx+cJqdVx76NHFy+X6cm30/Xo6/Zqd8J+40q3CYiXVfRc2wucaPrizsxGp7C8/zgCF0PcDiiUIWZ3djAerTR8OANL5oZavd/yWe/4OFePDGSmy8cix2X52PD58/G2/NvRz/I34jvtX+XNz80YWI7+Frb+FIEHNoJIRPb7De8BMELLjZQOZNBm0NHQG9vY/M6+g3UG9DEGXpjAyiNrkYTCyICWeGd698xU823Tzqk8vvBwXd78u0ZaeCliojGWT4TpJpZQy3ZOh1dTVc24sHR1u4D6e3cfQG5Wu0uwPftSlfv+IqVmLQn83F7gZO/GZzPraGJ2OnWYo9nPHC7CDme5t6IgYI/iDTDlkIiVtnmRmLx1gnLsPzswzgr8zG1d94Mf7rmV+IP5j65fiLqdfj2zOfiz9rfjX+svlifL/9Uvzkxgtx8CPM9yqsbgI26jW+FXddh3wt6Bvy1kMwQPbNTNxlID3XdlOjNTesS8zg/LwgMSJpvRmdYUyJFXJmiPenfrb72/k1qZZryDb0m7k8d9WizYWV0c7pIBPL9NFl5S3PXSqMpz3PdQYYBLtrIZDOV1Js1f3wENfh73c8+B8sA/hZ2n+aHN957vU7cWz1I0LsPuPRY67MxS4L1g6Wemx2D2u+S9yxnpZ9Ku7jq+/ngf8ldnsX4lYOAEMRt3GDfxi/HF/b/Cdx++ZSTPUXojc1iD3Wif39WRZA9o830PVvkZkoJD7CCBDDbz5aBtQ1wc+HW5ccsRR4XIagN9uC9xg0/EmBv4VhdwmVwEC3YSDhQHjMus2zHRZlrH/on/ppADpegZM+2c92BYbO6uLoFM+QTgbmAE3dciBu8jn1iaf9PqIMgidvi2Xa5Hdffu/hgbo/08Bz08VQH+3JmV8p/Tx+9E16+NRuTLFln57ao4td3AOzatCPuXkses5PajxAus8wrrFV2iRMuwng6wzxNobom5mT+dnutQevxvWvE4u9AzBYfob5uXNTJ2YkM6y9hRy3uQOv4R6y+IdckE7UM4LQKwDygS+WAd13gcNh+YVA+aXAI3I/zdXsBdhpoUFqwU4JB4E2Y6DLDzqrT/bEoByHCiSdJMhdSuQcfsuUhmuFh8ZnJa4ofqHpi114eBjToyw/VXIn6Veb9OH0Nzq4hJJfou+fp7dP4cvdLTqWi1gaoPsWZGqGHeLc45ibwydPr8cxfPUiA+8nCU2+xViK9d2TcXv/RGzcWYj9Hy7E8Id0Q+iXnzg4u0UvxeMem9Fa098Sb6dv9lTugIHZmIpp9iL7j7Rq2rS4zO63LmneWmsC6UjoTsuCWKza+5KXxXH/pwE9A7S+E9SqBbpa8WSqIDN6uUMS5LQFkgNRjlXLz+Z0IwLrdRmAQvK2HWvCItdvEGt/CUVxI4ZYB/6swmbHAF0X45uRWaxnBsue2Y3pha2YxWH7cczOPWS9g4EQGfTZmAz8OvQB1vqQQVpHYTYs8Yh+PI7Vm8Gvzy50X9U8vvXEzrMaLntY7tA35Q8BZyBYjpBuwF2gi57guhBaTk5wMP6ZnPV9x+gexLKypj0BdI0w/GF7L6e4FnoU6DL1SnmBtiSu08qLdafp6JPdnuunfZVfP7rJnWYBmgiZflkIP0GbV2nzHMWOsWOBp+kxAdolALLMM269EE3beRTs4RL88ugavV3jGQvVkNCsXQdgv4ryzTZRQ+KE0Sle7rnkpT1wbxDV7oswBR4IbTH4hG/NwTaPDd80e1yDI5B6y0TyXlch0FwSQPixjZ302NDlG5gEmln5U4FGE/9cQ5sLotLYQZcELsGeBNo6+qUO4Exe66+0YjTLMxEXTJ+rraAb4YAoEU8zOxO9K/TtbwSXacmWvVnCwgUF99L4eRnb9Dwb8WRtbp+QbiZaNxTGvDcoB8wBu7vGj2Y2BRppAFnp2yHgGfEoE9cze9NxYHy/7zlGp4ln0mK3L/oPKbuHW3LHK3ByUX5l13odvaxcLNrZnVaORWd9rBtMfKNegWYIHd4KkiNL5JGvGmSOwPhlqfhhlM7/dA+CqB+mbQ6KfGwj2d4V2lHFj4627duQi0j57CzrKuw+buse/G9B5D2mvh8suitzs9D6TcY69AiFDA8f0ucagWZGBEhFVDDUarVkuHr8ynYvJUm1cBX+yis/vhwAlvXsHv/dZ0cZj6F0tbRzhNJFACj+2U/CdAdF+y7S4n9FTwbdMqdKkvcknqdXnUhlw/LEBzSAmVGHtWUouHbliFpe6pRnhn2pEiklKKnMKagMQrEKyyT5kOdiWiIYP0Fo0xIBlu066w+WSRvi2P4mdTdY/DbY+eU1z9eR4SbPjXH9AB2WjT9V1q/7Mth11x0os6I3zaB7SiV1IBs7O9vzu5c8H9coDNU8uzGSEPnid9TeWZggq0fuhoslj4+Rq1+2DCK3dv2u4+m/yurAKWQjF8ryGW8pK4AVp2+Hjr71fFZSGTjvBdJrkXDUBVkX5DNnBYjkrzlFBscs+ItYta59nnjb4rqGImKfaMTfvRjIDMChxwYtN2ps9Jpn8JHnesToBzFF++HWVAzf59m7EFvqnESua7pfc2aHMPk2u2mdaY+4LxFGm2Bvcu/sE5tjgGYucA6CrkP9KUvz1W/X+mKiW5l0HU8kLU3QCpjl2lRHrohW3INkPe8nyySTYHqN2fQ0Ha8daWeBrsUpitD4xLLwuPUChU0C/TsHbCwA4ieeLdPm+/D/zjAG5MMf8ewqgHtKp35sSPIvHlxmAF4Gll/ZjuO/tRYn/iF+9lUq+Janig/5UkgglKX8IkuQQb7RNxsna8n+dNmRUebOoJIqHqZqWDL3uuZPJp5UoAoIZcqbWwZllCADy829wuHn6yN9mCvuuAOnaJmmtb5uCCBYdQz6/e2d+77isx35YjnFzAA8Q4kb5Jigqz+uYkgk0a4jn2EXEUbvPWbFj8k/xA3kHyugH/xrOwPXU20snTuIiws/jDPLt7FyFloW0vyGEVVSNOo2nvaxFrn5KN8Uk+OfW+RppG4NUYuS2Onha5JSBzZTBAe+6cbZUV9d/UGso4nOuecYp4LcZHJhS3KKO1VqFTv1e2EtwEEwOTgdTVq+oVyGc5K87NT2rshasdZULEqhCpm0GAdBC9e6ne8iKRCWuWFggDfhc53Bu0o7wru4Cci3UNGqNHvENnudPeNjFfdb7BUGxL8A5EsIfTP1WnaDxT3IV7C91mlTP91gR3n2o1xGGzUC+VlJvKS/C+hcqIwq9MslpCmLgR0KcvFBZbNip+b12ktH1LYerxagFS7PAHK6lohj5N/TZBTDC8v0BfpAQfWwQQuH2A0Wi6ds8JCtOeDsAc4GbfyhkBGLX0Hdw7Xcn43d7bOxe3Aqemyt+2xS/KM0vVmuUWG4o/tywNew3o207LLn3kNaFzR11dqdrVVuge5kfmrCqtMTT9I4cVctygdlFOo0yLmWufcVTIX0vxKFZHSoNafVVubW816BaWcl/ufS4/nskPusnu4FxWhfTgmt382aVFwrA/T8KwHeF3BctIZM70FP/86zPYD+GBjeh+8PpmLwnem4982VePDt1Wj/eir2PwIeBqO9S50HTnPcFv5Y/q3ugj6Nf3UJOe4pe9ExUxGW/4r+zJ+J/7zXDZJnY+uavEGfdKuUPhl1aM1ea9mSqYxwFWCc6JjRzgA9hSmzQMBLnK0gWoL1fC4/B88cAVIIqQ6mijhrtCAF9dTPzRPPtJacLcqWOxmaUOYfFPR6jmcXuD5P2SVk9ZMvWRr+3aKp30h7PHsX32vgne7IgWPmMJD1A/Kip72bq5uuzD6VX4Ym6x1OxdptY/3yB7I0mvpb8KcAXay4TntZlCR43o+TQpQpJTAm3UwFTSqDkuGdq5A80/cXPvVvd+af2xkNpqnm9acc9G17APeIoPxZIHPKU2fPVvwDhHMxVGy378bTtvHLfslzDWLlHgD7wUHxz4JjhGF5BbmAqIlU/UpSf2XX6ifdh2XqUdsbTT0JdB2iiVSUH0UdI6WtKkAyruT9YVBLkkcdYVIH6JhfEah1u8rUZcLDQWUVkpSvyGzvIOrTcSeEYfmbx4xSDILJcRvl74U+oO19lMJv7wMc0cnw+gG0H8N7tNumnT/Fio+pc4M+XPxcCyQjCOUp+vqnQ/33cKpYqIOp6ixN6JV6Pj11Fv0al8Viy6mbDARRv+Q2m/L8vkOCWa7KOn+nXrdgdG3Kx5I8ndiDysW2ZcMjWVcORcHyfFxfW6rp6AwZjk4CydNauOxkHdezD2W1TKuslml/1dd34Dgb81zCOhUsKOX3+aQ0pnpX5MpZSQhczjfgkfdYMwbk5uVnWPTTUgGq7OerAoe7fzJVK4CcHYZJnZUWHywZfWip+kKVqiRvFXSh0WrdrXVnwk51/3BgTn0ts2713DpLXhvn4ZT9oxz5e7cPucdR4zJKRGOqMnXUyZmfW4zOeio9mfwDLn7cWRe7MsDi8vT0BNC5cE2kAoAA6/wmon6emCYt1+T9OPQrlEB6QJMbhAqu1Flbhk9l4Sn+vrTTpUzyyUFysDyMp56/virWqT+spDtwEHQt3Hs8Z9NJUBPYMtBJyqabqgBX4EfXT6ahvzzLv6YrhBofmBgQqDtUZuk4dUBbWOlI6lxBCXVkKOiUWc5oltjRdBiU3A2mkALT5QmEChZQctHITxgq4NardTsa+T0H191YkaRs4/WvDoi+XfBV0LJyAN9rHnPvGmB/yo2RaIEdS88iihu0rXw6yueWk+ivIlOo6Fn6so6lk0n5fW7yX+8ngB7FjOTVz5bkdUbAmY8EyHJHsbKgXKAqZbhnKh2PSQDNtW79e41DtSzrSrWvyf7qM5N5Nzg5YN3XndyXrXM3KxIkIyjl5D4HUrnKG/7Cn7KRIdS+LDdZR/0m5ZGsV+loqiCbGNwSFo3QHSVFm3QH5RMxgXBKMk3rEeG4SkkCO9q+a32wTkWdBeOuDyfLJYXRJ2tZR9LIBwIGfRefbV6vqxuS2ICkK6nuR24CqMzInwdIUok48n1jN3j27n+mw4bms84okp4GbqdJBgy6V4OKwwA9AfTT0wD2KgClsHTWjdQ4yeooCbgieP2zkrwkhHuCb1E6gdXFpFUKXpfnSl9oyEI3/gFPUdRQbZhAu2i6rS8LZ9ZNXRzAo1ZzNFX5Ohl/VhoFC4eTe2Ky+gBAUlGZFcbF/5XTtjJFyx94qi8li5CdBR9KY5B1S5Lb7/Jz5+Lh8nn6eMMx+WAvIwsubYsc1f9SJxdA783LAlapfJIm4D7TpvDXGelY3slbrVte2YfJawdHHuYFg7KrLbzGZOpkT/nMbUPuGsBsKI72MB4gUDsxL+COwYbyeS332iRzwYHZyBd39Uc0wSOJuh6c5y9vC5WdItv2xpcKfvvhTrDG8SZ5dADII+UqVP4/CY72URP10y0IatWtAlOpym2abHs0+Wzcb6HJ9LTyo/Jkj4VRGb2xdZR7LaaUK3D+8RAEdHteP4AslmuqgExSEaDEwyjmXw5sBdm2UgHcV1n+Jd42/HPyhpFOP0RLYOXTWVfKUqhYOM/q4ivlbFAf/3S+O0a2wJ2rK6eQY/ppyfUpfyVyKB0Gcxw42FvVT8wYXGfcyCDGqWtRC+lhZMHmlUw1r8mm1Up4JvM6E2oun+QndXVHZx0T1Fl6idGrEhM8Mp+8Ni8D8ARVORJ8XZt1/2+TvGpCbkWvdOiZqbok5bFPnk8EEzWpecfAin6XULxL8TI2EAwrlLxYVI1CDK2KdWWduqlJyyqSaSHF+pzGxT/WqKEA1mUed+YvceXpmoA8ObOKr005SSVGrnHzfp66VUqF9dUjwpJTPdtWV1KoyKSllzplS+9AO/A+tVCd6+I2SaaSO79LaRfX028p07WOUzWfUSpTQMXUXqpKjstKKCVgnuV6rVLGqzJXMF2BfMY8cvHybCRfgclDnpVUninuNIfKQBaa7LdY56RsgmudSZqwMCy68Kllk2Sf5vZvQu48YgDcLKp9QPXoIWej5jcpg1QxmyR5j9MTQNeGRxmNXQD3LjSs8AVkGVpWfFSObK70XbvKw6mcymm1hmB1oMrMKJGAuTy1+Apa5UGO1ZbTNcmQ09woo1BxFbYrVlv8pffjgRtT7cOkTdpWUlf77HSVsryjlKcAO6ZSt4BdMTIfp6b+6flxknmdHo6DVlomQ3UqJTn1qqAm602Om8oqgvzstHQsj2L5tY961QnY1SvCogS3ZXKWVAZ2ou34Mt3UONFPnsmQjIzglXwyStIqrVvcYblX9tpeveynJuWqyXodX1KVbTxDnUVFD7mOPwnLY1I/cqxpkqlpktEk0KbyzFT84Pi+1C8DdJRnGflx3XJtnSJgudeyuPf2UN3J/k2Tz7LyRBrXLecSpqJDkcHkfQW8puK7f3oa8618Smv+xZLrgFvrZ3zXUVLxo3TWTaV8r5c57qESnYyIaVW3wu7SykKjEHW6mRfq9eSl1ZQpXtpbpnLVmmhTF7gsq6QSk2SbSofLy6FWaVdk013onipf65Qw8ZBeqbOmUjB4ksYuqPAvi3v24SJMnUL/P/0/ThH/GxZSpj+rQxUMAAAAAElFTkSuQmCC;" vertex="1" parent="mVMNMaw9jNS7bV4Ns5Lu-231">
          <mxGeometry x="294.18897058823563" y="121.27216911764714" width="90" height="86" as="geometry" />
        </mxCell>
        <mxCell id="mVMNMaw9jNS7bV4Ns5Lu-211" value="" style="shape=image;verticalLabelPosition=bottom;labelBackgroundColor=default;verticalAlign=top;aspect=fixed;imageAspect=0;image=data:image/png,iVBORw0KGgoAAAANSUhEUgAAAFMAAABTCAYAAADjsjsAAAAAAXNSR0IArs4c6QAAAARnQU1BAACxjwv8YQUAAAAJcEhZcwAADsMAAA7DAcdvqGQAABJ6SURBVHhe7ZtbjF3XWce/vc+Z+4wvGXt8ietLHMdJ2rSkTQFxl6BITRGq1Cfe4AEBLzwhkCpA8NBHJJ4QDwgJqfCCkAgtPOSlpVRFCNKkSZM6F7u+xbexZ8b2eGbOzJy9+P3WPsduKyGws8/MRJzPWrP2Za211/rv7/L/1j4uIv4oRVAN5REF+GKE8sdFmc+H0ogMwWxQhmA2KEMwG5QhmA3KEMwGZQhmgzIEs0EZgtmgDMFsUIZgNihDMBuUDwmYVa9089mDc6V/3D/fPtmhYPaBcTerRRntlbFemahL4fE4rUYotnMHZ/tkB4LpjiDTKtzWmqwBy8fj9XlJXUxTZjgX1FF6jFDaHNtO2R5Qd9B+ptrYYiZlpGI3xwCVZjif4niUq2rgKIY+SS2wba6t0+su0F3l2i2uLXF+h9qxtkpPHuxn7hAwnQIAJAGbjFQe4fQwVw+BL8C2mGwbzRulHtmM9gyayGlaK6JaXI1Yvh5Fusw45+l/IaqC8ZKL3ArZcWAq+MQCjUt70blPRrc4HXFgIsrjYHmQ0PNYFWm6jGovTecoukuUsPwu9Te7UZ1FM7uvR1m8il6uMM5WBaQdCGYRu5jWHg5OAdQnI34c//gZtPCFjZg5uhHtXStRjrVirFzFbeIKSiBbacett3dH9RL+8x/XI95BQ+NlxtHk79UDD1x2AJgl/jGhQwaObNoElFZCBeOFqD57IMrfWY5nfnYxfnL3S3EyXQK8e7Ec05Q9cT0diJViKpaqPXFx43Rc/MZHIr5cRHoJk7/9CiO+kX1nhU+NAjqVBuk/H4AJn/j5P9kuzUx5ImigQabEftPHo5rdF5N/MBK/+Cvfid+b+v34rctfjl848434ucXX4/mZs8x7NeaLA9FJk/jGKjrt0bg3diDWOzjRJZZz3vBzhxWtMHqHsbciEEnLvvan20aNUp7AFIs2cu8DgcOsGw17biJOfO5c/ObYH8av/t3LMfqFlbjza90ovrgWU9+6EseI3AtpLt7vPhHvx/EcZ6YO3Yz2T92N1i8D6OyRGEmfBtBj6Ij0aeuWuC1glhhEgclGzADqY9RGlMejhA2Vp1M8u+vf4pcuvBV3/7IbX/3PTnzlfBHzb5RRLrRjPvbHd7sfjVfunIozi8/F8vqBmGgtxOFnlmL888sRL47G5vQc4z/BG9ud3clWWd4WgymxbkeVJgCRYFPqI6E/mG0U+6Kcg4Bzui+uxdjSSnQw21GAmEXP9pysYuP58Xi1+/H43jvPxNrXZ2Pz26Nx4/YE+r0WT5RvxolT70TxGYb6tG+FlxPQK0l+9mkudbCgbhGY+kaFx5m9oIVRPEf9Apc+ASt6MuLEdGw8jRfdXcEUT8W3P/FkPPZnZXzuSyle/KvxuPb3h+JLT/52/MX878b638xE+dUqWt+MWH1rb3Q29gNXl17nYvKzC5FeZJxje3jqkzCkgzx1a5a5hQGoD+QunnaE+iQKsy+KuYloH4XqnKii8PKhdmx+bDruocTVyVYs/cyheO1TH4u/nvj1+IfF34jL/3Q4Rl9OsTkPcR/ZiJgeic5sxOaeMsZwoJfX56J8fSq6Z+CZ14zmZkcAfH+TZBBSByBQHBw1Ku6Pq2ZMsSBTw4NcPR3lyNNoDxqEjyznSq2cSE7ZD1l6vooDJy/HockLMVVtxs2NPXH57LG486+zkb4GgK9C8NuAf4wnfApK9NNrMYaC7567HfPvPgbvHInibwHz7StQrm+RHZ3n2RD5DGjTWvqAGg0UzHpcIR3nkRJy/GI6hgckrTkJck9z/1kuE8TTvhTFGMBscs7lNMq0eOEFKWNaAJh3y2iT7Wye5fpVhp0gwn+EQPYMKeWP0ekUuTqxrDrPy/k69T+vR+v6BTKp/+CZ13imJH6wYA7YmQgmhBwgiyDIpMPUIDcGZTmGhhFU4mnqp2l2GtCOb0YBxmlxLYrX0DbMefQra1H+C1r17xuxeQEwbtNWPiQucPS0QH0B4v8ONWAXb/JSznJzscNz73JRrumCBy8DAFMAmbz0x1wb+hOxNwMaAFm5I7QXMz3M/cM8/iA1zKjt7T0AMQ3AxVik9bHo3C6jc3M8qtu4h1XatjBttzHz7hv9yiJK3SKYFdcpEPYSDa4uAe6GKcEaF9HSPCdElR+gDEgzGbZwj3GCZZjh4BChQJKccmY0ykMsahbzF8BJFk+w2czr9Bj/mfd8ue92pW5WXr8fm9+HLwT4ws2OXWgy76SLEiY0tFrk+HoV3auAuLSJ8q7zfMzf7aXS+bhU1XlwMiAwkcodINEQMUk5nI/Ur3wMwOZYJJezX+ygN25B3uJ4AcDu1b4z9gCWNPRxrpMcWReU6nGuy/PRztQCnE37cX6N+jIU/Tp9lznO1qEvg0FUvlDn4m794KQhMDFNJ48YburN236quJd6FzXqBn3p4hPzKU9Oqywc80zv0f8tLuHzynNcW2esSYptM5B1nfYDnkOOwRxVshXAp395jkL/4m0I0GVA35CqYBUJ6oWflkHQmWM7C7DSvJY2BKZAaqeWNme9naC86Siw1lzjtps4UfFYTDPuAOISF2/S/wpaZ8FUyRnRUK6jdWVFbenyktbpt1FFwhUmgzOmbd/qRkU/zJs61rtEb9qzNKlYyuhnh8yxPNf5mInVs21SGgJTTagXkEHrAVjXLoqIjSak1c2olgWQ0yW0iwBT3qTfNc4vUV+sSxJMQCruALLtBY60u1gG0Lv08dio7rblovdpt0Z7NLrOxZVxXp4JwiyFHFXtlCpki3FH35ferDQEZh9IF+Jb1zdpTh4LpOEWurMMsPq3edovoEkcp1vwRfxloa+7QrNrACZIspoVlrsCWGqxnNsCkBVAJoFeN07TL/EMC8e0Vok5ZD5JX7mXmZEV6TMwcy3Gb0l97WxSGgLTd+zCBBBa4xVsOmHTbgDne2mRc1ARTD/XCBz+LuZbaCJFk1VjBUpqiKR2i9jBoscZYwzw24zJv0x7ANJxU0Za34Gm8Uxb+AmovufM/Ag3xZlRS1YxwbFfNH3xFsfJHT6wNATmD4pqAajyliS4RG4WXBNo7Re0FiGH17v4OkC5yWIWAUGzBcQMwAT8kWge+xnNTaXHmeYcbaREU9wb5V4pEE6/dif5uzmdBTyzAYJUwctwNjXX0rwlqPpNNVYX1NfQZmAYEJhOsLeDnrVViIwa7oCjfqreVRadzZopYNYqbVHRbgJzJT+vyNvjNEB/FMCfJTN6imsnGIZEqoLcZ0YgtYJDJnEc5aXBPYO0tNqHpmrVtEnw1XqVfiYxre0DWlOlIgdHX8wHl4bBFEiHFMB+FBdUz70Dmc7pXScKg8ptgMq+kUVTJbvsRfOOoGcA1wLAkacA8gncxVFaHARcc/jdBJq9lH2AMIv2UVoHRqJ1kL4Heb78VIs2iE/RT7t3atkN1FoaBfNCY/WftXv64MJsmtqCE0TRqJ2+xLDmlxY1dBrAPJaqoB0tHp0XCZEaYZEAlCDk8RSXfoJY+8y92H3kZkzOLEV3FP+3yrgGqkWi+R3aYe6Zh+IGyqPUR3gZpP25PoCJ4ybMZtvSpA6eFM+SP6wVvMxCy7Ho32ut7IWufPzw4hhNfwPKRNLisE5UU9KsVBECgNSkxTm+TJ8W+j7cVkXpCo5lhqLPwyemqhUbm4yzzDgELrU5EXwqtK2apRzhBZyEqJ/qUqBdJ/HDT/Kok7Q7zr2jVWyipflbO8+oqRovM0GX0hHKcc7NCPYTvPz1iPf7WqqtPJw0C2YW37BBhwImbnhE4UowL/Ny8uvWwXa0xJe8PNDKKrstNInTwo0L0sv1xbFYurErlq/ujc6VaUg5aegCDeCTyfa4gwKzbqnN4kFd5o0TjntZkybfchOF99hyYyRro9ZBVuanEhr5aSNHuvvZkZNWthVMKQn+zV9SZM4nZTE8MznNyuBgUDiAJhlgZpisitCmbtV0Jq1hzpry96FSZzDNtyZj8wyNznKdYGXUz7tH4/pN2oBBxXgxh8/EbwpwL9nhmD7+CsQvyCojBpFKH1L7zIoLCXpQ3Sf0WpCAMzZH9a/qHk4aAtPHM3EIemHUzuza3QvsstRHsQhAUzlzdJ1Au6xVBH0ngOf08AbTOUd0fp17r9DnNWr3KN+hzfucm+2oudKeaTR6F+OoaLjTLmNVLe47FYXad5hGeHljuIARkoOs/fTNBeDyNqEknuiejPAfTBrVzDrb0dP3wbwF3bkdZZdFrgDSKhEYrMsOj004ez2CXch0yiXAJjcvz4LCd1j0f9HkFQrAuvFbXgX3uxxvAIrA8WJK/HNLbyKtIjMyRS2gsmUuAHWLc3P/ZY47+OAu4Gs4FXMx38+/9ND0rS39N/Fo0hCYAulQaie0J5u4uaIpzTxXb2LxrFoT5jBnOvcwU7KYksst00xMON2gy2VcwNvc/x5Avcmo73JMxpRucR/Q00YNSqyzcL0I76ygX4s2xTnaUtJ7jHG2Pi54CSNwWqdS/zDOl407yttOIuu5ZmGpM7a65MYPJcyo6W9AgqpfMn3TqctfjAruaeLMRtCEcdrYRM1UXJfeQZA2uUgW4+ZwJgOaMSYd42jkJKDoe3VzUKkYYRz7aASmqW54uLPkeB2O1UpfnFnWalZJTky1EFmHgCWtSIf8fVC4xBUnYgDVZ3L/fxXb6K8G8EGtHslJi4T+yG2wWdwi4CYiRs4+3M3xhwi07qeFmJ19LU4vL8OAAWAlPtF9ZnfeU2/nPRmE3NHAdaR5+pLbp1VQFIe8bYf/qDqMjJbBqXIOn9YY36RBDazr3JFUt0B1U97T87pz2gFg1uIDGFNKlJ27efEuXBSamXffdzN5QC51fkZRAbY9C8g/euXUK9QZcKN9G5oDL+0CbJsAX5l6bnK+AiBu03XR3Gyqmm0fLJGtmUUB50qZZXjdNtYdILsL3B6v0UctVRG0rv+rONmBgtmTbEqG8PpbUP5unn/QapYkLxJsXYGs2prrLRbiWghaOVenp3+zFin+gjijzLn3yfMLPwJlMNzo1Ex9IQInMBaP7Q+4Rip3l82EqEtegN+K8vei3PZhxdltBZh5cpqvoI1ibpmr5OPaaQqMRBCNLchIzEQA3l2hCt9Zg2kw6AGRJ24/wSHy590otclQ7nGP2xa0zdHGfvVLKND4epP6LvcEk5L3+tRS21oeBQf71WA+jD4/gjg5Nas2uwJnX7CYkohRFkYGQ6zh/Rb1dda/xKLhhFKpOvTWi87bd72Im7/pwn2oK6JOIqAktC2paX0w8mcLQRI8X4LA+WyAz9Gb61lz65dS99NHfjDZAjAVNVRT2sigVmhSgqUX+UepC0zCr2Lux13k+jWUSROkrSBlzQPMvP1ulBGQOpjUYChqhhEK15H1g+flR+txActNan0mz1ab68TCItCKgD6Kif+wDBjM/1kSmqNZummc5DaSTClKeZ7FX+TY38BA+jO30TQFVTO2uHBdhCAa4KBdyVxbxiAlwzdndwKiJvuavhrJSxBQn11L/2U3I9sG5oNHqx0u1O8VmbWzxrOY+/u4Bc/VSLmhZq42CaYw6HcBLm+/C6B8trdpkbf89K3QpmzWtSYW2TL6Gtk37+ZkG8FUu3y8hugC9YvzsCDTnQuAcJbrfiy6SQvvAWKhdmq69lMjCVwtOOs++OwxwJsTYMDMP3C1DUDiS1uMXwcrX0jzIPZlG8H8UXGBXSAWAMy+7Kc1PTPPweMHtcqpEzQmSUXd8NjD9V3k4vrMzAIMSLTXtIna1X3/OhgglR0EpmJGDAjVOia+zOTy7gVFM/dYMPW1vWCRCb6bZejqRjtapJCFvDMDqRYSwWEDVXYN/ZcwONlhYPYFTpigSDmSS4esBYiSKZBgAo7kfR1o3VOBBFQ31L5FIFtkYbVrqH2m7QcLpLIDwdQMe2DlgGFwEiS1UlNXy8xa5Kho6zqaehvqswBwHf8j6nuMcIMi7RL4vksYnHn3ZYdq5gMxPGXCn7VSING4Ql8K2U/vUy6hoBe5f4njd6nd/SEB6LmEGsytkR0PplpaZC3tZTCC2dsnLYj2RZwDrjdwnW8A8gXOyaJyxmWubio5BPO+9HKYDEzSxP2pcCmYat8VChqZf/k1H2W6yvky8JsICOTWLu9DoJk/IjkT0tSN8L3SOzb1rDWyT4O2Vj6EYBKcKjQ0f4FTQw1EpqNqo+6gvyu19fLhAxPIfliM0i6DXD1L7RS2Qz6EYO5cGYLZoAzBbFCGYDYoQzAblCGYDcoQzAZlCGaDMgSzQRmC2aAMwWxQhmA2KEMwG5SiKL6Y/AnUUB5R/F1TeTei+vPBf2T6/yMR/w0fyDcKXc01EwAAAABJRU5ErkJggg==;" vertex="1" parent="mVMNMaw9jNS7bV4Ns5Lu-231">
          <mxGeometry x="609.1930882352942" y="153.55511029411764" width="83" height="83" as="geometry" />
        </mxCell>
        <mxCell id="mVMNMaw9jNS7bV4Ns5Lu-212" value="" style="shape=image;verticalLabelPosition=bottom;labelBackgroundColor=default;verticalAlign=top;aspect=fixed;imageAspect=0;image=data:image/png,iVBORw0KGgoAAAANSUhEUgAAAFMAAABSCAYAAAAo7uilAAAAAXNSR0IArs4c6QAAAARnQU1BAACxjwv8YQUAAAAJcEhZcwAADsMAAA7DAcdvqGQAABOsSURBVHhe7Zx5jJx3ece/7zXXzt6+1usjh4kdO7Fz2k2cCySUNimhETQpiAJVIQWCkFAp0EoI2vzTVlRQUNqmUukhUdSCWkoppCRggh03ISEk9sbxlay9Ptbxeu3dnXvmPfp5ZhwJt6qUxq93HWmeMJ7xe/ze9/f9fZ/n+33eGeM4zmcSJwkUy1U3zi9A0JXTBTKV6KKYYnTBTDG6YKYYXTBTjC6YKUYXzBSjC2aK0QUzxeiCmWJ0wUwxumCmGF0wU4wumClGF8wUowtminFRgekpkhz7ZE9YE/kK5Hll+dylrwbbO89es8pwcJN3T65bPHtKxDEtPrf/tiBxUYHZedofA0eixA204d2X6eY/WKm40K/IWSHHacjtlfr+8EqNfuQOLfmNEeXcGsdnFSQZhW5BidPqDLYA4TjO7yduEhgnFj4cBy62FPJx0S03aemP+3WDe0BTWqVTOwd1+JFXFX/lGk09PyIvjvTHWz+rB/b9izY/+Kva/yTMjC/h7DJLsTBxUYDZSU3YyHvgNhXmh6Utm6SHblN27Wmt7JtVHPs6MT6o6rGckh8Gyp1wterzu/Td4Y+pfGJW1627T4pIf9XbIy5EeI5z6xccas+CreZZKA3MwInlF3q0+Bu/q/DMqMIopzApauZoUWfGexXFRcX1jHL91M4DTU3tHNJ/3fxLKo0GOrxznaqvHKI8MJPEa48437HgNdOhRsYkp+v4ivOrtOrlB1Xa4Ko5lVHyYqw+vyb/0pq0gv0zgLgnUf3ZSI1DWcX7c3p22zX6sz2f0abPk11egfTvOTvy/MeCgxk7ptC+op4+5b/0fh1+rFelf20oqjd0yWePaustj+rqVXvlZyNlJznhCQrSU67cJgswnMirNdWTn9JvXvu3eu8fFSlXzc7ACxALAqbbVmz7EON5qsquWaaRvZ9QeMpR68ds/nZOwe2h1q/aBziBDpy5VOHPs2pui5RMespwWsjLaXnqv7Kk+y//ru6OHtUjH/2Slq5qyWNM189w5vwWrwWqmSY2BmqPkvwSJV95QKVvOoq+78nZB097HBTd1cEDazSRWavah0jdf47lHWAZPM7Mc/IZX8mauvrvCtQ/vF97g7XqyZb0wU8+o21jWzXzYllxUFIS59pXnI9YMDADwIr6h9X/ew/KfS5Wczui8UpDSdNTvKylZAph2l9TUvXk5/icALaDpxwAxBI1tODqqocPKhpsqOSP6pjXq4O6ThP40bX3HdfM/g06tYvFEsfOU8wLmAEvsz1WHUGFCulr4PbNcu5+m0phXq0dHAB4XtGXM4JlH3WUKyA4swC7pKWgRG/zInc4GCt3BWAupWb2NlRvLdeJVzJyr85ofN9a7Tm9Saf6PF2Ckb919Bk99jUz8GaX5ifmBczY61wh8bA+iavi5htVue1tqpf7lT/MlU1YRjhuOaDn6IMavsLdFMUkVs/SrGo/4PNJWsfYUziFAFFb40ag+jNNliVQba6opEYzGpY1vMLRJ479vR56cJ1mjsD2eUy5eREgJzYwATIK5KzbqPrNd0lP5+SOuartiRQNocqbPRXfyu2sBoBGIncWLpdcVR4L5QGks7yh/FKYXQL04wxah53mQ49RAsZCOXPsO+jrhvKTuuTTT2t8xwxAziOSxDypOSoMIzNvvUm69x0KdyZq7g0V74vkeVk5uVA5MCxvryh3ELDGjZWukjIgniLdh5CjjRlVCyHjAHSdgydpOudYBGt4spSGHGMhXOW5JRpbchW+dYncxBrT+YsLl+ZOxErZuA7iG6rnqi0KLye1YWNyFDZVAbcP1fa58hBidDLChGeVLOLcaQAtA1rIsT28r2Fb0ZW/jvNgq0N9dSkJEFNJ0JK/NtDy+1HuPld7T1+un7k3KFMtqzQOO31Yi3hlTfDaN3bh4gLWTFhFZ+NR01rZZdL1b1XtUJ+CAxh0U2eASQrUPjy2d5CJVsC/DIiVSE6AALmuwrCuvg/6alyLLbokgbGA17RzqoDuKr+E2lpFkEYqqo96qnyZeexzNX1S6lk/ouqP9lBi2N8WP+u0Lmyk/KDDlqTTaVv9SGCn41wu3foB2IQAnYFphUSZqx36lFCFDCr9MqBmpVYPynuGBYBduhcNpsduHqNeXo72YweiVqxwB+cP4YrwotWjNXkrcip+bEatTJ8aH6zL39qjxhy1uRYr2sh9bJYuH3b1yn1flFua4Yp++94uVKTHTMe6GmyIAwv4nPCeWXwngvJ2JdiXuEyPnWMya2HcMYA2lrXgLqA4axCmpQ15fRm6G7zlMhaXmujMkfoT5isBfMC4BcgHKQ1N7naDp6WfmtTKTS2d+FSe8fOUDxbsOOcM4mJxAu6wp9lTUm/ZUf3QBHM0yuD4HWs5O4ueZqSY5jDK42YRDicpKFNYruj6dyrZA5tIXY3kFHNIkjTkTEA1ylkcsIE0dbA7SYttL7fUmqVuYnmU95W/hhJxAlCOMPwgIL9E/fw5kMDw4NcQpRt7dPjBPsXbAfFVFrAK3DHjnKR+LsrL2cm22ViN1oiSieflxXXuksag7XxtadIF1LIxpeDmnIoySY8WXzuizOaikVTZXvwhtTFDKptvzC3KtUXDGuxsn22DSc1QWQM2Qx28inZyK2KzFTZhjwJk3p6qeV4BY59VNI2SZygfr3qaeZhrvoDXrAbymrC76eNFUXhx7EHeK55yc7iBGp+XXanYH+EurVG1m0lfjlJjJk1fWzVDt6nbtr9fe9ZvVLSzplajwwCKs2KYEyIsOo4kmL1psB1rk6zkhaLHESyGpdEMAPyY1H6ROjgOO/fVUfqSvFcCmB2qdys2Cdbp+xklMwEGHgZybVsYB4vk9nPccQYe9dXkzaebSnrWYLOmuMaksgnm/wIwMzUw0VrqJGvuZPTyN8fllS9TdDcdzix1kg4oLDFRM+0Y7oDJxAiKY17SuqK3MLlp0t9n0tN4QzPpx8y0Uzun7ZuhDONRE6nFynhqnACEA/hK2u4khGGwsZNkjMffnQYL0+LzNOZsgJ5+ll7/NPe3aYmGFudVmnyZE+2cizTN4Rh/ICgxKXz8pLwffV8jd5RVf9e0WnhJbwgggTwxVeYQeyIe4ynjDbOKVgPcINwOOYJW0SySPHp4y+9+LM3KCI9alXM/C7OG65wByJBMaLPLxMTe7cUtsD2u8h5xLJ2UN8tG6qmTUAKGBlW94lpKAWXgvOnzvyPFmkm0F9uMeKR7/jSn5bOvKnl+kdwV+MgiiVXAL/ZzSd7dQYRqtKXCtYMAGCug5oUl9sMqcwLJAABu4e/3swjv5vj78oo2d/ymImB0EkoGit+ufwYkDG27CMSMJO4oNxYMNXfnKAfU5Twp3xjs1einPs4u6w7SjdTANIV03Ble3PSGona/fZ2eexSPubMk58xZpmQAoVZXQLlM3oHf/K1A9b1MnhayeaBpJa9teTLXwcrFpHwNMdoUKsCgJ6doOaewVbtn1dfPAAiyN0TqM2zHkrHNkgPP3N5JbSbB24KE7rWfStlzAOeopyN+Tv1f+DDFDZvksi0llqYoQLYy9jgjp5se+7iefXxU2pYoe5K6Z2ltBHqV6odfbP0K0/0Qte9JjPceQDsNsBkAwU9GV1XkbcbMx7H6fidUFUGJ9jPhF6ir38Ma0UHVERynRZloRMrmYTS+05yDiZyJoNVvv5e6Sf1MKB3t6OMztdalrvuQMhmBrR4NwYETitvF12ZwfpEiM7lZ11EAE46MMLECjeQgCdcPWNQwWy6XGtbc2NSq+101v1VT7y5SF9C0GMUeBLTFZeXuyMtbH2r0oWPK31TG8uSUOZ1l0lDwGNcIIvnrAcIHOASr0WwpB1PtAYgYq53eVo8NG44h79sr7WHgTfCifZSAXZ6aPwsVXX2TCrfcxTnpfAmXGpjW/wAHn+h2xvLyG3V6coBsAhYAxCdh3zsj5e4JNPHDitxdOVVeZB/diRaj5LdwM7+cU0h3MrB2Usvfclon/61X8SQA/hRho7Mx1U7ijML9AEf3FMA8F9VuzPF30tXcRDvd6Q5izDqDUXbYZ7vL7LOHJgwTvkBvP4k3PUZTu2KDMqvuaN89e9pzeaORGpidZLI/Y5383HeUm5hTdhlMubRCb+2q95MnFTyAkIyiAs2sYlpFczoOnjPZgvW5x5jsqOfOqgr9ocY+t0neuKPCTlJ+PFJmESAFoBKh3nUTHk8t5s/ZbWcQ+FY3uXwfCl60D9TaIY7awBTZH9Y4mFJjbHZge3Kce4k8la+iJDx8M8cbO2F/O7jOG4jUaqY9l7HHbubfwokpJXtPqPWx68m0rFpJTc0ayP3MWAVrD1Fbj1FhYU50KQK1ESCopboMvKidk58YRoxIxz1ZNbfDWpQ+ihpIsTHH1t+M2Nl7DpCfYYSJxSENGIe3Onuo094ACzCC6NnTedeXZ3UUVXeKljHkEX7WK1ISKtivJ3Yy2C8ys0OP/0+kBmZnkqQazLRHXk6jyrwaqn/0Mn34vX+j8ewWNXcC7DGOeg5WngZIuyimXT9FmHxPEV668TX6asx6hpQNdzK5Vktejn69AtNoCOwbpA6YNllenO/QrqpylqHDLEzFlRsiWICfyyN4IfdWwi3Yt5p0Qy4Z4GDPEkqE65dUqDXUHNvevv/XFuuNhJ2ZUhgzbKJnUyU5peZT0xr64g81lrlMp7FFeQy3ZzWs0JRLf608QHo5OZlQzScA47sUiZ8iNhWE5WnGgF3kpSJ7gGHtagZGsVidsJWArfSL4QnzlRxKPY3s6w6aBKvfLr16dX8oL099XU2NrAIkIumR0ckw4yyb1bu+OqE7gj/hbIPitTR/Y3HhfrjVJo5ZEQ8mFHXzE7+tnzyRkw9ocZKBOSTVooYGr/c0cxgL9WJG9Z/Awln7lab91tJXSB/uwLwktHr4GohMm3Hj2L7CJU09KwHtlonLWVfkKliZEZWB9WRWs9yIPRi5lCMGGPM09Rcb1BykImCJSpVnFY3t4GD7/ef5RYrMPDes1SOTuMmK4tOntWPzX2vo4CvSOzxd8Rcn1fvQlPrDnyvzyJfV8x441kdtXA0zYbDdVmhWx/5nvXf7A4JhRpzdHXa2uQiQ9t7DJ3KYRcqQHY3pktx+RikyPXxq+4u8CUDHzxZGfDWXNNT/Tkdzz/ylkpd2qCBbjPOPFGvm/wz70oL5MbkEuxM0HVWeH9O667Ma2fWC+h7dq/G/G1MV7zi8OqfsnSOqvsTcK9Q6rA49T8fqcG8GnBlykGU8KN1ulawLYL9tt7u32kt6h06dlrSgaJqrV9mPz42ty2G3hzVqMFwBK1b7+l8pjujYWKxm+xrnHxcuzX8xLKepZyYfTvvn1PYVWwuwWpjrYfWvKmrTP23Q09/aqugHAHKULgX/aQJuZtwzzDgrikzcSH0D0LHHcR0KoNNKrowUZOmqXuZ9DtuUsfIgFW9wVRmip38eZl9BGbiCc3b+h8KXnmMMu6+Ow0wjbOkveNiXWtw1DIAZANnALkVOjtpZxB6VNHtoWttvfFyLJ44rvLIpZzGHB8ZCpsnLQIwig9NecNZaxrNlgA9y+mJloFwTgtmvQVpFjhxCgIYSlfdVWQxH4SVNRQORClNH1NgzhpNgIVME0uICpvm58RoUBqqnKpAYywwPJAPA7FllefcLGrxmQLX1NM9nsC8t0GmwEO2TObr9bnUTDtAIuBHpi8+Mh0jpCYSr3lTvKNwtYcQHUSCEJylj0CnehTuzcn70n6o89TiDVNpD2bXTjHlhpkUHOAtjAxamfenO1rZOo7A0omrt3qdlpTEUGQausL0AxaFmaezVTnH7PMBrGTtW8tdNObWGOma8fJix6WzsO/VwGoVfhNdcC2ue2kYJeI41oUngv45fTTfmDczXE/UAdr4wrlP/8JhyQ1OoEcANwzCYGNOX2yuxhxkou+PG9NVstxoIax06mQABKizj7wNVBcsZcDULciNTvGxSpcefZrKWEYzRvlrnzzRjfgTodYdJLmkcm2IXIGuferfcrdLMqGQ/wqoDDA25D8AR4uEAZrKe40dqcm9j2wGEi24oeh6jdO+Ebr99Wt9b8m05ZQPOfvr62izTB9LiomJm+3ZMc8xOIVdBNKXyc99RcWOgYAlpuQgGZhGTDOxaTD9NbRTtaTyXVYDNDHbD1B0weHVZ14zk9NiKRyWAtNpoLqAD4oUB0uIiY+a5YcIYqK6mf4Wy97xPLeplvJ9qV/Nlz5KTEanWQ9fksf1VmDuKIN3haMXGWEfu+obypf0kdjoe8vXERQ6mqTytp73nVqnn19+jSta+DKsq2YXCBLSUYVbuDG5kS6i1H3G0922PMKklSpo7sCpFRa30heb/iosszc8N7Dp/RO1vcv3aEbW2bdPilZPSAwW5H2iocDd40jZqBLbeW1fjiWeh6ikl1d2APKh4HoG0uKiZeU5kmupvuqoP9Gjozz+tU0d9tc6wfbKi/K2uit97Rmf+/cn2w5Fzn0vOX7xpwAxwoS2X7sj+9UTPUuW+/j75Exllr4tUft8/qn74MGWhCpNNvNI146833jzMtH8zhLH3rL20H9ImV9LuH0LK6T2jo6JBpUXsaff8CxUXdc08Jzo/oQMye7f/81T7sp10DqmhgNywfyK9gEBavHnAfBNEF8wUowtmitEFM8XogplidMFMMbpgphhdMFOMLpgpRhfMFKMLZorRBTPF6IKZYnTBTDG6YKYYrv0L3Kj9i7JunF9I/w2I3m+IsKrPpAAAAABJRU5ErkJggg==;" vertex="1" parent="mVMNMaw9jNS7bV4Ns5Lu-231">
          <mxGeometry x="9.193676470588343" y="33.55687499999999" width="83" height="82" as="geometry" />
        </mxCell>
        <mxCell id="mVMNMaw9jNS7bV4Ns5Lu-244" value="&lt;span style=&quot;font-family: &amp;quot;Times New Roman&amp;quot;; font-size: 18px; font-weight: 400; text-wrap-mode: wrap;&quot;&gt;KNN&lt;/span&gt;" style="text;strokeColor=#d6b656;fillColor=#fff2cc;html=1;fontSize=24;fontStyle=1;verticalAlign=middle;align=center;" vertex="1" parent="1">
          <mxGeometry x="698" y="802" width="100" height="40" as="geometry" />
        </mxCell>
        <mxCell id="mVMNMaw9jNS7bV4Ns5Lu-248" value="$$\mathbf{z}_{0}$$" style="text;whiteSpace=wrap;fontSize=15;align=center;" vertex="1" parent="1">
          <mxGeometry x="1006.3730467899893" y="939.0325677603423" width="138.34602829162134" height="75.320970042796" as="geometry" />
        </mxCell>
        <mxCell id="mVMNMaw9jNS7bV4Ns5Lu-260" value="" style="edgeStyle=orthogonalEdgeStyle;rounded=0;orthogonalLoop=1;jettySize=auto;html=1;" edge="1" parent="1" source="mVMNMaw9jNS7bV4Ns5Lu-257" target="mVMNMaw9jNS7bV4Ns5Lu-259">
          <mxGeometry relative="1" as="geometry" />
        </mxCell>
        <mxCell id="mVMNMaw9jNS7bV4Ns5Lu-257" value="" style="rounded=0;whiteSpace=wrap;html=1;fillColor=#f5f5f5;fontColor=#333333;strokeColor=#666666;" vertex="1" parent="1">
          <mxGeometry x="1114.05" y="885.6425677603423" width="85" height="181.36" as="geometry" />
        </mxCell>
        <mxCell id="mVMNMaw9jNS7bV4Ns5Lu-235" value="" style="shape=image;verticalLabelPosition=bottom;labelBackgroundColor=default;verticalAlign=top;aspect=fixed;imageAspect=0;image=data:image/png,iVBORw0KGgoAAAANSUhEUgAAABYAAABNCAYAAACi/ZQPAAAAAXNSR0IArs4c6QAAAARnQU1BAACxjwv8YQUAAAAJcEhZcwAADsMAAA7DAcdvqGQAAAE7SURBVFhH7dlBTsJAFMbxN9PWVhECsjBxBUcykXMoS28hp1BDPJNNTFwYTbRaKi107EzHT9CaFMry/ZtJhpfmVzLdgaBfTe7CM8rVNQnh2tFG5Y4ajk+HobSfTQZV6jbwHbd94FDd5XtrjAkToHuuPNwvb66zRHHN06XK0rmVygy8jv59+n+lmaIoztQsjsTr86Odlslv1HOl9D1B2ULVWp9pDvTl6YFUca0mzYsiIfXNb/Gi9vpIlpTM3g1afDHL/VQc0nZvX5fEUSWqq3+gG8YwYhgxjBhGDCOGEcOIYcQwYhgxjBhGDCOGEcOIYcQwYhgxjBhGDKOdwUHQsruyncDtbp86R8f6x+8r/R+InjWGNdrtnxj0YjQY23EzuNXpVaK6RrBfnGsVqhOTaXhv99t0cz4aXNr9SkRf/uOqtrMaqqQAAAAASUVORK5CYII=;" vertex="1" parent="1">
          <mxGeometry x="1129.1298585418936" y="982.0286447931526" width="23.412404787812843" height="81.94341675734495" as="geometry" />
        </mxCell>
        <mxCell id="mVMNMaw9jNS7bV4Ns5Lu-236" value="$$\mathbf{z}_{t}$$" style="text;whiteSpace=wrap;fontSize=15;align=center;" vertex="1" parent="1">
          <mxGeometry x="1090.3730467899895" y="874.0025677603423" width="138.34602829162134" height="75.320970042796" as="geometry" />
        </mxCell>
        <mxCell id="mVMNMaw9jNS7bV4Ns5Lu-251" value="" style="edgeStyle=orthogonalEdgeStyle;rounded=0;orthogonalLoop=1;jettySize=auto;html=1;" edge="1" parent="1" source="mVMNMaw9jNS7bV4Ns5Lu-238" target="mVMNMaw9jNS7bV4Ns5Lu-249">
          <mxGeometry relative="1" as="geometry" />
        </mxCell>
        <mxCell id="mVMNMaw9jNS7bV4Ns5Lu-238" value="" style="shape=image;verticalLabelPosition=bottom;labelBackgroundColor=default;verticalAlign=top;aspect=fixed;imageAspect=0;image=data:image/png,iVBORw0KGgoAAAANSUhEUgAAABYAAABNCAYAAACi/ZQPAAAAAXNSR0IArs4c6QAAAARnQU1BAACxjwv8YQUAAAAJcEhZcwAADsMAAA7DAcdvqGQAAAE7SURBVFhH7dlBTsJAFMbxN9PWVhECsjBxBUcykXMoS28hp1BDPJNNTFwYTbRaKi107EzHT9CaFMry/ZtJhpfmVzLdgaBfTe7CM8rVNQnh2tFG5Y4ajk+HobSfTQZV6jbwHbd94FDd5XtrjAkToHuuPNwvb66zRHHN06XK0rmVygy8jv59+n+lmaIoztQsjsTr86Odlslv1HOl9D1B2ULVWp9pDvTl6YFUca0mzYsiIfXNb/Gi9vpIlpTM3g1afDHL/VQc0nZvX5fEUSWqq3+gG8YwYhgxjBhGDCOGEcOIYcQwYhgxjBhGDCOGEcOIYcQwYhgxjBhGDKOdwUHQsruyncDtbp86R8f6x+8r/R+InjWGNdrtnxj0YjQY23EzuNXpVaK6RrBfnGsVqhOTaXhv99t0cz4aXNr9SkRf/uOqtrMaqqQAAAAASUVORK5CYII=;" vertex="1" parent="1">
          <mxGeometry x="1029.3698585418933" y="913.0286447931527" width="23.412404787812843" height="81.94341675734495" as="geometry" />
        </mxCell>
        <mxCell id="mVMNMaw9jNS7bV4Ns5Lu-249" value="" style="shape=image;verticalLabelPosition=bottom;labelBackgroundColor=default;verticalAlign=top;aspect=fixed;imageAspect=0;image=data:image/png,iVBORw0KGgoAAAANSUhEUgAAABYAAABNCAYAAACi/ZQPAAAAAXNSR0IArs4c6QAAAARnQU1BAACxjwv8YQUAAAAJcEhZcwAADsMAAA7DAcdvqGQAAAE7SURBVFhH7dlBTsJAFMbxN9PWVhECsjBxBUcykXMoS28hp1BDPJNNTFwYTbRaKi107EzHT9CaFMry/ZtJhpfmVzLdgaBfTe7CM8rVNQnh2tFG5Y4ajk+HobSfTQZV6jbwHbd94FDd5XtrjAkToHuuPNwvb66zRHHN06XK0rmVygy8jv59+n+lmaIoztQsjsTr86Odlslv1HOl9D1B2ULVWp9pDvTl6YFUca0mzYsiIfXNb/Gi9vpIlpTM3g1afDHL/VQc0nZvX5fEUSWqq3+gG8YwYhgxjBhGDCOGEcOIYcQwYhgxjBhGDCOGEcOIYcQwYhgxjBhGDKOdwUHQsruyncDtbp86R8f6x+8r/R+InjWGNdrtnxj0YjQY23EzuNXpVaK6RrBfnGsVqhOTaXhv99t0cz4aXNr9SkRf/uOqtrMaqqQAAAAASUVORK5CYII=;" vertex="1" parent="1">
          <mxGeometry x="1161.3698585418933" y="913.0286447931526" width="23.412404787812843" height="81.94341675734495" as="geometry" />
        </mxCell>
        <mxCell id="mVMNMaw9jNS7bV4Ns5Lu-250" value="$$\hat{\mathbf{z}}_t$$" style="text;whiteSpace=wrap;fontSize=15;align=center;" vertex="1" parent="1">
          <mxGeometry x="1049.05" y="949.32" width="150" height="59" as="geometry" />
        </mxCell>
        <mxCell id="mVMNMaw9jNS7bV4Ns5Lu-254" value="$$\mathrm{Eq.(3)}$$" style="text;whiteSpace=wrap;align=center;" vertex="1" parent="1">
          <mxGeometry x="1008.37" y="917.5" width="139" height="45.85" as="geometry" />
        </mxCell>
        <mxCell id="mVMNMaw9jNS7bV4Ns5Lu-263" value="" style="edgeStyle=orthogonalEdgeStyle;rounded=0;orthogonalLoop=1;jettySize=auto;html=1;" edge="1" parent="1" source="mVMNMaw9jNS7bV4Ns5Lu-259" target="mVMNMaw9jNS7bV4Ns5Lu-262">
          <mxGeometry relative="1" as="geometry" />
        </mxCell>
        <mxCell id="mVMNMaw9jNS7bV4Ns5Lu-259" value="D" style="ellipse;whiteSpace=wrap;html=1;aspect=fixed;" vertex="1" parent="1">
          <mxGeometry x="1239.37" y="963.35" width="23" height="23" as="geometry" />
        </mxCell>
        <mxCell id="mVMNMaw9jNS7bV4Ns5Lu-265" value="" style="edgeStyle=orthogonalEdgeStyle;rounded=0;orthogonalLoop=1;jettySize=auto;html=1;" edge="1" parent="1" source="mVMNMaw9jNS7bV4Ns5Lu-262" target="mVMNMaw9jNS7bV4Ns5Lu-264">
          <mxGeometry relative="1" as="geometry" />
        </mxCell>
        <mxCell id="mVMNMaw9jNS7bV4Ns5Lu-262" value="&lt;span style=&quot;font-size: 15px;&quot;&gt;sigmoid&lt;/span&gt;" style="rounded=0;whiteSpace=wrap;html=1;fillColor=#f8cecc;strokeColor=none;" vertex="1" parent="1">
          <mxGeometry x="1307.0700000000002" y="958.03" width="72" height="32.32" as="geometry" />
        </mxCell>
        <mxCell id="mVMNMaw9jNS7bV4Ns5Lu-264" value="" style="shape=image;verticalLabelPosition=bottom;labelBackgroundColor=default;verticalAlign=top;aspect=fixed;imageAspect=0;image=data:image/png,iVBORw0KGgoAAAANSUhEUgAAABYAAABNCAYAAACi/ZQPAAAAAXNSR0IArs4c6QAAAARnQU1BAACxjwv8YQUAAAAJcEhZcwAADsMAAA7DAcdvqGQAAAEsSURBVFhH7dlBToNAFMbx98aqNcXERpNG4sY7eQnjyqW3cNE7qKeq0dSVMdIabVU6zsDzazEsqGX5/ckkMMAvUFgVlT8tnoZn3uuNqnRsaq1U3aken9872y4y9E5ctyMukabD644JywAv0T1XHtxtNMI1hpM//Wz+XUJWAVfRXrGjSern4vOpf5286+P4xWbL3C+qbjug8Za+Gg31M6Cjh2fxYVnN2YNy4sPBedZ4yOJNsqmhVbPI/ffpx7LJRy0aq7wVbUYYEUaEEWFEGBFGhBFhRBgRRoQRYUQYEUaEEWFEGBFGhBFhRBi1Bie9XVsrawUeHO1LOjiI/9Jfx28gcW5jOKInab9At9KLS5veDD7sJ7VobCM4/q51aEzz8XBk6+unehvQK9taSeQHMduLtXrg4tUAAAAASUVORK5CYII=;" vertex="1" parent="1">
          <mxGeometry x="1429.3677941176475" y="935.6874632352941" width="22" height="77" as="geometry" />
        </mxCell>
        <mxCell id="mVMNMaw9jNS7bV4Ns5Lu-266" value="&lt;span&gt;&lt;font style=&quot;font-size: 18px;&quot; face=&quot;Times New Roman&quot;&gt;mask&lt;/font&gt;&lt;/span&gt;" style="text;html=1;align=center;verticalAlign=middle;whiteSpace=wrap;rounded=0;fontStyle=0" vertex="1" parent="1">
          <mxGeometry x="1401.37" y="901.03" width="60" height="30" as="geometry" />
        </mxCell>
        <mxCell id="mVMNMaw9jNS7bV4Ns5Lu-234" value="&lt;font face=&quot;Times New Roman&quot;&gt;&lt;span&gt;Mask generation（Each Step）&lt;/span&gt;&lt;/font&gt;" style="text;html=1;align=center;verticalAlign=middle;whiteSpace=wrap;rounded=0;fontSize=18;" vertex="1" parent="1">
          <mxGeometry x="1379.0700000000002" y="1015" width="159.99" height="68" as="geometry" />
        </mxCell>
        <mxCell id="mVMNMaw9jNS7bV4Ns5Lu-232" value="" style="rounded=0;whiteSpace=wrap;html=1;fillColor=#dae8fc;strokeColor=#6c8ebf;opacity=30;" vertex="1" parent="1">
          <mxGeometry x="999" y="843" width="543.22" height="245" as="geometry" />
        </mxCell>
      </root>
    </mxGraphModel>
  </diagram>
</mxfile>
